<?xml version="1.0" standalone="no"?>
<!DOCTYPE svg PUBLIC "-//W3C//DTD SVG 1.1//EN" "http://www.w3.org/Graphics/SVG/1.1/DTD/svg11.dtd" >
<svg xmlns="http://www.w3.org/2000/svg" xmlns:xlink="http://www.w3.org/1999/xlink" version="1.1">
<metadata>
Created by FontForge 20170731 at Tue Jan 11 16:02:45 2022
 By Aleksey,,,
(c)2008 Schwartzco Inc.
</metadata>
<defs>
<font id="Stag-Book" horiz-adv-x="1228" >
  <font-face 
    font-family="Stag Book"
    font-weight="400"
    font-stretch="normal"
    units-per-em="2048"
    panose-1="2 0 5 3 6 0 0 2 0 4"
    ascent="1638"
    descent="-410"
    x-height="1073"
    cap-height="1434"
    bbox="-375 -426 2376 1905"
    underline-thickness="40"
    underline-position="-312"
    unicode-range="U+0020-FB04"
  />
<missing-glyph horiz-adv-x="1030" 
 />
    <glyph glyph-name="f_f" unicode="ff" horiz-adv-x="1218" 
d="M631 0v131h104v803h-352v-803h109v-131h-463v131h75q22 0 40 17.5t18 37.5v748h-142v139h142v82q0 145 80 215t223 70q101 0 170 -25v-127h-96q-79 0 -117.5 -28t-38.5 -111v-76h352v92q0 146 82.5 215.5t231.5 69.5q95 0 168 -25v-127h-103q-80 0 -119 -28t-39 -111v-86
h226v-139h-226v-748q0 -21 17.5 -38t38.5 -17h104v-131h-485z" />
    <glyph glyph-name="f_i" unicode="fi" horiz-adv-x="1120" 
d="M20 934v139h142v92q0 146 82.5 215.5t230.5 69.5q87 0 160 -25v-127h-96q-78 0 -117 -28t-39 -111v-86h530q22 0 32.5 -21.5t10.5 -72.5v-793q0 -21 17.5 -38t38.5 -17h80v-131h-461v131h104v803h-352v-803h109v-131h-463v131h75q22 0 40 17.5t18 37.5v748h-142z
M840 1186q-53 0 -90 36.5t-37 88.5t37 88.5t90 36.5q54 0 90.5 -36t36.5 -89t-36.5 -89t-90.5 -36z" />
    <glyph glyph-name="f_l" unicode="fl" horiz-adv-x="1120" 
d="M20 934v139h142v94q0 283 346 283q96 0 197 -16h208q43 0 43 -56v-1192q0 -21 17.5 -38t38.5 -17h80v-131h-461v131h104v1167h-168q-98 0 -141 -28t-43 -111v-86h223v-139h-223v-803h109v-131h-463v131h75q22 0 40 17.5t18 37.5v748h-142z" />
    <glyph glyph-name="f_f_i" unicode="ffi" horiz-adv-x="1693" 
d="M735 131v803h-352v-803h109v-131h-463v131h75q22 0 40 17.5t18 37.5v748h-142v139h142v82q0 145 80 215t223 70q101 0 170 -25v-127h-96q-79 0 -117.5 -28t-38.5 -111v-76h352v92q0 146 82.5 215.5t231.5 69.5q86 0 159 -25v-127h-96q-78 0 -117 -28t-39 -111v-86h531
q22 0 32.5 -21.5t10.5 -72.5v-793q0 -21 17 -38t38 -17h80v-131h-461v131h105v803h-353v-803h109v-131h-434v131h104zM1413 1186q-53 0 -90 36.5t-37 88.5t37 88.5t90 36.5q54 0 90.5 -36t36.5 -89t-36.5 -89t-90.5 -36z" />
    <glyph glyph-name="f_f_l" unicode="ffl" horiz-adv-x="1693" 
d="M735 131v803h-352v-803h109v-131h-463v131h75q22 0 40 17.5t18 37.5v748h-142v139h142v82q0 145 80 215t223 70q101 0 170 -25v-127h-96q-79 0 -117.5 -28t-38.5 -111v-76h352v94q0 283 346 283q96 0 197 -16h209q43 0 43 -56v-1192q0 -21 17 -38t38 -17h80v-131h-461
v131h105v1167h-168q-98 0 -141.5 -28t-43.5 -111v-86h224v-139h-224v-803h109v-131h-434v131h104z" />
    <glyph glyph-name="f_b" unicode="fb" horiz-adv-x="1789" 
d="M735 1298h-168q-98 0 -141 -28t-43 -111v-86h223v-139h-223v-803h160v-131h-514v131h75q22 0 40 17.5t18 37.5v748h-142v139h142v94q0 283 346 283q96 0 197 -16h210q41 0 41 -56v-467q159 174 375 174q64 0 121 -16t111.5 -55t93.5 -98.5t62.5 -153t23.5 -211.5
q0 -102 -19 -187t-52.5 -145.5t-77.5 -106t-97.5 -72t-108.5 -39.5t-114 -13q-121 0 -199 32t-137 93q-13 -48 -38.5 -80.5t-45.5 -32.5h-119v1298zM1212 121q59 0 109 18.5t95 61.5t71 127.5t26 203.5q0 92 -15 161.5t-40.5 112.5t-62.5 70t-76.5 37.5t-87.5 10.5
q-128 0 -275 -117v-586q100 -100 256 -100z" />
    <glyph glyph-name="f_h" unicode="fh" horiz-adv-x="1808" 
d="M1106 0h-475v131h104v1167h-168q-98 0 -141 -28t-43 -111v-86h223v-139h-223v-803h109v-131h-463v131h75q22 0 40 17.5t18 37.5v748h-142v139h142v94q0 283 346 283q96 0 197 -16h210q41 0 41 -56v-465q84 78 193.5 125t228.5 47q62 0 109.5 -12.5t88 -41t62 -82.5
t21.5 -130v-633q0 -21 17 -38t36 -17h68v-131h-490v131h148v614q0 95 -40.5 130.5t-127.5 35.5q-143 0 -314 -102v-678h150v-131z" />
    <glyph glyph-name="f_j" unicode="fj" horiz-adv-x="1093" 
d="M840 1186q-53 0 -90 36.5t-37 88.5t37 88.5t90 36.5q54 0 90.5 -36t36.5 -89t-36.5 -89t-90.5 -36zM735 934h-352v-803h160v-131h-514v131h75q22 0 40 17.5t18 37.5v748h-142v139h142v92q0 146 82.5 215.5t230.5 69.5q87 0 160 -25v-127h-96q-78 0 -117 -28t-39 -111v-86
h530q22 0 32.5 -21.5t10.5 -72.5v-1051q0 -145 -71 -208.5t-213 -63.5q-92 0 -156 22v113h74q80 0 112.5 35.5t32.5 112.5v995z" />
    <glyph glyph-name="f_k" unicode="fk" horiz-adv-x="1705" 
d="M705 1434h210q41 0 41 -56v-866l340 346q23 25 16 50.5t-36 25.5h-49v139h444v-139h-53q-47 0 -90 -43l-266 -266l299 -430q45 -64 90 -64h30v-131h-245l-324 477l-156 -153v-193h136v-131h-461v131h104v1167h-168q-98 0 -141 -28t-43 -111v-86h223v-139h-223v-803h109
v-131h-463v131h75q22 0 40 17.5t18 37.5v748h-142v139h142v94q0 283 346 283q96 0 197 -16z" />
    <glyph glyph-name="f_t" unicode="ft" horiz-adv-x="1247" 
d="M1038 -14q-150 0 -225.5 61.5t-75.5 206.5v680h-354v-748q0 -21 17 -38t38 -17h105v-131h-514v131h75q22 0 40 17.5t18 37.5v748h-142v139h142v92q0 146 82 215.5t229 69.5q85 0 158 -25v-127h-90q-80 0 -119 -28t-39 -111v-86h354v289h221v-289h244v-139h-244v-655
q0 -88 32.5 -118t117.5 -30h109v-119q-72 -26 -179 -26z" />
    <glyph glyph-name="f_f_b" unicode="ffb" horiz-adv-x="2363" 
d="M1309 1298h-168q-98 0 -141.5 -28t-43.5 -111v-86h224v-139h-224v-803h160v-131h-485v131h104v803h-352v-803h109v-131h-463v131h75q22 0 40 17.5t18 37.5v748h-142v139h142v82q0 145 80 215t223 70q101 0 170 -25v-127h-96q-79 0 -117.5 -28t-38.5 -111v-76h352v94
q0 283 346 283q96 0 197 -16h211q41 0 41 -56v-467q159 174 375 174q64 0 121 -16t111 -55t93 -98.5t62.5 -153t23.5 -211.5q0 -102 -19 -187t-52.5 -145.5t-77.5 -106t-97.5 -72t-108.5 -39.5t-114 -13q-121 0 -199 32t-137 93q-13 -48 -38.5 -80.5t-45.5 -32.5h-118v1298z
M1786 121q59 0 109 18.5t95 61.5t71 127.5t26 203.5q0 114 -22.5 193.5t-63.5 121.5t-88.5 59.5t-108.5 17.5q-127 0 -274 -117v-586q100 -100 256 -100z" />
    <glyph glyph-name="f_f_h" unicode="ffh" horiz-adv-x="2381" 
d="M1679 0h-475v131h105v1167h-168q-98 0 -141.5 -28t-43.5 -111v-86h224v-139h-224v-803h109v-131h-434v131h104v803h-352v-803h109v-131h-463v131h75q22 0 40 17.5t18 37.5v748h-142v139h142v82q0 145 80 215t223 70q101 0 170 -25v-127h-96q-79 0 -117.5 -28t-38.5 -111
v-76h352v94q0 283 346 283q96 0 197 -16h211q41 0 41 -56v-465q84 78 193.5 125t228.5 47q62 0 109.5 -12.5t87.5 -41t61.5 -82.5t21.5 -130v-633q0 -21 17.5 -38t36.5 -17h67v-131h-489v131h147v614q0 95 -40.5 130.5t-127.5 35.5q-142 0 -313 -102v-678h149v-131z" />
    <glyph glyph-name="f_f_j" unicode="ffj" horiz-adv-x="1667" 
d="M1309 934h-353v-803h160v-131h-485v131h104v803h-352v-803h109v-131h-463v131h75q22 0 40 17.5t18 37.5v748h-142v139h142v82q0 145 80 215t223 70q101 0 170 -25v-127h-96q-79 0 -117.5 -28t-38.5 -111v-76h352v92q0 146 82.5 215.5t231.5 69.5q86 0 159 -25v-127h-96
q-78 0 -117 -28t-39 -111v-86h531q22 0 32.5 -21.5t10.5 -72.5v-1051q0 -145 -71.5 -208.5t-213.5 -63.5q-91 0 -155 22v113h73q80 0 113 35.5t33 112.5v995zM1413 1186q-53 0 -90 36.5t-37 88.5t37 88.5t90 36.5q54 0 90.5 -36t36.5 -89t-36.5 -89t-90.5 -36z" />
    <glyph glyph-name="f_f_k" unicode="ffk" horiz-adv-x="2279" 
d="M1278 1434h211q41 0 41 -56v-866l340 346q23 25 15.5 50.5t-36.5 25.5h-49v139h445v-139h-54q-47 0 -90 -43l-266 -266l299 -430q45 -64 90 -64h31v-131h-246l-323 477l-156 -153v-193h135v-131h-461v131h105v1167h-168q-98 0 -141.5 -28t-43.5 -111v-86h224v-139h-224
v-803h109v-131h-434v131h104v803h-352v-803h109v-131h-463v131h75q22 0 40 17.5t18 37.5v748h-142v139h142v82q0 145 80 215t223 70q101 0 170 -25v-127h-96q-79 0 -117.5 -28t-38.5 -111v-76h352v94q0 283 346 283q96 0 197 -16z" />
    <glyph glyph-name="f_f_t" unicode="fft" horiz-adv-x="1820" 
d="M1612 -14q-150 0 -225.5 61.5t-75.5 206.5v680h-355v-748q0 -21 17.5 -38t38.5 -17h104v-131h-485v131h104v803h-352v-803h109v-131h-463v131h75q22 0 40 17.5t18 37.5v748h-142v139h142v82q0 145 80 215t223 70q101 0 170 -25v-127h-96q-79 0 -117.5 -28t-38.5 -111v-76
h352v92q0 146 82.5 215.5t229.5 69.5q84 0 157 -25v-127h-90q-80 0 -119 -28t-39 -111v-86h355v289h221v-289h244v-139h-244v-655q0 -88 32.5 -118t116.5 -30h109v-119q-72 -26 -178 -26z" />
    <glyph glyph-name="f_igrave" unicode="f&#xec;" horiz-adv-x="1120" 
d="M20 934v139h142v92q0 145 79.5 215t215.5 70q85 0 147 -25v-127h-69q-75 0 -113.5 -28.5t-38.5 -110.5v-86h530q22 0 32.5 -21.5t10.5 -72.5v-793q0 -21 17.5 -38t38.5 -17h80v-131h-461v131h104v803h-352v-803h109v-131h-463v131h75q22 0 40 17.5t18 37.5v748h-142z
M795 1161l-136 191v82h218l43 -273h-125z" />
    <glyph glyph-name="f_iacute" unicode="f&#xed;" horiz-adv-x="1120" 
d="M20 934v139h142v92q0 146 82.5 215.5t230.5 69.5q87 0 160 -25v-127h-96q-78 0 -117 -28t-39 -111v-86h530q22 0 32.5 -21.5t10.5 -72.5v-793q0 -21 17.5 -38t38.5 -17h80v-131h-461v131h104v803h-352v-803h109v-131h-463v131h75q22 0 40 17.5t18 37.5v748h-142z
M766 1161l94 273h221v-80l-192 -193h-123z" />
    <glyph glyph-name="f_icircumflex" unicode="f&#xee;" horiz-adv-x="1120" 
d="M614 1161v60l127 213h193l121 -213v-60h-94l-127 142l-129 -142h-91zM20 934v139h142v92q0 145 79.5 215t215.5 70q85 0 147 -25v-127h-69q-75 0 -113.5 -28.5t-38.5 -110.5v-86h530q22 0 32.5 -21.5t10.5 -72.5v-793q0 -21 17.5 -38t38.5 -17h80v-131h-461v131h104v803
h-352v-803h109v-131h-463v131h75q22 0 40 17.5t18 37.5v748h-142z" />
    <glyph glyph-name="f_idieresis" unicode="f&#xef;" horiz-adv-x="1120" 
d="M733 1192q-47 0 -81 33t-34 80q0 46 34 79t81 33t80 -33t33 -79q0 -47 -33 -80t-80 -33zM1020 1192q-47 0 -81 33t-34 80q0 46 34 79t81 33t80 -33t33 -79q0 -47 -33 -80t-80 -33zM20 934v139h142v92q0 144 77 214.5t203 70.5q66 0 129 -25v-127h-57q-62 0 -96.5 -28.5
t-34.5 -110.5v-86h530q22 0 32.5 -21.5t10.5 -72.5v-793q0 -21 17.5 -38t38.5 -17h80v-131h-461v131h104v803h-352v-803h109v-131h-463v131h75q22 0 40 17.5t18 37.5v748h-142z" />
    <glyph glyph-name="f_iogonek" unicode="f&#x12f;" horiz-adv-x="1120" 
d="M881 0h-250v131h104v803h-352v-803h109v-131h-463v131h75q22 0 40 17.5t18 37.5v748h-142v139h142v92q0 146 82.5 215.5t230.5 69.5q87 0 160 -25v-127h-96q-78 0 -117 -28t-39 -111v-86h530q22 0 32.5 -21.5t10.5 -72.5v-793q0 -21 17.5 -38t38.5 -17h80v-131h-80
q-51 -41 -75 -71.5t-24 -69.5q0 -64 80 -64h64v-102q-64 -31 -131 -31q-87 0 -138 40t-51 108q0 63 42.5 111t101.5 79zM840 1186q-53 0 -90 36.5t-37 88.5t37 88.5t90 36.5q54 0 90.5 -36t36.5 -89t-36.5 -89t-90.5 -36z" />
    <glyph glyph-name="f_imacron" unicode="f&#x12b;" horiz-adv-x="1120" 
d="M639 1219v147h395v-147h-395zM20 934v139h142v92q0 144 77 214.5t203 70.5q82 0 144 -25v-127h-72q-62 0 -96.5 -28.5t-34.5 -110.5v-86h530q22 0 32.5 -21.5t10.5 -72.5v-793q0 -21 17.5 -38t38.5 -17h80v-131h-461v131h104v803h-352v-803h109v-131h-463v131h75
q22 0 40 17.5t18 37.5v748h-142z" />
    <glyph glyph-name="f_f_igrave" unicode="ff&#xec;" horiz-adv-x="1693" 
d="M735 131v803h-352v-803h109v-131h-463v131h75q22 0 40 17.5t18 37.5v748h-142v139h142v82q0 145 80 215t223 70q101 0 170 -25v-127h-96q-79 0 -117.5 -28t-38.5 -111v-76h352v92q0 145 79.5 215t215.5 70q86 0 148 -25v-127h-70q-75 0 -113.5 -28.5t-38.5 -110.5v-86
h531q22 0 32.5 -21.5t10.5 -72.5v-793q0 -21 17 -38t38 -17h80v-131h-461v131h105v803h-353v-803h109v-131h-434v131h104zM1368 1161l-135 191v82h217l43 -273h-125z" />
    <glyph glyph-name="f_f_iacute" unicode="ff&#xed;" horiz-adv-x="1693" 
d="M735 131v803h-352v-803h109v-131h-463v131h75q22 0 40 17.5t18 37.5v748h-142v139h142v82q0 145 80 215t223 70q101 0 170 -25v-127h-96q-79 0 -117.5 -28t-38.5 -111v-76h352v92q0 146 82.5 215.5t231.5 69.5q86 0 159 -25v-127h-96q-78 0 -117 -28t-39 -111v-86h531
q22 0 32.5 -21.5t10.5 -72.5v-793q0 -21 17 -38t38 -17h80v-131h-461v131h105v803h-353v-803h109v-131h-434v131h104zM1339 1161l95 273h221v-80l-193 -193h-123z" />
    <glyph glyph-name="f_f_icircumflex" unicode="ff&#xee;" horiz-adv-x="1693" 
d="M735 131v803h-352v-803h109v-131h-463v131h75q22 0 40 17.5t18 37.5v748h-142v139h142v82q0 145 80 215t223 70q101 0 170 -25v-127h-96q-79 0 -117.5 -28t-38.5 -111v-76h352v92q0 145 79.5 215t215.5 70q86 0 148 -25v-127h-70q-75 0 -113.5 -28.5t-38.5 -110.5v-86
h531q22 0 32.5 -21.5t10.5 -72.5v-793q0 -21 17 -38t38 -17h80v-131h-461v131h105v803h-353v-803h109v-131h-434v131h104zM1188 1161v60l127 213h192l121 -213v-60h-94l-127 142l-129 -142h-90z" />
    <glyph glyph-name="f_f_idieresis" unicode="ff&#xef;" horiz-adv-x="1693" 
d="M735 131v803h-352v-803h109v-131h-463v131h75q22 0 40 17.5t18 37.5v748h-142v139h142v82q0 145 80 215t223 70q101 0 170 -25v-127h-96q-79 0 -117.5 -28t-38.5 -111v-76h352v92q0 144 77.5 214.5t203.5 70.5q66 0 129 -25v-127h-58q-62 0 -96.5 -28.5t-34.5 -110.5v-86
h531q22 0 32.5 -21.5t10.5 -72.5v-793q0 -21 17 -38t38 -17h80v-131h-461v131h105v803h-353v-803h109v-131h-434v131h104zM1593 1192q-47 0 -80.5 33t-33.5 80q0 46 33.5 79t80.5 33t80 -33t33 -79q0 -47 -33 -80t-80 -33zM1307 1192q-47 0 -81 33t-34 80q0 46 34 79t81 33
t79.5 -33t32.5 -79q0 -47 -32.5 -80t-79.5 -33z" />
    <glyph glyph-name="f_f_iogonek" unicode="ff&#x12f;" horiz-adv-x="1693" 
d="M1454 0h-250v131h105v803h-353v-803h109v-131h-434v131h104v803h-352v-803h109v-131h-463v131h75q22 0 40 17.5t18 37.5v748h-142v139h142v82q0 145 80 215t223 70q101 0 170 -25v-127h-96q-79 0 -117.5 -28t-38.5 -111v-76h352v92q0 146 82.5 215.5t231.5 69.5
q86 0 159 -25v-127h-96q-78 0 -117 -28t-39 -111v-86h531q22 0 32.5 -21.5t10.5 -72.5v-793q0 -21 17 -38t38 -17h80v-131h-80q-50 -41 -74 -71.5t-24 -69.5q0 -64 80 -64h63v-102q-64 -31 -131 -31q-87 0 -137.5 40t-50.5 108q0 64 42 111.5t101 78.5zM1413 1186
q-53 0 -90 36.5t-37 88.5t37 88.5t90 36.5q54 0 90.5 -36t36.5 -89t-36.5 -89t-90.5 -36z" />
    <glyph glyph-name="f_f_imacron" unicode="ff&#x12b;" horiz-adv-x="1693" 
d="M735 131v803h-352v-803h109v-131h-463v131h75q22 0 40 17.5t18 37.5v748h-142v139h142v82q0 145 80 215t223 70q101 0 170 -25v-127h-96q-79 0 -117.5 -28t-38.5 -111v-76h352v92q0 144 77.5 214.5t203.5 70.5q80 0 143 -25v-127h-72q-62 0 -96.5 -28.5t-34.5 -110.5v-86
h531q22 0 32.5 -21.5t10.5 -72.5v-793q0 -21 17 -38t38 -17h80v-131h-461v131h105v803h-353v-803h109v-131h-434v131h104zM1212 1219v147h396v-147h-396z" />
    <glyph glyph-name=".notdef" horiz-adv-x="1030" 
 />
    <glyph glyph-name=".null" horiz-adv-x="0" 
 />
    <glyph glyph-name="nonmarkingreturn" horiz-adv-x="682" 
 />
    <glyph glyph-name="space" unicode=" " horiz-adv-x="339" 
 />
    <glyph glyph-name="exclam" unicode="!" horiz-adv-x="376" 
d="M125 369l-55 929v136h239v-136l-55 -929h-129zM188 -10q-56 0 -94.5 37.5t-38.5 91.5t39 92.5t94 38.5t94.5 -38.5t39.5 -92.5t-39 -91.5t-95 -37.5z" />
    <glyph glyph-name="quotedbl" unicode="&#x22;" horiz-adv-x="638" 
d="M106 1016l-49 293v125h217v-125l-51 -293h-117zM416 1016l-51 293v125h217v-125l-52 -293h-114z" />
    <glyph glyph-name="numbersign" unicode="#" horiz-adv-x="980" 
d="M98 854v180h181l59 400h147l-59 -400h215l59 400h148l-60 -400h154v-180h-180l-33 -223h154v-180h-181l-63 -451h-147l63 451h-215l-64 -451h-147l64 451h-154v180h180l33 223h-154zM399 854l-32 -223h215l32 223h-215z" />
    <glyph glyph-name="dollar" unicode="$" horiz-adv-x="1058" 
d="M45 51v297h139q12 -108 71.5 -153.5t197.5 -57.5v506q-100 27 -167.5 56.5t-123.5 76.5t-82.5 115t-26.5 162q0 166 104 269t296 120v123h131v-119q202 -8 364 -66v-278h-137q-17 98 -65 139.5t-162 54.5v-473q88 -25 146 -46.5t114.5 -54t88.5 -72.5t51.5 -98.5
t19.5 -133.5q0 -190 -109 -299.5t-311 -126.5v-201h-131v197q-212 5 -408 63zM791 385q0 88 -50.5 136t-156.5 83v-461q101 17 154 79.5t53 162.5zM252 1081q0 -89 46.5 -136.5t154.5 -82.5v432q-102 -17 -151.5 -72t-49.5 -141z" />
    <glyph glyph-name="percent" unicode="%" horiz-adv-x="1560" 
d="M381 829q69 0 107 61t38 183t-38 184t-107 62q-70 0 -109 -62t-39 -184t38.5 -183t109.5 -61zM381 702q-69 0 -129 23.5t-107 68.5t-74.5 117.5t-27.5 163.5t27.5 163.5t74.5 117.5t107 68.5t129 23.5q142 0 239 -97t97 -276t-97 -276t-239 -97zM195 -70l1009 1563h164
l-1010 -1563h-163zM1182 113q69 0 107 60.5t38 182.5t-38 184t-107 62q-70 0 -109 -62t-39 -184t38.5 -182.5t109.5 -60.5zM1182 -14q-69 0 -129 23.5t-107 68.5t-74.5 117t-27.5 163t27.5 163.5t74.5 117.5t107 68.5t129 23.5q142 0 239 -97t97 -276q0 -178 -97 -275
t-239 -97z" />
    <glyph glyph-name="ampersand" unicode="&#x26;" horiz-adv-x="1427" 
d="M557 -14q-243 0 -374.5 110.5t-131.5 298.5q0 286 311 420q-48 63 -72 127.5t-24 151.5q0 160 110.5 257t293.5 97q101 0 207 -47q21 0 28 33h150v-355h-162l-27 142q-76 65 -178 65q-90 0 -139 -50t-49 -132q0 -71 34.5 -127t106.5 -131l369 -391q59 116 84 264h-113
v131h414v-131h-64q-51 0 -63 -51q-44 -179 -135 -342l129 -138q31 -31 51.5 -44t42.5 -13h39v-131h-269l-139 147q-167 -161 -430 -161zM588 139q171 0 289 125l-422 447q-160 -91 -160 -287q0 -124 73.5 -204.5t219.5 -80.5z" />
    <glyph glyph-name="quotesingle" unicode="'" horiz-adv-x="331" 
d="M106 1016l-49 293v125h217v-125l-51 -293h-117z" />
    <glyph glyph-name="parenleft" unicode="(" horiz-adv-x="606" 
d="M498 -100q-56 18 -107.5 48.5t-103.5 77.5t-94.5 113.5t-75.5 149.5t-51.5 193t-18.5 237q0 147 27 271.5t71 210.5t104.5 152.5t121 104.5t127.5 60h77v-121q-47 -19 -88.5 -47.5t-86.5 -82.5t-76.5 -124.5t-52.5 -180t-21 -243.5q0 -562 325 -703v-116h-77z" />
    <glyph glyph-name="parenright" unicode=")" horiz-adv-x="606" 
d="M109 -100h-78v116q325 141 325 703q0 134 -21 243.5t-52.5 180t-76.5 124.5t-86.5 82.5t-88.5 47.5v121h78q67 -22 127.5 -60t120.5 -104.5t104 -152.5t71 -210.5t27 -271.5q0 -151 -26.5 -278.5t-70 -216t-103.5 -156.5t-121 -107t-129 -61z" />
    <glyph glyph-name="asterisk" unicode="*" horiz-adv-x="735" 
d="M313 743l-32 88l75 234l-168 -182l-92 -15l-55 95l61 71l244 53l-244 54l-61 73l55 95l92 -17l168 -184l-75 238l32 88h111l31 -88l-76 -238l170 184l90 17l55 -95l-59 -73l-246 -54l246 -53l59 -71l-53 -95l-92 15l-170 182l76 -234l-31 -88h-111z" />
    <glyph glyph-name="plus" unicode="+" horiz-adv-x="1015" 
d="M420 236v389h-369v166h369v389h178v-389h367v-166h-367v-389h-178z" />
    <glyph glyph-name="comma" unicode="," horiz-adv-x="374" 
d="M45 -211v102q55 10 84 34t29 55q0 12 -5 20.5t-11 12.5t-18.5 11t-19.5 11q-51 36 -51 100q0 49 36.5 82t90.5 33q61 0 102.5 -41.5t41.5 -120.5q0 -136 -70 -208.5t-209 -90.5z" />
    <glyph glyph-name="hyphen" unicode="-" horiz-adv-x="542" 
d="M55 524v170h430v-170h-430z" />
    <glyph glyph-name="period" unicode="." horiz-adv-x="372" 
d="M186 -10q-57 0 -95 37.5t-38 91.5q0 55 38.5 93t94.5 38q55 0 94 -38.5t39 -92.5t-38.5 -91.5t-94.5 -37.5z" />
    <glyph glyph-name="slash" unicode="/" horiz-adv-x="671" 
d="M4 -100l496 1618h162l-496 -1618h-162z" />
    <glyph glyph-name="zero" unicode="0" horiz-adv-x="1320" 
d="M659 -14q-98 0 -186.5 28.5t-165 87.5t-132.5 144.5t-88 206t-32 264.5t32 264.5t88 206t132.5 144.5t165 87.5t186.5 28.5q124 0 232 -46t192.5 -134t133.5 -230t49 -321t-49 -321t-133.5 -230t-192.5 -134t-232 -46zM659 141q170 0 264.5 139t94.5 433q0 295 -94.5 434
t-264.5 139q-356 0 -356 -573q0 -572 356 -572z" />
    <glyph glyph-name="one" unicode="1" horiz-adv-x="727" 
d="M33 0v131h160q24 0 42.5 21.5t18.5 44.5v1015l-166 -82h-59v130l305 174h158v-1237q0 -23 19 -44.5t42 -21.5h141v-131h-661z" />
    <glyph glyph-name="two" unicode="2" horiz-adv-x="1060" 
d="M45 0v109q0 78 22.5 148.5t55.5 123t90 107t105 91.5t122 87q154 106 200 146q109 94 123 199q3 19 3 40q0 113 -59.5 175t-180.5 62q-123 0 -189.5 -44.5t-86.5 -145.5h-139v272q204 78 424 78q230 0 353.5 -99.5t123.5 -295.5q0 -61 -15 -115t-46 -99t-65.5 -82
t-86.5 -75t-94.5 -65t-103.5 -64q-11 -7 -17 -10q-71 -42 -122.5 -79t-101 -83t-77 -98t-31.5 -107h559l20 191h156v-367h-942z" />
    <glyph glyph-name="three" unicode="3" horiz-adv-x="1032" 
d="M446 -14q-224 0 -409 73v250h137q36 -168 270 -168q139 0 216 70t77 201q0 243 -291 243h-116v158h100q293 0 293 242q0 116 -58.5 174.5t-183.5 58.5q-225 0 -262 -160h-133v244q204 76 412 76q222 0 340 -91.5t118 -277.5q0 -270 -290 -334v-6q315 -53 315 -340
q1 -197 -142.5 -305t-392.5 -108z" />
    <glyph glyph-name="four" unicode="4" horiz-adv-x="1107" 
d="M618 131q23 0 43.5 22t20.5 44v157h-649v187l663 893h215v-926h164v-154h-164v-157q0 -22 19.5 -44t42.5 -22h102v-131h-559v131h102zM190 516v-8h492v661h-8z" />
    <glyph glyph-name="five" unicode="5" horiz-adv-x="1036" 
d="M446 -14q-220 0 -409 84v241h137q20 -91 84 -130.5t184 -39.5q138 0 220.5 80t82.5 234q0 146 -73.5 216t-190.5 70q-168 0 -264 -112h-145v805h860v-316h-154l-20 139h-512v-446h6q107 90 293 90q92 0 170.5 -26t140 -77.5t96.5 -137t35 -197.5q0 -224 -148 -350.5
t-393 -126.5z" />
    <glyph glyph-name="six" unicode="6" horiz-adv-x="1171" 
d="M606 -14q-119 0 -218.5 43t-174 127t-116.5 219.5t-42 310.5q0 361 185.5 561.5t496.5 200.5q185 0 310 -41v-190h-132q-67 71 -192 71q-92 0 -164.5 -30.5t-119.5 -82t-78.5 -123t-45 -148.5t-14.5 -165q66 69 165 112.5t214 43.5q126 0 224 -45.5t158 -143.5t60 -237
q0 -217 -142 -350t-374 -133zM606 139q138 0 207.5 87t69.5 235q0 138 -71 206t-196 68q-189 0 -315 -133q9 -240 85 -351.5t220 -111.5z" />
    <glyph glyph-name="seven" unicode="7" horiz-adv-x="1036" 
d="M209 0v96l627 1153v6h-627l-19 -211h-155v390h969v-197l-568 -1237h-227z" />
    <glyph glyph-name="eight" unicode="8" horiz-adv-x="1175" 
d="M588 -14q-257 0 -397 111.5t-140 303.5q0 137 76.5 228.5t222.5 134.5v6q-233 78 -233 305q0 170 129 271.5t342 101.5q214 0 343.5 -101.5t129.5 -271.5q0 -228 -238 -305v-6q147 -40 224 -132.5t77 -230.5q0 -192 -139.5 -303.5t-396.5 -111.5zM588 139q149 0 223 74
t74 199q0 126 -74.5 202t-222.5 76t-222.5 -76t-74.5 -202q0 -125 74 -199t223 -74zM588 840q117 0 180 57.5t63 165.5q0 109 -63 168t-180 59t-179.5 -59t-62.5 -168t62.5 -166t179.5 -57z" />
    <glyph glyph-name="nine" unicode="9" horiz-adv-x="1171" 
d="M567 1448q119 0 218.5 -43t174 -127t116.5 -219.5t42 -310.5q0 -367 -178.5 -564.5t-490.5 -197.5q-205 0 -343 53v194h132q41 -47 87 -69.5t136 -22.5q91 0 162.5 30.5t117 81.5t75.5 123.5t42.5 150t13.5 167.5q-66 -69 -164 -112t-214 -43q-94 0 -173.5 26.5t-140 78
t-95 134t-34.5 187.5q0 217 142 350t374 133zM567 1288q-139 0 -208.5 -84t-69.5 -231q0 -138 71.5 -206.5t196.5 -68.5q189 0 315 133q-9 239 -85 348t-220 109z" />
    <glyph glyph-name="colon" unicode=":" horiz-adv-x="376" 
d="M188 -10q-57 0 -95 37.5t-38 91.5q0 55 38.5 93t94.5 38q55 0 94.5 -38.5t39.5 -92.5t-39 -91.5t-95 -37.5zM188 600q-57 0 -95 36.5t-38 90.5q0 56 38 93.5t95 37.5q56 0 95 -38t39 -93q0 -54 -39 -90.5t-95 -36.5z" />
    <glyph glyph-name="semicolon" unicode=";" horiz-adv-x="376" 
d="M188 600q-57 0 -95 36.5t-38 90.5q0 56 38 93.5t95 37.5q56 0 95 -38t39 -93q0 -54 -39 -90.5t-95 -36.5zM43 -211v102q55 10 85 34t30 55q0 12 -5 20.5t-11 12.5t-18.5 11t-19.5 11q-51 36 -51 100q0 49 36.5 82t90.5 33q61 0 102.5 -41.5t41.5 -120.5
q0 -136 -70.5 -208.5t-210.5 -90.5z" />
    <glyph glyph-name="less" unicode="&#x3c;" horiz-adv-x="940" 
d="M827 201l-778 399v150l778 399h58v-164l-613 -305v-4l613 -309v-166h-58z" />
    <glyph glyph-name="equal" unicode="=" horiz-adv-x="997" 
d="M53 365v165h891v-165h-891zM53 758v166h891v-166h-891z" />
    <glyph glyph-name="greater" unicode="&#x3e;" horiz-adv-x="940" 
d="M57 201v164l611 303v6l-611 307v168h56l780 -399v-150l-780 -399h-56z" />
    <glyph glyph-name="question" unicode="?" horiz-adv-x="890" 
d="M266 369q-19 130 11 218.5t133 194.5q4 4 28 28.5t32.5 33t30 33.5t31 39.5t25.5 39.5t22.5 45t12.5 46t6 51q0 93 -46.5 142.5t-139.5 49.5q-94 0 -150.5 -36.5t-77.5 -118.5h-135v241q88 36 171 54t200 18q200 0 313 -89.5t113 -264.5q0 -51 -12.5 -97t-30.5 -79
t-52 -70.5t-61 -62t-74 -62.5q-62 -51 -95.5 -84t-64 -76t-40 -89t-4.5 -105h-146zM352 -10q-56 0 -94.5 37.5t-38.5 91.5t39 92.5t94 38.5t94 -38.5t39 -92.5t-38.5 -91.5t-94.5 -37.5z" />
    <glyph glyph-name="at" unicode="@" horiz-adv-x="1779" 
d="M1288 252q125 0 209 111t84 327q0 128 -49.5 231.5t-137.5 172t-207.5 105t-260.5 36.5q-108 0 -210 -28.5t-193.5 -88.5t-160.5 -145t-109 -207.5t-40 -267.5q0 -166 52.5 -291t146.5 -200t215 -111.5t268 -36.5q304 0 496 129h84v-97q-100 -72 -253 -113.5t-327 -41.5
q-132 0 -252.5 27t-228.5 87t-188 147.5t-126.5 216t-46.5 284.5q0 117 27 223.5t75 192t113.5 158t143.5 125.5t163.5 90t174.5 55t176 18q127 0 245 -28t219.5 -84.5t177 -135.5t118.5 -187.5t43 -234.5q0 -138 -40.5 -246.5t-108.5 -173.5t-151 -98t-174 -33
q-120 0 -177.5 37.5t-76.5 106.5q-61 -67 -128 -105.5t-158 -38.5q-120 0 -186 69t-66 198q0 226 149 395q61 69 143.5 107t176.5 38q127 0 209 -78q72 68 119 68h73l-123 -533q-9 -43 -9 -76.5t21.5 -54t65.5 -20.5zM772 266q111 0 227 129l91 391q-56 29 -129 29
q-118 0 -199 -108q-94 -126 -94 -308q0 -68 28 -100.5t76 -32.5z" />
    <glyph glyph-name="A" unicode="A" horiz-adv-x="1476" 
d="M1096 131l-109 322h-561l-55 -158q-59 -164 65 -164h96v-131h-509v131h51q61 0 88 70l370 1028q10 30 -2.5 49.5t-40.5 19.5h-110v136h518l420 -1235q9 -28 32.5 -48t49.5 -20h55v-131h-559v131h201zM713 1257l-236 -665h465l-221 665h-8z" />
    <glyph glyph-name="B" unicode="B" horiz-adv-x="1224" 
d="M33 0v135h86q23 0 43 22t20 44v1034q0 24 -20 46t-43 22h-86v131h571q514 0 514 -363q0 -133 -74.5 -207.5t-214.5 -103.5v-6q167 -23 259 -108t92 -238q0 -203 -147.5 -305.5t-405.5 -102.5h-594zM420 143h201q162 0 236.5 68t74.5 207q0 138 -74 199t-246 61h-192v-535
zM420 817h176q145 0 215 57t70 181q0 127 -68.5 180t-214.5 53h-178v-471z" />
    <glyph glyph-name="C" unicode="C" horiz-adv-x="1290" 
d="M735 -14q-316 0 -499 190t-183 541q0 175 51.5 314t144 230t219.5 139t280 48q165 0 286 -53q12 0 22 11t11 28h150v-439h-162l-25 203q-108 90 -276 90q-98 0 -179 -33.5t-142.5 -100t-95.5 -176t-34 -253.5q0 -287 114 -435.5t326 -148.5q250 0 385 183h113v-168
q-203 -170 -506 -170z" />
    <glyph glyph-name="D" unicode="D" horiz-adv-x="1413" 
d="M33 0v131h86q23 0 43 22t20 44v1034q0 24 -20 45.5t-43 21.5h-86v136h579q367 0 556.5 -173t189.5 -540q0 -363 -193 -542t-561 -179h-571zM420 139h184q261 0 383.5 137.5t122.5 442.5q0 302 -121.5 435.5t-384.5 133.5h-184v-1149z" />
    <glyph glyph-name="E" unicode="E" horiz-adv-x="1204" 
d="M33 0v131h86q23 0 43 22t20 44v1034q0 24 -20 45.5t-43 21.5h-86v136h1108v-381h-150l-24 235h-551v-485h280l17 170h143v-481h-143l-17 170h-280v-519h569l25 263h153v-406h-1130z" />
    <glyph glyph-name="F" unicode="F" horiz-adv-x="1169" 
d="M33 0v131h86q23 0 43 22t20 44v1034q0 24 -20 45.5t-43 21.5h-86v136h1097v-394h-147l-27 248h-536v-518h272l19 174h141v-498h-141l-19 183h-272v-498h184v-131h-571z" />
    <glyph glyph-name="G" unicode="G" horiz-adv-x="1376" 
d="M715 -14q-310 0 -486 189.5t-176 541.5q0 175 51 314t143.5 230t220.5 139t282 48q25 0 48 -1t44 -3.5t37.5 -5t35 -7t28.5 -7t27 -8t21.5 -7t20 -8t16.5 -6.5q11 0 20.5 9.5t12.5 29.5h149v-426h-161l-25 182q-127 98 -272 98q-97 0 -177.5 -33.5t-142 -100t-95.5 -176
t-34 -253.5q0 -288 108.5 -436t313.5 -148q151 0 266 64v325h-170v136h527v-136h-60q-24 0 -43.5 -21t-19.5 -44v-465h-131q0 20 -14 39.5t-38 19.5q-54 -23 -79.5 -33t-98 -25t-149.5 -15z" />
    <glyph glyph-name="H" unicode="H" horiz-adv-x="1486" 
d="M33 0v131h86q23 0 43 22t20 44v1034q0 24 -20 45.5t-43 21.5h-86v136h569v-136h-182v-493h645v493h-182v136h571v-136h-86q-24 0 -44.5 -21.5t-20.5 -45.5v-1034q0 -23 20.5 -44.5t44.5 -21.5h86v-131h-571v131h182v535h-645v-535h182v-131h-569z" />
    <glyph glyph-name="I" unicode="I" horiz-adv-x="634" 
d="M33 0v131h102q24 0 44 21.5t20 44.5v1034q0 24 -20 45.5t-44 21.5h-102v136h569v-136h-102q-24 0 -44 -21.5t-20 -45.5v-1034q0 -23 20 -44.5t44 -21.5h102v-131h-569z" />
    <glyph glyph-name="J" unicode="J" horiz-adv-x="974" 
d="M352 -14q-173 0 -323 73v172h131q64 -90 188 -90q101 0 148 51.5t47 153.5v885q0 24 -19 45.5t-43 21.5h-98v136h559v-136h-98q-23 0 -42.5 -21.5t-19.5 -45.5v-889q0 -181 -105 -268.5t-325 -87.5z" />
    <glyph glyph-name="K" unicode="K" horiz-adv-x="1404" 
d="M33 0v131h86q23 0 43 22t20 44v1034q0 24 -20 45.5t-43 21.5h-86v136h553v-136h-166v-632l493 522q46 50 38.5 80t-62.5 30h-37v136h500v-136h-60q-45 0 -112 -67l-389 -389l434 -645q43 -66 92 -66h55v-131h-373v123l-372 555l-207 -209v-338h166v-131h-553z" />
    <glyph glyph-name="L" unicode="L" horiz-adv-x="1161" 
d="M33 0v131h86q23 0 43 22t20 44v1034q0 24 -20 45.5t-43 21.5h-86v136h594v-136h-207v-1155h522l23 301h161v-444h-1093z" />
    <glyph glyph-name="M" unicode="M" horiz-adv-x="1785" 
d="M33 0v131h84q24 0 43.5 21.5t19.5 44.5v1034q0 24 -19.5 45.5t-43.5 21.5h-84v136h520l338 -1072h6l342 1072h514v-136h-86q-24 0 -43.5 -21.5t-19.5 -45.5v-1034q0 -23 19.5 -44.5t43.5 -21.5h86v-131h-547v131h160v1145h-14l-408 -1276h-166l-405 1276h-13v-1145h162
v-131h-489z" />
    <glyph glyph-name="N" unicode="N" horiz-adv-x="1454" 
d="M33 0v131h86q23 0 43 22t20 44v1034q0 24 -20 45.5t-43 21.5h-86v136h401l658 -1047h6v911h-180v136h505v-136h-84q-23 0 -42 -21.5t-19 -45.5v-1231h-205l-704 1114h-9v-983h185v-131h-512z" />
    <glyph glyph-name="O" unicode="O" horiz-adv-x="1484" 
d="M743 -14q-141 0 -265 48.5t-218.5 139t-149.5 230.5t-55 313t55 313t149.5 230.5t218.5 139t265 48.5q140 0 264 -48.5t218.5 -139t149.5 -231t55 -312.5t-55 -312.5t-149.5 -231t-218.5 -139t-264 -48.5zM743 141q196 0 317.5 148.5t121.5 423.5q0 277 -121.5 425
t-317.5 148q-198 0 -319 -148t-121 -425q0 -276 121 -424t319 -148z" />
    <glyph glyph-name="P" unicode="P" horiz-adv-x="1210" 
d="M33 0v131h86q23 0 43 22t20 44v1034q0 24 -20 45.5t-43 21.5h-86v136h585q551 0 551 -435q0 -225 -144 -332.5t-411 -107.5h-194v-428h182v-131h-569zM420 705h194q167 0 239.5 71t72.5 221q0 145 -74.5 217t-237.5 72h-194v-581z" />
    <glyph glyph-name="Q" unicode="Q" horiz-adv-x="1484" 
d="M1292 -254q-66 107 -195.5 161t-353.5 75q-158 14 -282.5 64.5t-216 139t-140.5 223t-49 308.5q0 173 55 313t149.5 230.5t218.5 139t265 48.5q140 0 264 -48.5t218.5 -139t149.5 -231t55 -312.5q0 -252 -109 -410.5t-293 -220.5v-6q183 -25 289.5 -77t175.5 -134v-123
h-201zM743 141q196 0 317.5 148.5t121.5 423.5q0 277 -121.5 425t-317.5 148q-198 0 -319 -148t-121 -425q0 -275 122 -423.5t318 -148.5z" />
    <glyph glyph-name="R" unicode="R" horiz-adv-x="1337" 
d="M33 0v131h86q23 0 43 22t20 44v1034q0 24 -20 45.5t-43 21.5h-86v136h585q257 0 400 -96.5t143 -299.5q0 -147 -83 -227t-238 -109v-6q78 -17 127 -45.5t90 -94.5t71 -179l52 -191q7 -26 24.5 -40.5t34.5 -14.5h70v-131h-336l-80 387q-29 138 -92.5 189t-202.5 51h-178
v-496h182v-131h-569zM420 768h194q163 0 233.5 61.5t70.5 194.5q0 137 -72.5 201.5t-231.5 64.5h-194v-522z" />
    <glyph glyph-name="S" unicode="S" horiz-adv-x="1067" 
d="M530 -14q-180 0 -299 67q-23 0 -30 -53h-156v418h162l20 -174q58 -57 124 -83t175 -26q127 0 200 59.5t73 174.5q0 65 -18 108.5t-70 73t-88.5 42t-129.5 37.5q-10 3 -15.5 4.5t-14.5 4t-17 4.5q-98 27 -165.5 60.5t-116.5 83t-71.5 116.5t-22.5 158q0 188 124.5 287.5
t329.5 99.5q66 0 124.5 -12.5t78.5 -21t55 -25.5q10 0 19.5 14.5t11.5 30.5h150v-379h-158l-21 143q-47 45 -106.5 71.5t-153.5 26.5q-252 0 -252 -213q0 -40 9 -70.5t30 -53.5t43.5 -39t62 -31t73 -25t87.5 -24q15 -4 23 -6q110 -30 181.5 -61.5t127 -80t80.5 -117.5
t25 -167q0 -206 -124 -314t-360 -108z" />
    <glyph glyph-name="T" unicode="T" horiz-adv-x="1298" 
d="M369 0v131h98q24 0 43.5 21.5t19.5 44.5v1095h-307l-20 -303h-154v445h1200v-445h-153l-21 303h-307v-1095q0 -23 19.5 -44.5t43.5 -21.5h99v-131h-561z" />
    <glyph glyph-name="U" unicode="U" horiz-adv-x="1464" 
d="M739 -14q-269 0 -414 133t-145 401v711q0 24 -20 45.5t-45 21.5h-82v136h563v-136h-180v-790q0 -105 24.5 -176.5t72.5 -110.5t108 -55t143 -16q82 0 141.5 16t107.5 54.5t72.5 110.5t24.5 177v790h-180v136h502v-136h-82q-23 0 -43.5 -22t-20.5 -45v-711
q0 -271 -137 -402.5t-410 -131.5z" />
    <glyph glyph-name="V" unicode="V" horiz-adv-x="1466" 
d="M598 0l-436 1231q-9 27 -32.5 47t-49.5 20h-49v136h547v-136h-181l361 -1062h4l328 929q48 133 -68 133h-88v136h502v-136h-45q-30 0 -55 -20t-36 -51l-446 -1227h-256z" />
    <glyph glyph-name="W" unicode="W" horiz-adv-x="1998" 
d="M461 0l-311 1231q-9 28 -32 47.5t-50 19.5h-37v136h520l10 -136h-182l239 -991h7l299 1127h192l301 -1127h4l213 856q44 135 -73 135h-80v136h487v-136h-35q-29 0 -53 -20.5t-35 -52.5l-321 -1225h-256l-271 1020h-4l-276 -1020h-256z" />
    <glyph glyph-name="X" unicode="X" horiz-adv-x="1361" 
d="M33 0v131h57q22 0 47.5 13.5t38.5 33.5l361 557l-338 500q-42 63 -93 63h-73v136h545v-136h-144l299 -446l203 336q30 57 17 83.5t-56 26.5h-57v136h489v-136h-80q-20 0 -45 -16.5t-37 -36.5l-331 -528l352 -522q21 -31 48 -47.5t50 -16.5h43v-131h-538v131h161l-315 475
l-234 -375q-26 -43 -13 -71.5t54 -28.5h76v-131h-487z" />
    <glyph glyph-name="Y" unicode="Y" horiz-adv-x="1349" 
d="M401 0v131h99q24 0 43.5 21.5t19.5 44.5v397l-401 643q-40 61 -88 61h-43v136h532v-136h-168l322 -528h4l237 393q36 65 17 100t-82 35h-66v136h492v-136h-39q-50 0 -92 -65l-387 -631v-405q0 -23 19.5 -44.5t43.5 -21.5h99v-131h-562z" />
    <glyph glyph-name="Z" unicode="Z" horiz-adv-x="1132" 
d="M33 0v162l815 1120v6h-586l-26 -233h-148v379h1012v-166l-815 -1121v-4h626l25 258h154v-401h-1057z" />
    <glyph glyph-name="bracketleft" unicode="[" horiz-adv-x="514" 
d="M63 -100v1618h416v-138h-217v-1347h217v-133h-416z" />
    <glyph glyph-name="backslash" unicode="\" horiz-adv-x="671" 
d="M172 1518l496 -1618h-162l-496 1618h162z" />
    <glyph glyph-name="bracketright" unicode="]" horiz-adv-x="514" 
d="M451 1518v-1618h-418v133h219v1347h-219v138h418z" />
    <glyph glyph-name="asciicircum" unicode="^" horiz-adv-x="763" 
d="M51 1001v56l246 377h168l248 -377v-56h-144l-184 254h-6l-186 -254h-142z" />
    <glyph glyph-name="underscore" unicode="_" horiz-adv-x="727" 
d="M-4 -332v133h735v-133h-735z" />
    <glyph glyph-name="grave" unicode="`" horiz-adv-x="819" 
d="M362 1161l-192 193v80h221l94 -273h-123z" />
    <glyph glyph-name="a" unicode="a" horiz-adv-x="1077" 
d="M385 -12q-159 0 -253.5 82t-94.5 237q0 160 115.5 243t308.5 83q124 0 246 -29v141q0 99 -55.5 143t-162.5 44q-165 0 -278 -101h-102v170q172 84 419 84q199 0 299.5 -72.5t100.5 -244.5v-571q0 -31 18 -48.5t47 -17.5h56v-111q-52 -32 -142 -32q-87 0 -134.5 35.5
t-59.5 109.5q-118 -145 -328 -145zM455 129q79 0 138 30.5t114 88.5v233q-107 21 -201 21q-250 0 -250 -189q0 -184 199 -184z" />
    <glyph glyph-name="b" unicode="b" horiz-adv-x="1157" 
d="M641 -12q-121 0 -199 32t-137 93q-13 -48 -38.5 -80.5t-45.5 -32.5h-119v1241q0 19 -17.5 38t-37.5 19h-86v136h322q41 0 41 -56v-467q159 174 374 174q64 0 121 -16t111.5 -55t93.5 -98.5t62.5 -153t23.5 -211.5q0 -102 -19 -187t-52.5 -145.5t-77.5 -106t-97.5 -72
t-108.5 -39.5t-114 -13zM580 121q59 0 109 18.5t95 61.5t71 127.5t26 203.5q0 114 -22.5 193.5t-63.5 121.5t-88.5 59.5t-108.5 17.5q-127 0 -274 -117v-586q100 -100 256 -100z" />
    <glyph glyph-name="c" unicode="c" horiz-adv-x="1036" 
d="M584 -12q-265 0 -403 144t-138 403q0 256 150 403t403 147q227 0 356 -57v-225h-141q-13 76 -66.5 107.5t-152.5 31.5q-151 0 -234.5 -104t-83.5 -306q0 -204 77.5 -302.5t236.5 -98.5q101 0 161.5 34t100.5 89h113v-160q-150 -106 -379 -106z" />
    <glyph glyph-name="d" unicode="d" horiz-adv-x="1230" 
d="M494 -12q-69 0 -130.5 15.5t-120.5 54.5t-101.5 98.5t-68.5 154t-26 213.5t28.5 215.5t74.5 159.5t108 106t126.5 61.5t131.5 18.5q203 0 330 -127v340h-156v136h336q41 0 41 -56v-1190q0 -20 17.5 -38.5t37.5 -18.5h80v-131h-309q-20 0 -31 32t-12 115
q-137 -159 -356 -159zM557 125q157 0 289 143v572q-115 90 -258 90q-50 0 -93.5 -11t-84.5 -39.5t-70 -73t-46.5 -115t-17.5 -161.5q0 -118 24 -201t66 -125.5t88.5 -60.5t102.5 -18z" />
    <glyph glyph-name="e" unicode="e" horiz-adv-x="1081" 
d="M588 -12q-266 0 -405.5 144t-139.5 400q0 253 143.5 403t378.5 150q475 0 475 -516q0 -18 -1 -42t-1 -25h-764q12 -373 330 -373q105 0 167.5 31t109.5 90h127v-152q-168 -110 -420 -110zM279 635h538q-6 166 -68.5 239.5t-183.5 73.5q-124 0 -197.5 -78.5t-88.5 -234.5z
" />
    <glyph glyph-name="f" unicode="f" horiz-adv-x="645" 
d="M29 0v131h75q22 0 40 17.5t18 37.5v748h-142v139h142v92q0 146 82.5 215.5t230.5 69.5q95 0 168 -25v-127h-102q-80 0 -119 -28t-39 -111v-86h225v-139h-225v-748q0 -21 17 -38t38 -17h105v-131h-514z" />
    <glyph glyph-name="g" unicode="g" horiz-adv-x="1036" 
d="M459 -352q-120 0 -208.5 18.5t-141.5 53.5t-78 80t-25 102q0 86 50 142t137 99q-84 45 -84 146q0 111 108 198q-125 91 -125 254q0 154 111 249t299 95q72 0 133 -12h369v-139h-93q-16 0 -30.5 -11.5t-14.5 -25.5q47 -65 47 -156q0 -150 -111 -240.5t-300 -90.5
q-118 0 -199 34q-29 -44 -29 -90q0 -75 101 -75h301q325 0 325 -267q0 -169 -130 -266.5t-412 -97.5zM469 -211q162 0 243 48.5t81 127.5q0 64 -38.5 92.5t-127.5 28.5h-348q-72 -59 -72 -139q0 -78 58 -118t204 -40zM502 539q99 0 153 53.5t54 148.5q0 96 -54 151.5
t-153 55.5q-97 0 -151 -55.5t-54 -151.5q0 -95 53.5 -148.5t151.5 -53.5z" />
    <glyph glyph-name="h" unicode="h" horiz-adv-x="1236" 
d="M385 809v-678h150v-131h-506v131h80q20 0 37.5 17.5t17.5 37.5v1055q0 19 -17.5 38t-37.5 19h-86v136h321q41 0 41 -56v-465q84 78 193.5 125t228.5 47q62 0 109.5 -12.5t87.5 -41t61.5 -82.5t21.5 -130v-633q0 -21 17.5 -38t36.5 -17h67v-131h-489v131h147v614
q0 95 -40.5 130.5t-127.5 35.5q-142 0 -313 -102z" />
    <glyph glyph-name="i" unicode="i" horiz-adv-x="548" 
d="M29 0v131h80q20 0 37.5 17.5t17.5 37.5v691q0 19 -16.5 38t-36.5 19h-91v139h324q22 0 31.5 -21t9.5 -73v-793q0 -21 17 -38t38 -17h80v-131h-491zM268 1186q-54 0 -90.5 36t-36.5 89t36.5 89t90.5 36q53 0 90 -36.5t37 -88.5t-37 -88.5t-90 -36.5z" />
    <glyph glyph-name="j" unicode="j" horiz-adv-x="522" 
d="M100 -344q-91 0 -155 22v113h73q80 0 113 35.5t33 112.5v938q0 19 -16.5 38t-36.5 19h-91v139h324q22 0 31.5 -21t9.5 -73v-1051q0 -145 -71.5 -208.5t-213.5 -63.5zM268 1186q-54 0 -90.5 36t-36.5 89t36.5 89t90.5 36q53 0 90 -36.5t37 -88.5t-37 -88.5t-90 -36.5z" />
    <glyph glyph-name="k" unicode="k" horiz-adv-x="1134" 
d="M29 0v131h80q20 0 37.5 17.5t17.5 37.5v1055q0 19 -17.5 38t-37.5 19h-86v136h321q41 0 41 -56v-866l340 346q23 25 16 50.5t-36 25.5h-50v139h445v-139h-53q-20 0 -46 -12t-45 -31l-266 -266l299 -430q45 -64 90 -64h31v-131h-246l-323 477l-156 -153v-193h135v-131
h-491z" />
    <glyph glyph-name="l" unicode="l" horiz-adv-x="548" 
d="M29 0v131h77q22 0 40 17.5t18 37.5v1055q0 19 -18.5 38t-39.5 19h-83v136h321q41 0 41 -56v-1192q0 -21 17 -38t38 -17h80v-131h-491z" />
    <glyph glyph-name="m" unicode="m" horiz-adv-x="1863" 
d="M29 0v131h80q20 0 37.5 17.5t17.5 37.5v691q0 19 -17.5 38t-37.5 19h-89v139h314q51 0 51 -131v-31q193 174 395 174q220 0 260 -180q204 180 406 180q268 0 268 -266v-633q0 -21 17 -38t38 -17h68v-131h-489v131h145v619q0 93 -36.5 127t-115.5 34q-124 0 -290 -100
v-680h135v-131h-494v131h135v619q0 93 -36 127t-113 34q-135 0 -293 -100v-680h145v-131h-501z" />
    <glyph glyph-name="n" unicode="n" horiz-adv-x="1236" 
d="M29 0v131h80q20 0 37.5 17.5t17.5 37.5v691q0 19 -17.5 38t-37.5 19h-89v139h314q54 0 51 -131v-29q84 78 193.5 125t228.5 47q62 0 109.5 -12.5t87.5 -41t61.5 -82.5t21.5 -130v-633q0 -21 17.5 -38t36.5 -17h67v-131h-489v131h147v614q0 95 -40.5 130.5t-127.5 35.5
q-142 0 -313 -102v-678h150v-131h-506z" />
    <glyph glyph-name="o" unicode="o" horiz-adv-x="1179" 
d="M590 -12q-154 0 -277.5 64t-196.5 189t-73 291q0 168 73 295t196.5 192.5t277.5 65.5q237 0 392 -150.5t155 -402.5q0 -166 -72.5 -291t-196 -189t-278.5 -64zM590 131q144 0 230.5 103.5t86.5 295.5q0 195 -86.5 300.5t-230.5 105.5t-231 -106t-87 -300q0 -191 87 -295
t231 -104z" />
    <glyph glyph-name="p" unicode="p" horiz-adv-x="1204" 
d="M29 -332v123h80q20 0 37.5 17.5t17.5 37.5v1031q0 19 -17.5 38t-37.5 19h-89v139h314q24 0 36.5 -26t12.5 -99v-26q159 163 362 163q63 0 121 -17t111.5 -57t93 -99.5t63 -151t23.5 -205.5q0 -117 -27 -211t-72 -155t-106 -101.5t-126 -58t-136 -17.5q-191 0 -305 99
v-320h160v-123h-516zM631 143q46 0 85.5 9.5t79.5 36t68.5 69.5t46 114t17.5 165q0 387 -281 387q-122 0 -262 -115v-569q104 -97 246 -97z" />
    <glyph glyph-name="q" unicode="q" horiz-adv-x="1161" 
d="M672 -332v123h159v361q-58 -62 -144.5 -101t-194.5 -39q-68 0 -129 14.5t-120 51.5t-101.5 94t-68.5 148.5t-26 209.5q0 98 19 181.5t53 143t78.5 105t97 72.5t106.5 40t109 13q207 0 330 -133q10 57 35.5 89t50.5 32h129v-1227q0 -20 17.5 -37.5t37.5 -17.5h84v-123
h-522zM557 150q154 0 274 120v574q-120 86 -243 86q-63 0 -116 -19t-98.5 -62t-71.5 -123t-26 -191q0 -93 16.5 -163.5t42.5 -111.5t64 -66.5t75.5 -34.5t82.5 -9z" />
    <glyph glyph-name="r" unicode="r" horiz-adv-x="800" 
d="M29 0v131h80q20 0 37.5 17.5t17.5 37.5v691q0 19 -17.5 38t-37.5 19h-89v139h314q26 0 38.5 -30.5t12.5 -112.5v-35q68 86 143 136t177 50q29 0 61 -8v-182h-43q-118 0 -196.5 -27t-141.5 -82v-651h170v-131h-526z" />
    <glyph glyph-name="s" unicode="s" horiz-adv-x="899" 
d="M416 -12q-220 0 -373 61v223h133q19 -75 75 -108t163 -33q113 0 175 41t62 123q0 72 -56 103.5t-200 54.5q-176 26 -256 94t-80 221q0 150 108.5 233.5t301.5 83.5q209 0 352 -53v-213h-129q-18 62 -70 90.5t-161 28.5q-98 0 -153.5 -37.5t-55.5 -103.5q0 -70 51.5 -102
t192.5 -54q195 -29 277.5 -95.5t82.5 -219.5q0 -158 -111.5 -248t-328.5 -90z" />
    <glyph glyph-name="t" unicode="t" horiz-adv-x="667" 
d="M459 -14q-150 0 -225.5 61.5t-75.5 206.5v680h-138v139h138v289h221v-289h244v-139h-244v-655q0 -88 32.5 -118t116.5 -30h109v-119q-72 -26 -178 -26z" />
    <glyph glyph-name="u" unicode="u" horiz-adv-x="1243" 
d="M442 -14q-60 0 -108.5 13t-90 42t-64.5 82.5t-23 128.5v627q0 20 -18 37.5t-38 17.5h-80v139h357v-751q0 -98 44.5 -136.5t127.5 -38.5q144 0 305 107v680h-154v139h375v-885q0 -20 18.5 -38.5t39.5 -18.5h81v-131h-309q-24 0 -36.5 27.5t-12.5 97.5v27
q-188 -166 -414 -166z" />
    <glyph glyph-name="v" unicode="v" horiz-adv-x="1198" 
d="M485 0l-348 868q-27 66 -76 66h-41v139h474v-139h-152l266 -719h4l228 600q44 119 -56 119h-53v139h430v-139h-37q-56 0 -84 -68l-352 -866h-203z" />
    <glyph glyph-name="w" unicode="w" horiz-adv-x="1681" 
d="M387 0l-248 868q-9 29 -30 47.5t-46 18.5h-43v139h447v-139h-123l180 -662h4l232 801h190l232 -801h4l149 543q18 60 3 89.5t-68 29.5h-51v139h426v-139h-39q-64 0 -84 -68l-252 -866h-209l-230 784h-4l-231 -784h-209z" />
    <glyph glyph-name="x" unicode="x" horiz-adv-x="1132" 
d="M33 0v131h41q22 0 47.5 12.5t38.5 30.5l272 361l-264 335q-51 64 -90 64h-53v139h489v-139h-125l221 -295l158 221q21 29 13 51.5t-42 22.5h-51v139h399v-139h-38q-20 0 -43 -13t-37 -32l-260 -344l274 -350q48 -64 98 -64h23v-131h-475v131h135l-236 313l-155 -223
q-26 -38 -19 -64t45 -26h41v-131h-407z" />
    <glyph glyph-name="y" unicode="y" horiz-adv-x="1204" 
d="M201 -332v123q180 56 297 236l-363 841q-27 66 -76 66h-39v139h476v-139h-158l274 -660l222 541q49 119 -52 119h-53v139h438v-139h-47q-50 0 -80 -68l-340 -784q-133 -309 -313 -414h-186z" />
    <glyph glyph-name="z" unicode="z" horiz-adv-x="987" 
d="M33 0v150l661 778h-465l-22 -191h-133v336h876v-153l-663 -777h483l21 191h139v-334h-897z" />
    <glyph glyph-name="braceleft" unicode="{" horiz-adv-x="657" 
d="M481 -100q-276 0 -276 250v389q0 51 -30 82.5t-91 31.5h-51v138h51q62 0 91.5 31t29.5 83v363q0 123 70 186.5t206 63.5h144v-138h-129q-41 0 -67 -27t-26 -69v-364q0 -81 -36.5 -127.5t-120.5 -67.5v-4q83 -21 120 -68.5t37 -128.5v-393q0 -43 26 -70.5t67 -27.5h129
v-133h-144z" />
    <glyph glyph-name="bar" unicode="|" horiz-adv-x="317" 
d="M80 -100v1618h158v-1618h-158z" />
    <glyph glyph-name="braceright" unicode="}" horiz-adv-x="657" 
d="M176 -100h-143v133h129q41 0 66.5 27.5t25.5 70.5v379q0 81 37 128.5t121 68.5v6q-84 22 -121 68t-37 126v377q0 42 -25.5 69t-66.5 27h-129v138h143q136 0 206.5 -63.5t70.5 -186.5v-375q0 -52 30 -83.5t90 -31.5h52v-137h-52q-60 0 -90 -32t-30 -83v-376
q0 -250 -277 -250z" />
    <glyph glyph-name="asciitilde" unicode="~" horiz-adv-x="727" 
d="M33 465v123q67 123 194 123q51 0 145 -29t120 -29q63 0 86 70h114v-123q-67 -127 -192 -127q-51 0 -145 33t-122 33q-60 0 -83 -74h-117z" />
    <glyph glyph-name="exclamdown" unicode="&#xa1;" horiz-adv-x="376" 
d="M252 913l55 -929v-136h-239v136l55 929h129zM188 1292q56 0 95 -37.5t39 -91.5t-39.5 -92.5t-94.5 -38.5t-94 38.5t-39 92.5t38.5 91.5t94.5 37.5z" />
    <glyph glyph-name="cent" unicode="&#xa2;" horiz-adv-x="1036" 
d="M518 1202h131v-117q185 -5 303 -57v-227h-133q-13 65 -54 96t-116 39v-801q128 19 209 125h105v-162q-129 -96 -314 -106v-201h-131v199q-232 17 -353.5 160t-121.5 385q0 234 128 379t347 167v121zM270 532q0 -354 248 -397v797q-119 -24 -183.5 -125t-64.5 -275z" />
    <glyph glyph-name="sterling" unicode="&#xa3;" horiz-adv-x="1036" 
d="M41 641v147h109q-39 156 -39 259q0 191 129.5 296t339.5 105q118 0 207 -19t186 -59v-272h-137q-20 106 -77 148t-173 42q-232 0 -232 -235q0 -80 29 -265h360v-147h-340q23 -161 23 -244q0 -88 -33 -166q172 -51 428 -51l19 189h155v-369h-94q-391 0 -600 94
q-67 -61 -160 -94h-112v131q196 41 196 246q0 85 -39 264h-145z" />
    <glyph glyph-name="yen" unicode="&#xa5;" horiz-adv-x="1212" 
d="M121 635v129h303l-279 473q-38 61 -90 61h-26v136h493v-136h-155l270 -489h4l199 354q34 67 15.5 101t-81.5 34h-55v136h465v-136h-39q-57 0 -90 -65l-277 -469h312v-129h-365v-123h365v-129h-365v-186q0 -23 19 -44.5t44 -21.5h99v-131h-561v131h98q24 0 43.5 21.5
t19.5 44.5v186h-366v129h366v123h-366z" />
    <glyph glyph-name="brokenbar" unicode="&#xa6;" horiz-adv-x="317" 
d="M80 -100v733h158v-733h-158zM80 797v721h158v-721h-158z" />
    <glyph glyph-name="section" unicode="&#xa7;" horiz-adv-x="1069" 
d="M483 -270q-204 0 -372 61v242h141q15 -89 67.5 -124.5t161.5 -35.5q224 0 224 170q0 78 -54 109.5t-232 81.5l-10.5 3.5t-9.5 2.5q-179 52 -265.5 131.5t-86.5 212.5q0 209 238 276q-133 81 -133 254q0 154 108.5 244t298.5 90q200 0 348 -55v-224h-141q-13 75 -61 103
t-148 28q-102 0 -154.5 -41.5t-52.5 -115.5q0 -75 57 -115t216 -78q204 -49 301.5 -128.5t97.5 -227.5q0 -104 -62.5 -175t-173.5 -106q69 -43 102.5 -99.5t33.5 -141.5q0 -160 -110.5 -251t-328.5 -91zM549 762l-115 31q-98 -18 -143 -59.5t-45 -110.5q0 -71 52.5 -114.5
t190.5 -82.5l148 -45q178 39 178 180q0 75 -67 121.5t-199 79.5z" />
    <glyph glyph-name="dieresis" unicode="&#xa8;" horiz-adv-x="819" 
d="M233 1186q-51 0 -85.5 34.5t-34.5 84.5t34.5 84t85.5 34t86 -34t35 -84t-35 -84.5t-86 -34.5zM586 1186q-51 0 -86 34.5t-35 84.5t35 84t86 34t86 -34t35 -84t-35 -84.5t-86 -34.5z" />
    <glyph glyph-name="copyright" unicode="&#xa9;" horiz-adv-x="1548" 
d="M774 -14q-147 0 -277 48.5t-229.5 139t-157 231t-57.5 312.5t57.5 312.5t157 231t229.5 139t277 48.5q148 0 278 -48.5t229.5 -139t157.5 -230.5t58 -313t-58 -313t-157.5 -230.5t-229.5 -139t-278 -48.5zM774 61q134 0 249 44t200.5 126t134.5 207t49 279
q0 155 -48.5 280t-134.5 206.5t-201 125t-249 43.5q-133 0 -248 -43.5t-200.5 -125t-134 -206.5t-48.5 -280q0 -154 48.5 -279t134 -207t200.5 -126t248 -44zM788 317q-183 0 -286 103t-103 297q0 192 106.5 297.5t276.5 105.5q82 0 162 -33q18 0 21 25h106v-272h-113
l-16 108q-23 19 -37.5 28.5t-43 18.5t-64.5 9q-95 0 -154 -69t-59 -212q0 -291 217 -291q123 0 194 92h84v-114q-111 -93 -291 -93z" />
    <glyph glyph-name="ordfeminine" unicode="&#xaa;" horiz-adv-x="917" 
d="M322 520q-133 0 -212 67.5t-79 198.5q0 137 97 207t267 70q107 0 193 -19v111q0 79 -43 113.5t-131 34.5q-138 0 -230 -76h-94v147q156 74 365 74q170 0 256 -62.5t86 -209.5v-469q0 -26 15 -42t40 -16h45v-102q-60 -29 -131 -29q-144 0 -170 121q-113 -119 -274 -119z
M387 647q117 0 201 98v189q-75 16 -158 16q-197 0 -197 -153q0 -150 154 -150z" />
    <glyph glyph-name="guillemotleft" unicode="&#xab;" horiz-adv-x="952" 
d="M371 88l-303 383v121l303 385h123v-82l-232 -358v-5l232 -360v-84h-123zM766 88l-303 383v121l303 385h123v-82l-232 -358v-5l232 -360v-84h-123z" />
    <glyph glyph-name="registered" unicode="&#xae;" horiz-adv-x="808" 
d="M403 717q-154 0 -262 99.5t-108 266.5q0 168 107.5 267.5t262.5 99.5q99 0 182.5 -42t136 -127.5t52.5 -197.5q0 -167 -109 -266.5t-262 -99.5zM403 778q130 0 214.5 81t84.5 224t-85 224.5t-214 81.5q-128 0 -212.5 -81.5t-84.5 -224.5t84.5 -224t212.5 -81zM238 909v54
h20q5 0 10.5 5t5.5 11v219q0 4 -6 10t-10 6h-20v56h176q147 0 147 -103q0 -63 -74 -84v-2q28 -5 42 -20t24 -53l10 -33q3 -12 17 -12h14v-54h-117l-18 99q-5 25 -16 36t-35 11h-35v-92h41v-54h-176zM371 1210v-102h37q30 0 41.5 13t11.5 40q0 25 -11 37t-42 12h-37z" />
    <glyph glyph-name="macron" unicode="&#xaf;" horiz-adv-x="819" 
d="M668 1366v-147h-516v147h516z" />
    <glyph glyph-name="degree" unicode="&#xb0;" horiz-adv-x="694" 
d="M348 893q-120 0 -203.5 77t-83.5 199q0 123 83.5 200t203.5 77q119 0 202 -77t83 -200q0 -122 -83 -199t-202 -77zM348 1001q67 0 112.5 47.5t45.5 120.5q0 75 -45.5 122.5t-112.5 47.5q-68 0 -113 -47t-45 -123q0 -73 45 -120.5t113 -47.5z" />
    <glyph glyph-name="twosuperior" unicode="&#xb2;" horiz-adv-x="638" 
d="M39 655v72q0 95 54.5 164.5t152.5 134.5q96 63 122 87q49 48 50 99q0 111 -119 111q-118 0 -141 -94h-95v172q111 43 254 43q130 0 204.5 -57t74.5 -164q0 -40 -14 -76t-32.5 -60t-53 -51t-57 -40.5t-64.5 -37.5q-85 -49 -128.5 -87t-51.5 -89h268l12 88h109v-215h-545z
" />
    <glyph glyph-name="threesuperior" unicode="&#xb3;" horiz-adv-x="618" 
d="M266 645q-130 0 -235 41v160h96q14 -46 45 -67t90 -21q66 0 103.5 32.5t37.5 94.5q0 110 -143 110h-72v111h66q67 0 104 28t37 83q0 108 -119 108q-55 0 -85.5 -18t-43.5 -64h-92v158q114 43 240 43t197 -51t71 -150q0 -76 -43 -122t-119 -62v-6q85 -12 131 -58t46 -123
q0 -107 -82.5 -167t-229.5 -60z" />
    <glyph glyph-name="acute" unicode="&#xb4;" horiz-adv-x="819" 
d="M334 1161l94 273h221v-80l-192 -193h-123z" />
    <glyph glyph-name="paragraph" unicode="&#xb6;" horiz-adv-x="1134" 
d="M526 -186v837q-111 3 -195.5 24t-151 65t-101.5 120t-35 182q0 90 25.5 158.5t69.5 112.5t109.5 71.5t139 38.5t164.5 11h551v-136h-86q-24 0 -44 -21.5t-20 -45.5v-1417h-139v1474h-147v-1474h-140z" />
    <glyph glyph-name="periodcentered" unicode="&#xb7;" horiz-adv-x="372" 
d="M186 489q-57 0 -95 37.5t-38 91.5q0 56 38 94t95 38q56 0 94.5 -38.5t38.5 -93.5q0 -54 -38.5 -91.5t-94.5 -37.5z" />
    <glyph glyph-name="cedilla" unicode="&#xb8;" horiz-adv-x="819" 
d="M408 -358q-79 0 -160 34v99h59q26 -33 80 -33q74 0 74 55q0 58 -94 58h-37v145h104v-63q172 -6 172 -146q0 -70 -52.5 -109.5t-145.5 -39.5z" />
    <glyph glyph-name="onesuperior" unicode="&#xb9;" horiz-adv-x="516" 
d="M31 655v99h106q13 0 25 14t12 27v489l-102 -57h-45v108l200 99h125v-639q0 -13 12 -27t25 -14h98v-99h-456z" />
    <glyph glyph-name="ordmasculine" unicode="&#xba;" horiz-adv-x="1003" 
d="M504 518q-203 0 -335 124.5t-132 336.5q0 213 132.5 341t334.5 128q201 0 332 -128t131 -341q0 -212 -130.5 -336.5t-332.5 -124.5zM504 649q115 0 183.5 85t68.5 243q0 160 -68 246t-184 86q-117 0 -186.5 -86t-69.5 -246q0 -158 69.5 -243t186.5 -85z" />
    <glyph glyph-name="guillemotright" unicode="&#xbb;" horiz-adv-x="952" 
d="M63 88v80l230 358v6l-230 361v84h125l301 -383v-121l-301 -385h-125zM459 88v80l231 358v6l-231 361v84h125l303 -383v-121l-303 -385h-125z" />
    <glyph glyph-name="onequarter" unicode="&#xbc;" horiz-adv-x="1400" 
d="M1001 0v98h62q11 0 24 14.5t13 26.5v64h-363v125l367 450h164v-471h96v-104h-96v-64q0 -12 13 -26.5t26 -14.5h57v-98h-363zM854 313v-6h248v307h-4zM37 655v99h106q13 0 25 14t12 27v489l-102 -57h-45v108l200 99h125v-639q0 -13 12 -27t25 -14h99v-99h-457zM162 -70
l1009 1563h152l-1010 -1563h-151z" />
    <glyph glyph-name="onehalf" unicode="&#xbd;" horiz-adv-x="1501" 
d="M895 0v72q0 95 54.5 164.5t152.5 134.5q96 63 122 87q49 48 50 99q0 111 -119 111q-118 0 -141 -95h-94v172q111 43 254 43q130 0 204 -57t74 -164q0 -40 -14.5 -76t-32 -59.5t-53 -50.5t-57.5 -40.5t-64 -37.5q-85 -49 -128.5 -87t-51.5 -89h268l12 88h109v-215h-545z
M37 655v99h106q13 0 25 14t12 27v489l-102 -57h-45v108l200 99h125v-639q0 -13 12 -27t25 -14h99v-99h-457zM143 -70l1010 1563h152l-1010 -1563h-152z" />
    <glyph glyph-name="threequarters" unicode="&#xbe;" horiz-adv-x="1415" 
d="M272 645q-130 0 -235 41v160h96q14 -46 45 -67t90 -21q66 0 104 32.5t38 94.5q0 110 -144 110h-71v111h65q67 0 104 28t37 83q0 108 -118 108q-55 0 -85.5 -18t-43.5 -64h-93v158q114 43 240 43t197 -51t71 -150q0 -150 -161 -184v-6q84 -12 130 -58t46 -123
q0 -107 -82.5 -167t-229.5 -60zM1016 0v98h61q11 0 24 14.5t13 26.5v64h-362v125l366 450h164v-471h96v-104h-96v-64q0 -12 13 -26.5t26 -14.5h57v-98h-362zM868 313v-6h248v307h-4zM170 -70l1010 1563h151l-1009 -1563h-152z" />
    <glyph glyph-name="questiondown" unicode="&#xbf;" horiz-adv-x="890" 
d="M625 915q19 -130 -11 -218.5t-133 -194.5q-3 -3 -32 -32.5t-38 -39.5t-34 -38.5t-35 -47t-25 -46.5t-20.5 -55.5t-5.5 -56.5q0 -93 47.5 -142.5t140.5 -49.5q94 0 150.5 37t77.5 119h135v-242q-88 -36 -171 -54t-200 -18q-200 0 -313 89.5t-113 264.5q0 51 12.5 97
t30.5 79t51.5 70.5t61 62t73.5 62.5q49 41 78 67.5t59 61.5t44 66t21 71.5t3 87.5h146zM539 1294q56 0 94.5 -37.5t38.5 -91.5t-39 -92.5t-94 -38.5t-94 38.5t-39 92.5t38.5 91.5t94.5 37.5z" />
    <glyph glyph-name="Agrave" unicode="&#xc0;" horiz-adv-x="1476" 
d="M1096 131l-109 322h-561l-55 -158q-59 -164 65 -164h96v-131h-509v131h51q61 0 88 70l370 1028q10 30 -2.5 49.5t-40.5 19.5h-110v136h518l420 -1235q9 -28 32.5 -48t49.5 -20h55v-131h-559v131h201zM713 1257l-236 -665h465l-221 665h-8zM659 1507l-192 193v80h221
l94 -273h-123z" />
    <glyph glyph-name="Aacute" unicode="&#xc1;" horiz-adv-x="1476" 
d="M1096 131l-109 322h-561l-55 -158q-59 -164 65 -164h96v-131h-509v131h51q61 0 88 70l370 1028q10 30 -2.5 49.5t-40.5 19.5h-110v136h518l420 -1235q9 -28 32.5 -48t49.5 -20h55v-131h-559v131h201zM713 1257l-236 -665h465l-221 665h-8zM631 1507l94 273h221v-80
l-192 -193h-123z" />
    <glyph glyph-name="Acircumflex" unicode="&#xc2;" horiz-adv-x="1476" 
d="M1096 131l-109 322h-561l-55 -158q-59 -164 65 -164h96v-131h-509v131h51q61 0 88 70l370 1028q10 30 -2.5 49.5t-40.5 19.5h-110v136h518l420 -1235q9 -28 32.5 -48t49.5 -20h55v-131h-559v131h201zM713 1257l-236 -665h465l-221 665h-8zM453 1507v60l153 213h195
l149 -213v-60h-90l-162 142l-159 -142h-86z" />
    <glyph glyph-name="Atilde" unicode="&#xc3;" horiz-adv-x="1476" 
d="M1096 131l-109 322h-561l-55 -158q-59 -164 65 -164h96v-131h-509v131h51q61 0 88 70l370 1028q10 30 -2.5 49.5t-40.5 19.5h-110v136h518l420 -1235q9 -28 32.5 -48t49.5 -20h55v-131h-559v131h201zM713 1257l-236 -665h465l-221 665h-8zM381 1520v112q60 119 184 119
q51 0 143.5 -32.5t118.5 -32.5q67 0 86 73h107v-114q-59 -119 -184 -119q-51 0 -144 35.5t-119 35.5q-66 0 -86 -77h-106z" />
    <glyph glyph-name="Adieresis" unicode="&#xc4;" horiz-adv-x="1476" 
d="M1096 131l-109 322h-561l-55 -158q-59 -164 65 -164h96v-131h-509v131h51q61 0 88 70l370 1028q10 30 -2.5 49.5t-40.5 19.5h-110v136h518l420 -1235q9 -28 32.5 -48t49.5 -20h55v-131h-559v131h201zM713 1257l-236 -665h465l-221 665h-8zM530 1532q-51 0 -85.5 34.5
t-34.5 84.5t34.5 84t85.5 34t86 -34t35 -84t-35 -84.5t-86 -34.5zM883 1532q-51 0 -86 34.5t-35 84.5t35 84t86 34t86 -34t35 -84t-35 -84.5t-86 -34.5z" />
    <glyph glyph-name="Aring" unicode="&#xc5;" horiz-adv-x="1476" 
d="M1096 131l-109 322h-561l-55 -158q-59 -164 65 -164h96v-131h-509v131h51q61 0 88 70l370 1028q10 30 -2.5 49.5t-40.5 19.5h-110v136h518l420 -1235q9 -28 32.5 -48t49.5 -20h55v-131h-559v131h201zM713 1257l-236 -665h465l-221 665h-8zM702 1511q-84 0 -143 54.5
t-59 142.5t59 142.5t143 54.5q85 0 144 -54.5t59 -142.5t-59 -142.5t-144 -54.5zM702 1602q45 0 75 29t30 77q0 50 -30 79.5t-75 29.5t-73.5 -29.5t-28.5 -79.5q0 -49 28.5 -77.5t73.5 -28.5z" />
    <glyph glyph-name="AE" unicode="&#xc6;" horiz-adv-x="1996" 
d="M1933 1434v-381h-149l-25 235h-532v-485h262l16 170h144v-481h-144l-16 170h-262v-519h551l24 263h154v-406h-1114v131h149v322h-508l-88 -158q-42 -75 -24.5 -119.5t84.5 -44.5h94v-131h-526v131h47q57 0 94 70l567 1026q15 28 2.5 49.5t-41.5 21.5h-108v136h1349z
M991 1286h-43l-389 -694h432v694z" />
    <glyph glyph-name="Ccedilla" unicode="&#xc7;" horiz-adv-x="1290" 
d="M692 -358q-79 0 -160 34v99h60q26 -33 80 -33q73 0 73 55q0 58 -94 58h-37v139q-263 34 -412 220.5t-149 502.5q0 175 51.5 314t144 230t219.5 139t280 48q165 0 286 -53q12 0 22 11t11 28h150v-439h-162l-25 203q-108 90 -276 90q-98 0 -179 -33.5t-142.5 -100
t-95.5 -176t-34 -253.5q0 -287 114 -435.5t326 -148.5q250 0 385 183h113v-168q-203 -170 -506 -170h-16v-49q172 -6 172 -146q0 -70 -53 -109.5t-146 -39.5z" />
    <glyph glyph-name="Egrave" unicode="&#xc8;" horiz-adv-x="1204" 
d="M33 0v131h86q23 0 43 22t20 44v1034q0 24 -20 45.5t-43 21.5h-86v136h1108v-381h-150l-24 235h-551v-485h280l17 170h143v-481h-143l-17 170h-280v-519h569l25 263h153v-406h-1130zM578 1507l-193 193v80h221l94 -273h-122z" />
    <glyph glyph-name="Eacute" unicode="&#xc9;" horiz-adv-x="1204" 
d="M543 1507l94 273h221v-80l-192 -193h-123zM33 0v131h86q23 0 43 22t20 44v1034q0 24 -20 45.5t-43 21.5h-86v136h1108v-381h-150l-24 235h-551v-485h280l17 170h143v-481h-143l-17 170h-280v-519h569l25 263h153v-406h-1130z" />
    <glyph glyph-name="Ecircumflex" unicode="&#xca;" horiz-adv-x="1204" 
d="M375 1507v60l153 213h195l149 -213v-60h-90l-161 142l-160 -142h-86zM33 0v131h86q23 0 43 22t20 44v1034q0 24 -20 45.5t-43 21.5h-86v136h1108v-381h-150l-24 235h-551v-485h280l17 170h143v-481h-143l-17 170h-280v-519h569l25 263h153v-406h-1130z" />
    <glyph glyph-name="Edieresis" unicode="&#xcb;" horiz-adv-x="1204" 
d="M449 1532q-51 0 -86 34.5t-35 84.5t35 84t86 34t85.5 -34t34.5 -84t-34.5 -84.5t-85.5 -34.5zM801 1532q-51 0 -86 34.5t-35 84.5t35 84t86 34t86 -34t35 -84t-35 -84.5t-86 -34.5zM33 0v131h86q23 0 43 22t20 44v1034q0 24 -20 45.5t-43 21.5h-86v136h1108v-381h-150
l-24 235h-551v-485h280l17 170h143v-481h-143l-17 170h-280v-519h569l25 263h153v-406h-1130z" />
    <glyph glyph-name="Igrave" unicode="&#xcc;" horiz-adv-x="634" 
d="M33 0v131h102q24 0 44 21.5t20 44.5v1034q0 24 -20 45.5t-44 21.5h-102v136h569v-136h-102q-24 0 -44 -21.5t-20 -45.5v-1034q0 -23 20 -44.5t44 -21.5h102v-131h-569zM272 1507l-192 193v80h221l94 -273h-123z" />
    <glyph glyph-name="Iacute" unicode="&#xcd;" horiz-adv-x="634" 
d="M33 0v131h102q24 0 44 21.5t20 44.5v1034q0 24 -20 45.5t-44 21.5h-102v136h569v-136h-102q-24 0 -44 -21.5t-20 -45.5v-1034q0 -23 20 -44.5t44 -21.5h102v-131h-569zM244 1507l94 273h221v-80l-192 -193h-123z" />
    <glyph glyph-name="Icircumflex" unicode="&#xce;" horiz-adv-x="634" 
d="M33 0v131h102q24 0 44 21.5t20 44.5v1034q0 24 -20 45.5t-44 21.5h-102v136h569v-136h-102q-24 0 -44 -21.5t-20 -45.5v-1034q0 -23 20 -44.5t44 -21.5h102v-131h-569zM68 1507v60l153 213h195l149 -213v-60h-90l-162 142l-159 -142h-86z" />
    <glyph glyph-name="Idieresis" unicode="&#xcf;" horiz-adv-x="634" 
d="M33 0v131h102q24 0 44 21.5t20 44.5v1034q0 24 -20 45.5t-44 21.5h-102v136h569v-136h-102q-24 0 -44 -21.5t-20 -45.5v-1034q0 -23 20 -44.5t44 -21.5h102v-131h-569zM141 1532q-51 0 -86 34.5t-35 84.5t35 84t86 34t86 -34t35 -84t-35 -84.5t-86 -34.5zM494 1532
q-51 0 -86 34.5t-35 84.5t35 84t86 34t85.5 -34t34.5 -84t-34.5 -84.5t-85.5 -34.5z" />
    <glyph glyph-name="Eth" unicode="&#xd0;" horiz-adv-x="1413" 
d="M33 0v131h86q23 0 43 22t20 44v444h-147v137h147v453q0 24 -20 45.5t-43 21.5h-86v136h579q367 0 556.5 -173t189.5 -540q0 -363 -193 -542t-561 -179h-571zM420 139h184q261 0 386.5 138t125.5 442q0 302 -124 435.5t-388 133.5h-184v-510h344v-137h-344v-502z" />
    <glyph glyph-name="Ntilde" unicode="&#xd1;" horiz-adv-x="1454" 
d="M33 0v131h86q23 0 43 22t20 44v1034q0 24 -20 45.5t-43 21.5h-86v136h401l658 -1047h6v911h-180v136h505v-136h-84q-23 0 -42 -21.5t-19 -45.5v-1231h-205l-704 1114h-9v-983h185v-131h-512zM401 1520v112q60 119 185 119q51 0 143.5 -32.5t118.5 -32.5q67 0 86 73h106
v-114q-59 -119 -184 -119q-51 0 -143.5 35.5t-118.5 35.5q-66 0 -86 -77h-107z" />
    <glyph glyph-name="Ograve" unicode="&#xd2;" horiz-adv-x="1484" 
d="M743 -14q-141 0 -265 48.5t-218.5 139t-149.5 230.5t-55 313t55 313t149.5 230.5t218.5 139t265 48.5q140 0 264 -48.5t218.5 -139t149.5 -231t55 -312.5t-55 -312.5t-149.5 -231t-218.5 -139t-264 -48.5zM743 141q196 0 317.5 148.5t121.5 423.5q0 277 -121.5 425
t-317.5 148q-198 0 -319 -148t-121 -425q0 -276 121 -424t319 -148zM694 1516l-192 192v80h221l94 -272h-123z" />
    <glyph glyph-name="Oacute" unicode="&#xd3;" horiz-adv-x="1484" 
d="M668 1516l94 272h221v-80l-192 -192h-123zM743 -14q-141 0 -265 48.5t-218.5 139t-149.5 230.5t-55 313t55 313t149.5 230.5t218.5 139t265 48.5q140 0 264 -48.5t218.5 -139t149.5 -231t55 -312.5t-55 -312.5t-149.5 -231t-218.5 -139t-264 -48.5zM743 141
q196 0 317.5 148.5t121.5 423.5q0 277 -121.5 425t-317.5 148q-198 0 -319 -148t-121 -425q0 -276 121 -424t319 -148z" />
    <glyph glyph-name="Ocircumflex" unicode="&#xd4;" horiz-adv-x="1484" 
d="M492 1516v59l153 213h195l149 -213v-59h-90l-162 141l-159 -141h-86zM743 -14q-141 0 -265 48.5t-218.5 139t-149.5 230.5t-55 313t55 313t149.5 230.5t218.5 139t265 48.5q140 0 264 -48.5t218.5 -139t149.5 -231t55 -312.5t-55 -312.5t-149.5 -231t-218.5 -139
t-264 -48.5zM743 141q196 0 317.5 148.5t121.5 423.5q0 277 -121.5 425t-317.5 148q-198 0 -319 -148t-121 -425q0 -276 121 -424t319 -148z" />
    <glyph glyph-name="Otilde" unicode="&#xd5;" horiz-adv-x="1484" 
d="M743 -14q-141 0 -265 48.5t-218.5 139t-149.5 230.5t-55 313t55 313t149.5 230.5t218.5 139t265 48.5q140 0 264 -48.5t218.5 -139t149.5 -231t55 -312.5t-55 -312.5t-149.5 -231t-218.5 -139t-264 -48.5zM743 141q196 0 317.5 148.5t121.5 423.5q0 277 -121.5 425
t-317.5 148q-198 0 -319 -148t-121 -425q0 -276 121 -424t319 -148zM422 1528v112q60 119 184 119q51 0 143.5 -32.5t118.5 -32.5q67 0 86 73h107v-114q-59 -119 -184 -119q-51 0 -144 36t-119 36q-66 0 -86 -78h-106z" />
    <glyph glyph-name="Odieresis" unicode="&#xd6;" horiz-adv-x="1484" 
d="M565 1540q-51 0 -86 34.5t-35 84.5t35 84.5t86 34.5t86 -34.5t35 -84.5t-35 -84.5t-86 -34.5zM918 1540q-51 0 -86 34.5t-35 84.5t35 84.5t86 34.5t85.5 -34.5t34.5 -84.5t-34.5 -84.5t-85.5 -34.5zM743 -14q-141 0 -265 48.5t-218.5 139t-149.5 230.5t-55 313t55 313
t149.5 230.5t218.5 139t265 48.5q140 0 264 -48.5t218.5 -139t149.5 -231t55 -312.5t-55 -312.5t-149.5 -231t-218.5 -139t-264 -48.5zM743 141q196 0 317.5 148.5t121.5 423.5q0 277 -121.5 425t-317.5 148q-198 0 -319 -148t-121 -425q0 -276 121 -424t319 -148z" />
    <glyph glyph-name="multiply" unicode="&#xd7;" horiz-adv-x="1017" 
d="M203 268l-115 119l305 307l-305 307l115 117l305 -307l307 307l117 -117l-307 -307l307 -307l-117 -119l-307 310z" />
    <glyph glyph-name="Oslash" unicode="&#xd8;" horiz-adv-x="1484" 
d="M92 -59l170 231q-207 200 -207 545q0 173 55 313t149.5 230.5t218.5 139t265 48.5q210 0 377 -107l101 136h165l-161 -217q205 -205 205 -543q0 -172 -55 -312.5t-149.5 -231t-218.5 -139t-264 -48.5q-213 0 -378 104l-109 -149h-164zM743 141q196 0 317.5 148.5
t121.5 423.5q0 226 -84 372l-627 -852q109 -92 272 -92zM303 713q0 -233 82 -375l627 854q-107 94 -269 94q-198 0 -319 -148t-121 -425z" />
    <glyph glyph-name="Ugrave" unicode="&#xd9;" horiz-adv-x="1464" 
d="M739 -14q-269 0 -414 133t-145 401v711q0 24 -20 45.5t-45 21.5h-82v136h563v-136h-180v-790q0 -105 24.5 -176.5t72.5 -110.5t108 -55t143 -16q82 0 141.5 16t107.5 54.5t72.5 110.5t24.5 177v790h-180v136h502v-136h-82q-23 0 -43.5 -22t-20.5 -45v-711
q0 -271 -137 -402.5t-410 -131.5zM721 1507l-193 193v80h222l94 -273h-123z" />
    <glyph glyph-name="Uacute" unicode="&#xda;" horiz-adv-x="1464" 
d="M690 1507l94 273h222v-80l-193 -193h-123zM739 -14q-269 0 -414 133t-145 401v711q0 24 -20 45.5t-45 21.5h-82v136h563v-136h-180v-790q0 -105 24.5 -176.5t72.5 -110.5t108 -55t143 -16q82 0 141.5 16t107.5 54.5t72.5 110.5t24.5 177v790h-180v136h502v-136h-82
q-23 0 -43.5 -22t-20.5 -45v-711q0 -271 -137 -402.5t-410 -131.5z" />
    <glyph glyph-name="Ucircumflex" unicode="&#xdb;" horiz-adv-x="1464" 
d="M516 1507v60l154 213h194l150 -213v-60h-90l-162 142l-160 -142h-86zM739 -14q-269 0 -414 133t-145 401v711q0 24 -20 45.5t-45 21.5h-82v136h563v-136h-180v-790q0 -105 24.5 -176.5t72.5 -110.5t108 -55t143 -16q82 0 141.5 16t107.5 54.5t72.5 110.5t24.5 177v790
h-180v136h502v-136h-82q-23 0 -43.5 -22t-20.5 -45v-711q0 -271 -137 -402.5t-410 -131.5z" />
    <glyph glyph-name="Udieresis" unicode="&#xdc;" horiz-adv-x="1464" 
d="M592 1532q-51 0 -86 34.5t-35 84.5t35 84t86 34t86 -34t35 -84t-35 -84.5t-86 -34.5zM944 1532q-51 0 -86 34.5t-35 84.5t35 84t86 34t86 -34t35 -84t-35 -84.5t-86 -34.5zM739 -14q-269 0 -414 133t-145 401v711q0 24 -20 45.5t-45 21.5h-82v136h563v-136h-180v-790
q0 -105 24.5 -176.5t72.5 -110.5t108 -55t143 -16q82 0 141.5 16t107.5 54.5t72.5 110.5t24.5 177v790h-180v136h502v-136h-82q-23 0 -43.5 -22t-20.5 -45v-711q0 -271 -137 -402.5t-410 -131.5z" />
    <glyph glyph-name="Yacute" unicode="&#xdd;" horiz-adv-x="1349" 
d="M401 0v131h99q24 0 43.5 21.5t19.5 44.5v397l-401 643q-40 61 -88 61h-43v136h532v-136h-168l322 -528h4l237 393q36 65 17 100t-82 35h-66v136h492v-136h-39q-50 0 -92 -65l-387 -631v-405q0 -23 19.5 -44.5t43.5 -21.5h99v-131h-562zM616 1507l95 273h221v-80
l-193 -193h-123z" />
    <glyph glyph-name="Thorn" unicode="&#xde;" horiz-adv-x="1212" 
d="M33 0v131h86q23 0 43 22t20 44v1034q0 24 -20 45.5t-43 21.5h-86v136h563v-136h-176v-184h221q96 0 173.5 -11.5t145.5 -39.5t113.5 -71.5t71.5 -110.5t26 -154q0 -391 -536 -391h-215v-205h186v-131h-573zM420 481h215q151 0 222 58t71 184q0 127 -73 185.5t-220 58.5
h-215v-486z" />
    <glyph glyph-name="germandbls" unicode="&#xdf;" horiz-adv-x="1265" 
d="M848 -12q-169 0 -289 47v219h125q9 -68 48.5 -98.5t117.5 -30.5q79 0 124.5 37t45.5 110q0 23 -5.5 41t-22 34t-30 27t-45.5 25.5t-50.5 22t-63.5 24.5q-117 44 -174.5 103t-57.5 145q0 36 10 69.5t23 57t40.5 53t45.5 45.5t55 48q67 60 95 99.5t28 94.5q0 67 -51.5 103
t-146.5 36q-143 0 -215 -74.5t-72 -193.5v-901h96v-131h-450v131h77q20 0 38 17.5t18 37.5v748h-142v139h142q11 162 144 269.5t360 107.5q89 0 162.5 -15.5t132.5 -47.5t92.5 -88t33.5 -132q0 -78 -47 -140t-135 -126q-82 -59 -109.5 -88t-27.5 -65q0 -37 29.5 -59
t132.5 -62q61 -24 101 -43.5t80 -47t62 -58.5t36 -74t14 -97q0 -150 -98.5 -234.5t-276.5 -84.5z" />
    <glyph glyph-name="agrave" unicode="&#xe0;" horiz-adv-x="1077" 
d="M385 -12q-159 0 -253.5 82t-94.5 237q0 160 115.5 243t308.5 83q124 0 246 -29v141q0 99 -55.5 143t-162.5 44q-165 0 -278 -101h-102v170q172 84 419 84q199 0 299.5 -72.5t100.5 -244.5v-571q0 -31 18 -48.5t47 -17.5h56v-111q-52 -32 -142 -32q-87 0 -134.5 35.5
t-59.5 109.5q-118 -145 -328 -145zM455 129q79 0 138 30.5t114 88.5v233q-107 21 -201 21q-250 0 -250 -189q0 -184 199 -184zM459 1161l-193 193v80h221l95 -273h-123z" />
    <glyph glyph-name="aacute" unicode="&#xe1;" horiz-adv-x="1077" 
d="M385 -12q-159 0 -253.5 82t-94.5 237q0 160 115.5 243t308.5 83q124 0 246 -29v141q0 99 -55.5 143t-162.5 44q-165 0 -278 -101h-102v170q172 84 419 84q199 0 299.5 -72.5t100.5 -244.5v-571q0 -31 18 -48.5t47 -17.5h56v-111q-52 -32 -142 -32q-87 0 -134.5 35.5
t-59.5 109.5q-118 -145 -328 -145zM455 129q79 0 138 30.5t114 88.5v233q-107 21 -201 21q-250 0 -250 -189q0 -184 199 -184zM430 1161l94 273h221v-80l-192 -193h-123z" />
    <glyph glyph-name="acircumflex" unicode="&#xe2;" horiz-adv-x="1077" 
d="M385 -12q-159 0 -253.5 82t-94.5 237q0 160 115.5 243t308.5 83q124 0 246 -29v141q0 99 -55.5 143t-162.5 44q-165 0 -278 -101h-102v170q172 84 419 84q199 0 299.5 -72.5t100.5 -244.5v-571q0 -31 18 -48.5t47 -17.5h56v-111q-52 -32 -142 -32q-87 0 -134.5 35.5
t-59.5 109.5q-118 -145 -328 -145zM455 129q79 0 138 30.5t114 88.5v233q-107 21 -201 21q-250 0 -250 -189q0 -184 199 -184zM256 1161v60l154 213h194l150 -213v-60h-90l-162 142l-160 -142h-86z" />
    <glyph glyph-name="atilde" unicode="&#xe3;" horiz-adv-x="1077" 
d="M385 -12q-159 0 -253.5 82t-94.5 237q0 160 115.5 243t308.5 83q124 0 246 -29v141q0 99 -55.5 143t-162.5 44q-165 0 -278 -101h-102v170q172 84 419 84q199 0 299.5 -72.5t100.5 -244.5v-571q0 -31 18 -48.5t47 -17.5h56v-111q-52 -32 -142 -32q-87 0 -134.5 35.5
t-59.5 109.5q-118 -145 -328 -145zM455 129q79 0 138 30.5t114 88.5v233q-107 21 -201 21q-250 0 -250 -189q0 -184 199 -184zM186 1174v112q60 119 185 119q51 0 143.5 -33t118.5 -33q66 0 86 74h106v-115q-58 -118 -184 -118q-51 0 -143.5 35.5t-118.5 35.5q-66 0 -86 -77
h-107z" />
    <glyph glyph-name="adieresis" unicode="&#xe4;" horiz-adv-x="1077" 
d="M385 -12q-159 0 -253.5 82t-94.5 237q0 160 115.5 243t308.5 83q124 0 246 -29v141q0 99 -55.5 143t-162.5 44q-165 0 -278 -101h-102v170q172 84 419 84q199 0 299.5 -72.5t100.5 -244.5v-571q0 -31 18 -48.5t47 -17.5h56v-111q-52 -32 -142 -32q-87 0 -134.5 35.5
t-59.5 109.5q-118 -145 -328 -145zM455 129q79 0 138 30.5t114 88.5v233q-107 21 -201 21q-250 0 -250 -189q0 -184 199 -184zM330 1186q-51 0 -86 34.5t-35 84.5t35 84t86 34t86 -34t35 -84t-35 -84.5t-86 -34.5zM682 1186q-51 0 -86 34.5t-35 84.5t35 84t86 34t86 -34
t35 -84t-35 -84.5t-86 -34.5z" />
    <glyph glyph-name="aring" unicode="&#xe5;" horiz-adv-x="1077" 
d="M385 -12q-159 0 -253.5 82t-94.5 237q0 160 115.5 243t308.5 83q124 0 246 -29v141q0 99 -55.5 143t-162.5 44q-165 0 -278 -101h-102v170q172 84 419 84q199 0 299.5 -72.5t100.5 -244.5v-571q0 -31 18 -48.5t47 -17.5h56v-111q-52 -32 -142 -32q-87 0 -134.5 35.5
t-59.5 109.5q-118 -145 -328 -145zM455 129q79 0 138 30.5t114 88.5v233q-107 21 -201 21q-250 0 -250 -189q0 -184 199 -184zM506 1165q-85 0 -144 54.5t-59 142.5t59 142.5t144 54.5t144 -54.5t59 -142.5t-59 -142.5t-144 -54.5zM506 1255q45 0 74.5 29t29.5 78
q0 50 -29.5 79t-74.5 29t-74 -29t-29 -79q0 -49 29 -78t74 -29z" />
    <glyph glyph-name="ae" unicode="&#xe6;" horiz-adv-x="1726" 
d="M385 -12q-159 0 -253.5 81.5t-94.5 235.5q0 162 124 246t339 84q139 0 209 -12v122q0 99 -55 143t-160 44q-170 0 -283 -101h-102v170q172 84 419 84q136 0 219 -36t117 -125q127 161 359 161q463 0 463 -514q0 -29 -5 -79h-747q8 -176 88 -269.5t235 -93.5
q99 0 161.5 32.5t107.5 88.5h127v-152q-164 -110 -414 -110q-152 0 -263 52.5t-173 143.5q-93 -112 -190 -154t-228 -42zM455 129q169 0 288 168q-31 92 -34 195q-58 10 -197 10q-122 0 -189 -47t-67 -142q0 -97 51 -140.5t148 -43.5zM936 627h526q-3 173 -61 247t-178 74
q-123 0 -198.5 -82t-88.5 -239z" />
    <glyph glyph-name="ccedilla" unicode="&#xe7;" horiz-adv-x="1036" 
d="M541 -358q-79 0 -160 34v99h59q26 -33 80 -33q74 0 74 55q0 58 -94 58h-37v141q-207 32 -313.5 172t-106.5 367q0 256 150 403t403 147q227 0 356 -57v-225h-141q-13 76 -66.5 107.5t-152.5 31.5q-151 0 -234.5 -104t-83.5 -306q0 -204 77.5 -302.5t236.5 -98.5
q101 0 161.5 34t100.5 89h113v-160q-150 -106 -379 -106h-17v-51q172 -6 172 -146q0 -70 -52.5 -109.5t-145.5 -39.5z" />
    <glyph glyph-name="egrave" unicode="&#xe8;" horiz-adv-x="1081" 
d="M588 -12q-266 0 -405.5 144t-139.5 400q0 253 143.5 403t378.5 150q475 0 475 -516q0 -18 -1 -42t-1 -25h-764q12 -373 330 -373q105 0 167.5 31t109.5 90h127v-152q-168 -110 -420 -110zM279 635h538q-6 166 -68.5 239.5t-183.5 73.5q-124 0 -197.5 -78.5t-88.5 -234.5z
M508 1161l-193 193v80h222l94 -273h-123z" />
    <glyph glyph-name="eacute" unicode="&#xe9;" horiz-adv-x="1081" 
d="M479 1161l94 273h222v-80l-193 -193h-123zM588 -12q-266 0 -405.5 144t-139.5 400q0 253 143.5 403t378.5 150q475 0 475 -516q0 -18 -1 -42t-1 -25h-764q12 -373 330 -373q105 0 167.5 31t109.5 90h127v-152q-168 -110 -420 -110zM279 635h538q-6 166 -68.5 239.5
t-183.5 73.5q-124 0 -197.5 -78.5t-88.5 -234.5z" />
    <glyph glyph-name="ecircumflex" unicode="&#xea;" horiz-adv-x="1081" 
d="M305 1161v60l154 213h194l150 -213v-60h-90l-162 142l-160 -142h-86zM588 -12q-266 0 -405.5 144t-139.5 400q0 253 143.5 403t378.5 150q475 0 475 -516q0 -18 -1 -42t-1 -25h-764q12 -373 330 -373q105 0 167.5 31t109.5 90h127v-152q-168 -110 -420 -110zM279 635h538
q-6 166 -68.5 239.5t-183.5 73.5q-124 0 -197.5 -78.5t-88.5 -234.5z" />
    <glyph glyph-name="edieresis" unicode="&#xeb;" horiz-adv-x="1081" 
d="M379 1186q-51 0 -86 34.5t-35 84.5t35 84t86 34t86 -34t35 -84t-35 -84.5t-86 -34.5zM731 1186q-51 0 -86 34.5t-35 84.5t35 84t86 34t86 -34t35 -84t-35 -84.5t-86 -34.5zM588 -12q-266 0 -405.5 144t-139.5 400q0 253 143.5 403t378.5 150q475 0 475 -516q0 -18 -1 -42
t-1 -25h-764q12 -373 330 -373q105 0 167.5 31t109.5 90h127v-152q-168 -110 -420 -110zM279 635h538q-6 166 -68.5 239.5t-183.5 73.5q-124 0 -197.5 -78.5t-88.5 -234.5z" />
    <glyph glyph-name="igrave" unicode="&#xec;" horiz-adv-x="548" 
d="M29 0v131h80q20 0 37.5 17.5t17.5 37.5v691q0 19 -16.5 38t-36.5 19h-91v139h324q22 0 31.5 -21t9.5 -73v-793q0 -21 17 -38t38 -17h80v-131h-491zM211 1161l-193 193v80h222l94 -273h-123z" />
    <glyph glyph-name="iacute" unicode="&#xed;" horiz-adv-x="548" 
d="M182 1161l94 273h222v-80l-193 -193h-123zM29 0v131h80q20 0 37.5 17.5t17.5 37.5v691q0 19 -16.5 38t-36.5 19h-91v139h324q22 0 31.5 -21t9.5 -73v-793q0 -21 17 -38t38 -17h80v-131h-491z" />
    <glyph glyph-name="icircumflex" unicode="&#xee;" horiz-adv-x="548" 
d="M8 1161v60l154 213h194l150 -213v-60h-90l-162 142l-160 -142h-86zM29 0v131h80q20 0 37.5 17.5t17.5 37.5v691q0 19 -16.5 38t-36.5 19h-91v139h324q22 0 31.5 -21t9.5 -73v-793q0 -21 17 -38t38 -17h80v-131h-491z" />
    <glyph glyph-name="idieresis" unicode="&#xef;" horiz-adv-x="548" 
d="M82 1186q-51 0 -86 34.5t-35 84.5t35 84t86 34t86 -34t35 -84t-35 -84.5t-86 -34.5zM434 1186q-51 0 -86 34.5t-35 84.5t35 84t86 34t86 -34t35 -84t-35 -84.5t-86 -34.5zM29 0v131h80q20 0 37.5 17.5t17.5 37.5v691q0 19 -16.5 38t-36.5 19h-91v139h324q22 0 31.5 -21
t9.5 -73v-793q0 -21 17 -38t38 -17h80v-131h-491z" />
    <glyph glyph-name="eth" unicode="&#xf0;" horiz-adv-x="1179" 
d="M887 1393l-115 -93q365 -227 365 -718q0 -155 -41.5 -271t-116.5 -185.5t-172.5 -103.5t-216.5 -34q-154 0 -277.5 64t-196.5 186.5t-73 283.5q0 121 39.5 222t108.5 168.5t162 105t200 37.5q106 0 180 -36.5t131 -103.5q-39 91 -95.5 156t-139.5 115l-103 -84h-145v41
l125 100q-55 24 -150 45v146h76q122 -24 223 -70l86 70h146v-41zM590 131q144 0 232.5 101t88.5 286q0 188 -88 291.5t-233 103.5t-233.5 -102t-88.5 -291q0 -186 89 -287.5t233 -101.5z" />
    <glyph glyph-name="ntilde" unicode="&#xf1;" horiz-adv-x="1236" 
d="M29 0v131h80q20 0 37.5 17.5t17.5 37.5v691q0 19 -17.5 38t-37.5 19h-89v139h314q54 0 51 -131v-29q84 78 193.5 125t228.5 47q62 0 109.5 -12.5t87.5 -41t61.5 -82.5t21.5 -130v-633q0 -21 17.5 -38t36.5 -17h67v-131h-489v131h147v614q0 95 -40.5 130.5t-127.5 35.5
q-142 0 -313 -102v-678h150v-131h-506zM291 1174v112q60 119 184 119q51 0 143.5 -33t118.5 -33q66 0 86 74h107v-115q-58 -118 -185 -118q-51 0 -143.5 35.5t-118.5 35.5q-66 0 -86 -77h-106z" />
    <glyph glyph-name="ograve" unicode="&#xf2;" horiz-adv-x="1179" 
d="M590 -12q-154 0 -277.5 64t-196.5 189t-73 291q0 168 73 295t196.5 192.5t277.5 65.5q237 0 392 -150.5t155 -402.5q0 -166 -72.5 -291t-196 -189t-278.5 -64zM590 131q144 0 230.5 103.5t86.5 295.5q0 195 -86.5 300.5t-230.5 105.5t-231 -106t-87 -300q0 -191 87 -295
t231 -104zM535 1161l-193 193v80h221l94 -273h-122z" />
    <glyph glyph-name="oacute" unicode="&#xf3;" horiz-adv-x="1179" 
d="M506 1161l94 273h221v-80l-192 -193h-123zM590 -12q-154 0 -277.5 64t-196.5 189t-73 291q0 168 73 295t196.5 192.5t277.5 65.5q237 0 392 -150.5t155 -402.5q0 -166 -72.5 -291t-196 -189t-278.5 -64zM590 131q144 0 230.5 103.5t86.5 295.5q0 195 -86.5 300.5
t-230.5 105.5t-231 -106t-87 -300q0 -191 87 -295t231 -104z" />
    <glyph glyph-name="ocircumflex" unicode="&#xf4;" horiz-adv-x="1179" 
d="M332 1161v60l153 213h195l149 -213v-60h-90l-161 142l-160 -142h-86zM590 -12q-154 0 -277.5 64t-196.5 189t-73 291q0 168 73 295t196.5 192.5t277.5 65.5q237 0 392 -150.5t155 -402.5q0 -166 -72.5 -291t-196 -189t-278.5 -64zM590 131q144 0 230.5 103.5t86.5 295.5
q0 195 -86.5 300.5t-230.5 105.5t-231 -106t-87 -300q0 -191 87 -295t231 -104z" />
    <glyph glyph-name="otilde" unicode="&#xf5;" horiz-adv-x="1179" 
d="M590 -12q-154 0 -277.5 64t-196.5 189t-73 291q0 168 73 295t196.5 192.5t277.5 65.5q237 0 392 -150.5t155 -402.5q0 -166 -72.5 -291t-196 -189t-278.5 -64zM590 131q144 0 230.5 103.5t86.5 295.5q0 195 -86.5 300.5t-230.5 105.5t-231 -106t-87 -300q0 -191 87 -295
t231 -104zM262 1174v112q60 119 184 119q51 0 144 -33t119 -33q66 0 86 74h106v-115q-58 -118 -184 -118q-51 0 -143.5 35.5t-118.5 35.5q-66 0 -86 -77h-107z" />
    <glyph glyph-name="odieresis" unicode="&#xf6;" horiz-adv-x="1179" 
d="M406 1186q-51 0 -86 34.5t-35 84.5t35 84t86 34t85.5 -34t34.5 -84t-34.5 -84.5t-85.5 -34.5zM758 1186q-51 0 -86 34.5t-35 84.5t35 84t86 34t86 -34t35 -84t-35 -84.5t-86 -34.5zM590 -12q-154 0 -277.5 64t-196.5 189t-73 291q0 168 73 295t196.5 192.5t277.5 65.5
q237 0 392 -150.5t155 -402.5q0 -166 -72.5 -291t-196 -189t-278.5 -64zM590 131q144 0 230.5 103.5t86.5 295.5q0 195 -86.5 300.5t-230.5 105.5t-231 -106t-87 -300q0 -191 87 -295t231 -104z" />
    <glyph glyph-name="divide" unicode="&#xf7;" horiz-adv-x="1015" 
d="M510 240q-57 0 -94 36.5t-37 90.5q0 55 37.5 92t93.5 37q54 0 91.5 -37.5t37.5 -91.5t-37.5 -90.5t-91.5 -36.5zM510 920q-57 0 -94 36.5t-37 90.5q0 55 37.5 92t93.5 37q54 0 91.5 -37.5t37.5 -91.5t-37.5 -90.5t-91.5 -36.5zM51 625v166h914v-166h-914z" />
    <glyph glyph-name="oslash" unicode="&#xf8;" horiz-adv-x="1179" 
d="M590 -12q-161 0 -287 69l-86 -112h-145l137 180q-166 153 -166 407q0 168 73 295t196.5 192.5t277.5 65.5q162 0 289 -71l77 102h146l-131 -172q79 -72 122.5 -177.5t43.5 -234.5q0 -166 -72.5 -291t-196 -189t-278.5 -64zM590 131q144 0 231.5 104t87.5 295
q0 154 -55 258l-455 -602q73 -55 191 -55zM270 530q0 -155 52 -254l454 603q-74 59 -186 59q-144 0 -232 -107t-88 -301z" />
    <glyph glyph-name="ugrave" unicode="&#xf9;" horiz-adv-x="1243" 
d="M442 -14q-60 0 -108.5 13t-90 42t-64.5 82.5t-23 128.5v627q0 20 -18 37.5t-38 17.5h-80v139h357v-751q0 -98 44.5 -136.5t127.5 -38.5q144 0 305 107v680h-154v139h375v-885q0 -20 18.5 -38.5t39.5 -18.5h81v-131h-309q-24 0 -36.5 27.5t-12.5 97.5v27
q-188 -166 -414 -166zM522 1161l-192 193v80h221l94 -273h-123z" />
    <glyph glyph-name="uacute" unicode="&#xfa;" horiz-adv-x="1243" 
d="M494 1161l94 273h221v-80l-193 -193h-122zM442 -14q-60 0 -108.5 13t-90 42t-64.5 82.5t-23 128.5v627q0 20 -18 37.5t-38 17.5h-80v139h357v-751q0 -98 44.5 -136.5t127.5 -38.5q144 0 305 107v680h-154v139h375v-885q0 -20 18.5 -38.5t39.5 -18.5h81v-131h-309
q-24 0 -36.5 27.5t-12.5 97.5v27q-188 -166 -414 -166z" />
    <glyph glyph-name="ucircumflex" unicode="&#xfb;" horiz-adv-x="1243" 
d="M319 1161v60l154 213h195l149 -213v-60h-90l-162 142l-159 -142h-87zM442 -14q-60 0 -108.5 13t-90 42t-64.5 82.5t-23 128.5v627q0 20 -18 37.5t-38 17.5h-80v139h357v-751q0 -98 44.5 -136.5t127.5 -38.5q144 0 305 107v680h-154v139h375v-885q0 -20 18.5 -38.5
t39.5 -18.5h81v-131h-309q-24 0 -36.5 27.5t-12.5 97.5v27q-188 -166 -414 -166z" />
    <glyph glyph-name="udieresis" unicode="&#xfc;" horiz-adv-x="1243" 
d="M393 1186q-51 0 -86 34.5t-35 84.5t35 84t86 34t86 -34t35 -84t-35 -84.5t-86 -34.5zM745 1186q-51 0 -85.5 34.5t-34.5 84.5t34.5 84t85.5 34t86 -34t35 -84t-35 -84.5t-86 -34.5zM442 -14q-60 0 -108.5 13t-90 42t-64.5 82.5t-23 128.5v627q0 20 -18 37.5t-38 17.5h-80
v139h357v-751q0 -98 44.5 -136.5t127.5 -38.5q144 0 305 107v680h-154v139h375v-885q0 -20 18.5 -38.5t39.5 -18.5h81v-131h-309q-24 0 -36.5 27.5t-12.5 97.5v27q-188 -166 -414 -166z" />
    <glyph glyph-name="yacute" unicode="&#xfd;" horiz-adv-x="1204" 
d="M201 -332v123q180 56 297 236l-363 841q-27 66 -76 66h-39v139h476v-139h-158l274 -660l222 541q49 119 -52 119h-53v139h438v-139h-47q-50 0 -80 -68l-340 -784q-133 -309 -313 -414h-186zM524 1161l94 273h222v-80l-193 -193h-123z" />
    <glyph glyph-name="thorn" unicode="&#xfe;" horiz-adv-x="1140" 
d="M-35 -332v123h80q21 0 38 17t17 38v1395q0 20 -17 38.5t-38 18.5h-88v136h322q43 0 43 -56v-454q157 161 354 161q66 0 125 -17t113.5 -57t93.5 -99.5t62.5 -151t23.5 -205.5q0 -117 -27 -211t-72 -155t-107 -101.5t-128 -58t-139 -17.5q-184 0 -299 99v-320h159v-123
h-516zM569 143q31 0 59.5 4.5t59 17t56 31.5t49 50t40 71t26 96.5t9.5 123.5q0 90 -16.5 159.5t-42.5 111.5t-63.5 69t-75.5 37t-82 10q-125 0 -266 -115v-569q50 -47 107 -72t140 -25z" />
    <glyph glyph-name="ydieresis" unicode="&#xff;" horiz-adv-x="1204" 
d="M201 -332v123q180 56 297 236l-363 841q-27 66 -76 66h-39v139h476v-139h-158l274 -660l222 541q49 119 -52 119h-53v139h438v-139h-47q-50 0 -80 -68l-340 -784q-133 -309 -313 -414h-186zM424 1186q-51 0 -86 34.5t-35 84.5t35 84t86 34t86 -34t35 -84t-35 -84.5
t-86 -34.5zM776 1186q-51 0 -86 34.5t-35 84.5t35 84t86 34t86 -34t35 -84t-35 -84.5t-86 -34.5z" />
    <glyph glyph-name="Amacron" unicode="&#x100;" horiz-adv-x="1476" 
d="M1096 131l-109 322h-561l-55 -158q-59 -164 65 -164h96v-131h-509v131h51q61 0 88 70l370 1028q10 30 -2.5 49.5t-40.5 19.5h-110v136h518l420 -1235q9 -28 32.5 -48t49.5 -20h55v-131h-559v131h201zM713 1257l-236 -665h465l-221 665h-8zM958 1712v-147h-516v147h516z
" />
    <glyph glyph-name="amacron" unicode="&#x101;" horiz-adv-x="1077" 
d="M385 -12q-159 0 -253.5 82t-94.5 237q0 160 115.5 243t308.5 83q124 0 246 -29v141q0 99 -55.5 143t-162.5 44q-165 0 -278 -101h-102v170q172 84 419 84q199 0 299.5 -72.5t100.5 -244.5v-571q0 -31 18 -48.5t47 -17.5h56v-111q-52 -32 -142 -32q-87 0 -134.5 35.5
t-59.5 109.5q-118 -145 -328 -145zM455 129q79 0 138 30.5t114 88.5v233q-107 21 -201 21q-250 0 -250 -189q0 -184 199 -184zM764 1366v-147h-516v147h516z" />
    <glyph glyph-name="Abreve" unicode="&#x102;" horiz-adv-x="1476" 
d="M1096 131l-109 322h-561l-55 -158q-59 -164 65 -164h96v-131h-509v131h51q61 0 88 70l370 1028q10 30 -2.5 49.5t-40.5 19.5h-110v136h518l420 -1235q9 -28 32.5 -48t49.5 -20h55v-131h-559v131h201zM713 1257l-236 -665h465l-221 665h-8zM700 1509q-104 0 -168.5 52
t-91.5 129v77h131q9 -53 42 -81.5t87 -28.5q110 0 129 110h132v-77q-26 -77 -91.5 -129t-169.5 -52z" />
    <glyph glyph-name="abreve" unicode="&#x103;" horiz-adv-x="1077" 
d="M385 -12q-159 0 -253.5 82t-94.5 237q0 160 115.5 243t308.5 83q124 0 246 -29v141q0 99 -55.5 143t-162.5 44q-165 0 -278 -101h-102v170q172 84 419 84q199 0 299.5 -72.5t100.5 -244.5v-571q0 -31 18 -48.5t47 -17.5h56v-111q-52 -32 -142 -32q-87 0 -134.5 35.5
t-59.5 109.5q-118 -145 -328 -145zM455 129q79 0 138 30.5t114 88.5v233q-107 21 -201 21q-250 0 -250 -189q0 -184 199 -184zM506 1163q-104 0 -169 51.5t-91 128.5v78h131q9 -53 42 -81.5t87 -28.5q110 0 129 110h131v-78q-26 -77 -91 -128.5t-169 -51.5z" />
    <glyph glyph-name="Aogonek" unicode="&#x104;" horiz-adv-x="1476" 
d="M1294 -338q-87 0 -137.5 40t-50.5 108q0 64 42 111.5t101 78.5h-354v131h201l-109 322h-561l-55 -158q-59 -164 65 -164h96v-131h-509v131h51q61 0 88 70l370 1028q10 30 -2.5 49.5t-40.5 19.5h-110v136h518l420 -1235q9 -28 32.5 -48t49.5 -20h55v-131h-74
q-49 -40 -73.5 -72t-24.5 -71q0 -66 80 -66h63v-98q-64 -31 -131 -31zM713 1257l-236 -665h465l-221 665h-8z" />
    <glyph glyph-name="aogonek" unicode="&#x105;" horiz-adv-x="1077" 
d="M918 -338q-87 0 -138 40t-51 108q0 108 125 182q-123 15 -141 141q-118 -145 -328 -145q-159 0 -253.5 82t-94.5 237q0 160 115.5 243t308.5 83q124 0 246 -29v141q0 99 -55.5 143t-162.5 44q-165 0 -278 -101h-102v170q172 84 419 84q199 0 299.5 -72.5t100.5 -244.5
v-571q0 -31 18 -48.5t47 -17.5h56v-111q-144 -79 -144 -163q0 -66 80 -66h64v-98q-64 -31 -131 -31zM455 129q79 0 138 30.5t114 88.5v233q-107 21 -201 21q-254 0 -254 -189q0 -184 203 -184z" />
    <glyph glyph-name="Cacute" unicode="&#x106;" horiz-adv-x="1290" 
d="M653 1516l95 272h221v-80l-193 -192h-123zM735 -14q-316 0 -499 190t-183 541q0 175 51.5 314t144 230t219.5 139t280 48q165 0 286 -53q12 0 22 11t11 28h150v-439h-162l-25 203q-108 90 -276 90q-98 0 -179 -33.5t-142.5 -100t-95.5 -176t-34 -253.5q0 -287 114 -435.5
t326 -148.5q250 0 385 183h113v-168q-203 -170 -506 -170z" />
    <glyph glyph-name="cacute" unicode="&#x107;" horiz-adv-x="1036" 
d="M483 1161l95 273h221v-80l-193 -193h-123zM584 -12q-265 0 -403 144t-138 403q0 256 150 403t403 147q227 0 356 -57v-225h-141q-13 76 -66.5 107.5t-152.5 31.5q-151 0 -234.5 -104t-83.5 -306q0 -204 77.5 -302.5t236.5 -98.5q101 0 161.5 34t100.5 89h113v-160
q-150 -106 -379 -106z" />
    <glyph glyph-name="Ccircumflex" unicode="&#x108;" horiz-adv-x="1290" 
d="M473 1516v59l154 213h194l150 -213v-59h-90l-162 141l-160 -141h-86zM735 -14q-316 0 -499 190t-183 541q0 175 51.5 314t144 230t219.5 139t280 48q165 0 286 -53q12 0 22 11t11 28h150v-439h-162l-25 203q-108 90 -276 90q-98 0 -179 -33.5t-142.5 -100t-95.5 -176
t-34 -253.5q0 -287 114 -435.5t326 -148.5q250 0 385 183h113v-168q-203 -170 -506 -170z" />
    <glyph glyph-name="ccircumflex" unicode="&#x109;" horiz-adv-x="1036" 
d="M309 1161v60l154 213h194l150 -213v-60h-90l-162 142l-160 -142h-86zM584 -12q-265 0 -403 144t-138 403q0 256 150 403t403 147q227 0 356 -57v-225h-141q-13 76 -66.5 107.5t-152.5 31.5q-151 0 -234.5 -104t-83.5 -306q0 -204 77.5 -302.5t236.5 -98.5q101 0 161.5 34
t100.5 89h113v-160q-150 -106 -379 -106z" />
    <glyph glyph-name="Cdotaccent" unicode="&#x10a;" horiz-adv-x="1290" 
d="M735 -14q-316 0 -499 190t-183 541q0 175 51.5 314t144 230t219.5 139t280 48q165 0 286 -53q12 0 22 11t11 28h150v-439h-162l-25 203q-108 90 -276 90q-98 0 -179 -33.5t-142.5 -100t-95.5 -176t-34 -253.5q0 -287 114 -435.5t326 -148.5q250 0 385 183h113v-168
q-203 -170 -506 -170zM727 1540q-54 0 -90.5 36t-36.5 89t36.5 89t90.5 36t90.5 -36t36.5 -89t-36.5 -89t-90.5 -36z" />
    <glyph glyph-name="cdotaccent" unicode="&#x10b;" horiz-adv-x="1036" 
d="M584 -12q-265 0 -403 144t-138 403q0 256 150 403t403 147q227 0 356 -57v-225h-141q-13 76 -66.5 107.5t-152.5 31.5q-151 0 -234.5 -104t-83.5 -306q0 -204 77.5 -302.5t236.5 -98.5q101 0 161.5 34t100.5 89h113v-160q-150 -106 -379 -106zM559 1186q-54 0 -90.5 36
t-36.5 89t36.5 89t90.5 36t90.5 -36t36.5 -89t-36.5 -89t-90.5 -36z" />
    <glyph glyph-name="Ccaron" unicode="&#x10c;" horiz-adv-x="1290" 
d="M979 1788v-62l-156 -210h-192l-150 210v62h90l160 -141l162 141h86zM735 -14q-316 0 -499 190t-183 541q0 175 51.5 314t144 230t219.5 139t280 48q165 0 286 -53q12 0 22 11t11 28h150v-439h-162l-25 203q-108 90 -276 90q-98 0 -179 -33.5t-142.5 -100t-95.5 -176
t-34 -253.5q0 -287 114 -435.5t326 -148.5q250 0 385 183h113v-168q-203 -170 -506 -170z" />
    <glyph glyph-name="ccaron" unicode="&#x10d;" horiz-adv-x="1036" 
d="M809 1434v-62l-156 -211h-192l-150 211v62h90l160 -142l162 142h86zM584 -12q-265 0 -403 144t-138 403q0 256 150 403t403 147q227 0 356 -57v-225h-141q-13 76 -66.5 107.5t-152.5 31.5q-151 0 -234.5 -104t-83.5 -306q0 -204 77.5 -302.5t236.5 -98.5q101 0 161.5 34
t100.5 89h113v-160q-150 -106 -379 -106z" />
    <glyph glyph-name="Dcaron" unicode="&#x10e;" horiz-adv-x="1413" 
d="M856 1780v-62l-156 -211h-192l-150 211v62h91l159 -142l162 142h86zM33 0v131h86q23 0 43 22t20 44v1034q0 24 -20 45.5t-43 21.5h-86v136h579q367 0 556.5 -173t189.5 -540q0 -363 -193 -542t-561 -179h-571zM420 139h184q261 0 383.5 137.5t122.5 442.5
q0 302 -121.5 435.5t-384.5 133.5h-184v-1149z" />
    <glyph glyph-name="dcaron" unicode="&#x10f;" horiz-adv-x="1230" 
d="M1120 1151l23 283h180v-80l-84 -203h-119zM494 -12q-69 0 -130.5 15.5t-120.5 54.5t-101.5 98.5t-68.5 154t-26 213.5t28.5 215.5t74.5 159.5t108 106t126.5 61.5t131.5 18.5q203 0 330 -127v340h-156v136h336q41 0 41 -56v-1190q0 -20 17.5 -38.5t37.5 -18.5h80v-131
h-309q-20 0 -31 32t-12 115q-137 -159 -356 -159zM557 125q157 0 289 143v572q-115 90 -258 90q-50 0 -93.5 -11t-85.5 -39.5t-71.5 -73t-47.5 -115t-18 -161.5q0 -118 24.5 -201t67.5 -125.5t90 -60.5t103 -18z" />
    <glyph glyph-name="Dcroat" unicode="&#x110;" horiz-adv-x="1413" 
d="M33 0v131h86q23 0 43 22t20 44v444h-147v137h147v453q0 24 -20 45.5t-43 21.5h-86v136h579q367 0 556.5 -173t189.5 -540q0 -363 -193 -542t-561 -179h-571zM420 139h184q261 0 386.5 138t125.5 442q0 302 -124 435.5t-388 133.5h-184v-510h344v-137h-344v-502z" />
    <glyph glyph-name="dcroat" unicode="&#x111;" horiz-adv-x="1230" 
d="M494 -12q-69 0 -130.5 15.5t-120.5 54.5t-101.5 98.5t-68.5 154t-26 213.5t28.5 215.5t74.5 159.5t108 106t126.5 61.5t131.5 18.5q203 0 330 -127v213h-289v117h289v146h180q41 0 41 -56v-90h135v-117h-135v-983q0 -20 17.5 -38.5t37.5 -18.5h80v-131h-309q-20 0 -31 32
t-12 115q-137 -159 -356 -159zM557 125q157 0 289 143v572q-115 90 -258 90q-50 0 -93.5 -11t-85.5 -39.5t-71.5 -73t-47.5 -115t-18 -161.5q0 -118 24.5 -201t67.5 -125.5t90 -60.5t103 -18z" />
    <glyph glyph-name="Emacron" unicode="&#x112;" horiz-adv-x="1204" 
d="M33 0v131h86q23 0 43 22t20 44v1034q0 24 -20 45.5t-43 21.5h-86v136h1108v-381h-150l-24 235h-551v-485h280l17 170h143v-481h-143l-17 170h-280v-519h569l25 263h153v-406h-1130zM879 1712v-147h-517v147h517z" />
    <glyph glyph-name="emacron" unicode="&#x113;" horiz-adv-x="1081" 
d="M588 -12q-266 0 -405.5 144t-139.5 400q0 253 143.5 403t378.5 150q475 0 475 -516q0 -18 -1 -42t-1 -25h-764q12 -373 330 -373q105 0 167.5 31t109.5 90h127v-152q-168 -110 -420 -110zM279 635h538q-6 166 -68.5 239.5t-183.5 73.5q-124 0 -197.5 -78.5t-88.5 -234.5z
M813 1366v-147h-516v147h516z" />
    <glyph glyph-name="Ebreve" unicode="&#x114;" horiz-adv-x="1204" 
d="M33 0v131h86q23 0 43 22t20 44v1034q0 24 -20 45.5t-43 21.5h-86v136h1108v-381h-150l-24 235h-551v-485h280l17 170h143v-481h-143l-17 170h-280v-519h569l25 263h153v-406h-1130zM631 1518q-104 0 -169 51.5t-91 128.5v78h131q9 -53 42 -82t87 -29q110 0 129 111h131
v-78q-26 -77 -91 -128.5t-169 -51.5z" />
    <glyph glyph-name="ebreve" unicode="&#x115;" horiz-adv-x="1081" 
d="M588 -12q-266 0 -405.5 144t-139.5 400q0 253 143.5 403t378.5 150q475 0 475 -516q0 -18 -1 -42t-1 -25h-764q12 -373 330 -373q105 0 167.5 31t109.5 90h127v-152q-168 -110 -420 -110zM279 635h538q-6 166 -68.5 239.5t-183.5 73.5q-124 0 -197.5 -78.5t-88.5 -234.5z
M555 1163q-104 0 -169 51.5t-91 128.5v78h131q9 -53 42 -81.5t87 -28.5q110 0 129 110h131v-78q-26 -77 -91 -128.5t-169 -51.5z" />
    <glyph glyph-name="Edotaccent" unicode="&#x116;" horiz-adv-x="1204" 
d="M33 0v131h86q23 0 43 22t20 44v1034q0 24 -20 45.5t-43 21.5h-86v136h1108v-381h-150l-24 235h-551v-485h280l17 170h143v-481h-143l-17 170h-280v-519h569l25 263h153v-406h-1130zM623 1532q-54 0 -90.5 36t-36.5 89t36.5 89t90.5 36t90.5 -36t36.5 -89t-36.5 -89
t-90.5 -36z" />
    <glyph glyph-name="edotaccent" unicode="&#x117;" horiz-adv-x="1081" 
d="M588 -12q-266 0 -405.5 144t-139.5 400q0 253 143.5 403t378.5 150q475 0 475 -516q0 -18 -1 -42t-1 -25h-764q12 -373 330 -373q105 0 167.5 31t109.5 90h127v-152q-168 -110 -420 -110zM279 635h538q-6 166 -68.5 239.5t-183.5 73.5q-124 0 -197.5 -78.5t-88.5 -234.5z
M555 1186q-54 0 -90.5 36t-36.5 89t36.5 89t90.5 36t90.5 -36t36.5 -89t-36.5 -89t-90.5 -36z" />
    <glyph glyph-name="Eogonek" unicode="&#x118;" horiz-adv-x="1204" 
d="M33 0v131h86q23 0 43 22t20 44v1034q0 24 -20 45.5t-43 21.5h-86v136h1108v-381h-150l-24 235h-551v-485h280l17 170h143v-481h-143l-17 170h-280v-519h569l25 263h153v-406h-78q-49 -40 -73.5 -72t-24.5 -71q0 -66 80 -66h63v-98q-64 -31 -131 -31q-87 0 -137.5 40
t-50.5 108q0 64 42 111.5t101 78.5h-921z" />
    <glyph glyph-name="eogonek" unicode="&#x119;" horiz-adv-x="1081" 
d="M797 -338q-87 0 -138 40t-51 108q0 33 13 63.5t37 55t45 41t49 34.5q-68 -16 -164 -16q-266 0 -405.5 144t-139.5 400q0 253 143.5 403t378.5 150q475 0 475 -516q0 -18 -1 -42t-1 -25h-768q12 -373 334 -373q105 0 167.5 31t109.5 90h127v-152q-84 -54 -154 -121.5
t-70 -119.5q0 -66 80 -66h64v-98q-64 -31 -131 -31zM274 635h545q-6 165 -69.5 239t-184.5 74q-124 0 -200 -79t-91 -234z" />
    <glyph glyph-name="Ecaron" unicode="&#x11a;" horiz-adv-x="1204" 
d="M874 1780v-62l-155 -211h-193l-149 211v62h90l160 -142l161 142h86zM33 0v131h86q23 0 43 22t20 44v1034q0 24 -20 45.5t-43 21.5h-86v136h1108v-381h-150l-24 235h-551v-485h280l17 170h143v-481h-143l-17 170h-280v-519h569l25 263h153v-406h-1130z" />
    <glyph glyph-name="ecaron" unicode="&#x11b;" horiz-adv-x="1081" 
d="M805 1434v-62l-156 -211h-192l-150 211v62h90l160 -142l162 142h86zM588 -12q-266 0 -405.5 144t-139.5 400q0 253 143.5 403t378.5 150q475 0 475 -516q0 -18 -1 -42t-1 -25h-764q12 -373 330 -373q105 0 167.5 31t109.5 90h127v-152q-168 -110 -420 -110zM279 635h538
q-6 166 -68.5 239.5t-183.5 73.5q-124 0 -197.5 -78.5t-88.5 -234.5z" />
    <glyph glyph-name="Gcircumflex" unicode="&#x11c;" horiz-adv-x="1376" 
d="M487 1516v59l154 213h195l149 -213v-59h-90l-162 141l-160 -141h-86zM715 -14q-310 0 -486 189.5t-176 541.5q0 175 51 314t143.5 230t220.5 139t282 48q25 0 48 -1t44 -3.5t37.5 -5t35 -7t28.5 -7t27 -8t21.5 -7t20 -8t16.5 -6.5q11 0 20.5 9.5t12.5 29.5h149v-426h-161
l-25 182q-127 98 -272 98q-97 0 -177.5 -33.5t-142 -100t-95.5 -176t-34 -253.5q0 -288 108.5 -436t313.5 -148q151 0 266 64v325h-170v136h527v-136h-60q-24 0 -43.5 -21t-19.5 -44v-465h-131q0 20 -14 39.5t-38 19.5q-54 -23 -79.5 -33t-98 -25t-149.5 -15z" />
    <glyph glyph-name="gcircumflex" unicode="&#x11d;" horiz-adv-x="1036" 
d="M262 1161v60l154 213h194l150 -213v-60h-90l-162 142l-160 -142h-86zM459 -352q-120 0 -208.5 18.5t-141.5 53.5t-78 80t-25 102q0 86 50 142t137 99q-84 45 -84 146q0 111 108 198q-125 91 -125 254q0 154 111 249t299 95q72 0 133 -12h369v-139h-93q-16 0 -30.5 -11.5
t-14.5 -25.5q47 -65 47 -156q0 -150 -111 -240.5t-300 -90.5q-118 0 -199 34q-29 -44 -29 -90q0 -75 101 -75h301q325 0 325 -267q0 -169 -130 -266.5t-412 -97.5zM469 -211q162 0 243 48.5t81 127.5q0 64 -38.5 92.5t-127.5 28.5h-348q-72 -59 -72 -139q0 -78 58 -118
t204 -40zM502 539q99 0 153 53.5t54 148.5q0 96 -54 151.5t-153 55.5q-97 0 -151 -55.5t-54 -151.5q0 -95 53.5 -148.5t151.5 -53.5z" />
    <glyph glyph-name="Gbreve" unicode="&#x11e;" horiz-adv-x="1376" 
d="M715 -14q-310 0 -486 189.5t-176 541.5q0 175 51 314t143.5 230t220.5 139t282 48q25 0 48 -1t44 -3.5t37.5 -5t35 -7t28.5 -7t27 -8t21.5 -7t20 -8t16.5 -6.5q11 0 20.5 9.5t12.5 29.5h149v-426h-161l-25 182q-127 98 -272 98q-97 0 -177.5 -33.5t-142 -100t-95.5 -176
t-34 -253.5q0 -288 108.5 -436t313.5 -148q151 0 266 64v325h-170v136h527v-136h-60q-24 0 -43.5 -21t-19.5 -44v-465h-131q0 20 -14 39.5t-38 19.5q-54 -23 -79.5 -33t-98 -25t-149.5 -15zM735 1518q-104 0 -169 51.5t-91 128.5v78h131q9 -53 42 -82t87 -29q110 0 129 111
h131v-78q-26 -77 -91 -128.5t-169 -51.5z" />
    <glyph glyph-name="gbreve" unicode="&#x11f;" horiz-adv-x="1036" 
d="M459 -352q-120 0 -208.5 18.5t-141.5 53.5t-78 80t-25 102q0 86 50 142t137 99q-84 45 -84 146q0 111 108 198q-125 91 -125 254q0 154 111 249t299 95q72 0 133 -12h369v-139h-93q-16 0 -30.5 -11.5t-14.5 -25.5q47 -65 47 -156q0 -150 -111 -240.5t-300 -90.5
q-118 0 -199 34q-29 -44 -29 -90q0 -75 101 -75h301q325 0 325 -267q0 -169 -130 -266.5t-412 -97.5zM469 -211q162 0 243 48.5t81 127.5q0 64 -38.5 92.5t-127.5 28.5h-348q-72 -59 -72 -139q0 -78 58 -118t204 -40zM502 539q99 0 153 53.5t54 148.5q0 96 -54 151.5
t-153 55.5q-97 0 -151 -55.5t-54 -151.5q0 -95 53.5 -148.5t151.5 -53.5zM512 1163q-104 0 -169 51.5t-91 128.5v78h131q9 -53 42 -81.5t87 -28.5q110 0 129 110h131v-78q-26 -77 -91 -128.5t-169 -51.5z" />
    <glyph glyph-name="Gdotaccent" unicode="&#x120;" horiz-adv-x="1376" 
d="M715 -14q-310 0 -486 189.5t-176 541.5q0 175 51 314t143.5 230t220.5 139t282 48q25 0 48 -1t44 -3.5t37.5 -5t35 -7t28.5 -7t27 -8t21.5 -7t20 -8t16.5 -6.5q11 0 20.5 9.5t12.5 29.5h149v-426h-161l-25 182q-127 98 -272 98q-97 0 -177.5 -33.5t-142 -100t-95.5 -176
t-34 -253.5q0 -288 108.5 -436t313.5 -148q151 0 266 64v325h-170v136h527v-136h-60q-24 0 -43.5 -21t-19.5 -44v-465h-131q0 20 -14 39.5t-38 19.5q-54 -23 -79.5 -33t-98 -25t-149.5 -15zM737 1540q-54 0 -90.5 36t-36.5 89t36.5 89t90.5 36t90.5 -36t36.5 -89t-36.5 -89
t-90.5 -36z" />
    <glyph glyph-name="gdotaccent" unicode="&#x121;" horiz-adv-x="1036" 
d="M459 -352q-120 0 -208.5 18.5t-141.5 53.5t-78 80t-25 102q0 86 50 142t137 99q-84 45 -84 146q0 111 108 198q-125 91 -125 254q0 154 111 249t299 95q72 0 133 -12h369v-139h-93q-16 0 -30.5 -11.5t-14.5 -25.5q47 -65 47 -156q0 -150 -111 -240.5t-300 -90.5
q-118 0 -199 34q-29 -44 -29 -90q0 -75 101 -75h301q325 0 325 -267q0 -169 -130 -266.5t-412 -97.5zM469 -211q162 0 243 48.5t81 127.5q0 64 -38.5 92.5t-127.5 28.5h-348q-72 -59 -72 -139q0 -78 58 -118t204 -40zM502 539q99 0 153 53.5t54 148.5q0 96 -54 151.5
t-153 55.5q-97 0 -151 -55.5t-54 -151.5q0 -95 53.5 -148.5t151.5 -53.5zM512 1186q-54 0 -90.5 36t-36.5 89t36.5 89t90.5 36t90.5 -36t36.5 -89t-36.5 -89t-90.5 -36z" />
    <glyph glyph-name="Gcommaaccent" unicode="&#x122;" horiz-adv-x="1376" 
d="M584 -426v94q96 15 96 62q0 9 -5 16.5t-9 10.5t-16.5 10t-14.5 8q-43 24 -43 82q0 40 31 66t77 26q56 0 90.5 -33t34.5 -100q0 -115 -60 -172.5t-181 -69.5zM715 -14q-310 0 -486 189.5t-176 541.5q0 175 51 314t143.5 230t220.5 139t282 48q25 0 48 -1t44 -3.5t37.5 -5
t35 -7t28.5 -7t27 -8t21.5 -7t20 -8t16.5 -6.5q11 0 20.5 9.5t12.5 29.5h149v-426h-161l-25 182q-127 98 -272 98q-97 0 -177.5 -33.5t-142 -100t-95.5 -176t-34 -253.5q0 -288 108.5 -436t313.5 -148q151 0 266 64v325h-170v136h527v-136h-60q-24 0 -43.5 -21t-19.5 -44
v-465h-131q0 20 -14 39.5t-38 19.5q-54 -23 -79.5 -33t-98 -25t-149.5 -15z" />
    <glyph glyph-name="gcommaaccent" unicode="&#x123;" horiz-adv-x="1036" 
d="M635 1538v-94q-96 -15 -96 -62q0 -9 5 -16.5t9 -10.5t16.5 -10t14.5 -8q43 -24 43 -82q0 -39 -31.5 -65.5t-77.5 -26.5q-56 0 -90.5 33t-34.5 100q0 114 60 172t182 70zM459 -352q-120 0 -208.5 18.5t-141.5 53.5t-78 80t-25 102q0 86 50 142t137 99q-84 45 -84 146
q0 111 108 198q-125 91 -125 254q0 154 111 249t299 95q72 0 133 -12h369v-139h-93q-16 0 -30.5 -11.5t-14.5 -25.5q47 -65 47 -156q0 -150 -111 -240.5t-300 -90.5q-118 0 -199 34q-29 -44 -29 -90q0 -75 101 -75h301q325 0 325 -267q0 -169 -130 -266.5t-412 -97.5z
M469 -207q162 0 243 46.5t81 125.5q0 64 -38.5 92.5t-127.5 28.5h-348q-72 -59 -72 -139q0 -77 58 -115.5t204 -38.5zM502 539q99 0 154 54t55 148q0 96 -55 151.5t-154 55.5q-98 0 -152.5 -55.5t-54.5 -151.5q0 -94 54.5 -148t152.5 -54z" />
    <glyph glyph-name="Hcircumflex" unicode="&#x124;" horiz-adv-x="1486" 
d="M496 1507v60l153 213h195l149 -213v-60h-90l-162 142l-159 -142h-86zM33 0v131h86q23 0 43 22t20 44v1034q0 24 -20 45.5t-43 21.5h-86v136h569v-136h-182v-493h645v493h-182v136h571v-136h-86q-24 0 -44.5 -21.5t-20.5 -45.5v-1034q0 -23 20.5 -44.5t44.5 -21.5h86v-131
h-571v131h182v535h-645v-535h182v-131h-569z" />
    <glyph glyph-name="hcircumflex" unicode="&#x125;" horiz-adv-x="1236" 
d="M373 1477v59l153 213h195l149 -213v-59h-90l-162 141l-159 -141h-86zM385 809v-678h150v-131h-506v131h80q20 0 37.5 17.5t17.5 37.5v1055q0 19 -17.5 38t-37.5 19h-86v136h321q41 0 41 -56v-465q84 78 193.5 125t228.5 47q62 0 109.5 -12.5t87.5 -41t61.5 -82.5
t21.5 -130v-633q0 -21 17.5 -38t36.5 -17h67v-131h-489v131h147v614q0 95 -40.5 130.5t-127.5 35.5q-142 0 -313 -102z" />
    <glyph glyph-name="Hbar" unicode="&#x126;" horiz-adv-x="1486" 
d="M27 989v113h155v129q0 24 -20 45.5t-43 21.5h-86v136h569v-136h-182v-196h645v196h-182v136h571v-136h-86q-24 0 -44.5 -21.5t-20.5 -45.5v-129h157v-113h-157v-792q0 -23 20.5 -44.5t44.5 -21.5h86v-131h-571v131h182v535h-645v-535h182v-131h-569v131h86q23 0 43 22
t20 44v792h-155zM420 805h645v184h-645v-184z" />
    <glyph glyph-name="hbar" unicode="&#x127;" horiz-adv-x="1236" 
d="M674 1171h-289v-258q84 78 193.5 125t228.5 47q62 0 109.5 -12.5t87.5 -41t61.5 -82.5t21.5 -130v-633q0 -21 17.5 -38t36.5 -17h67v-131h-489v131h147v614q0 95 -40.5 130.5t-127.5 35.5q-142 0 -313 -102v-678h150v-131h-506v131h80q20 0 37.5 17.5t17.5 37.5v985h-137
v117h137v146h180q41 0 41 -56v-90h289v-117z" />
    <glyph glyph-name="Imacron" unicode="&#x12a;" horiz-adv-x="634" 
d="M33 0v131h102q24 0 44 21.5t20 44.5v1034q0 24 -20 45.5t-44 21.5h-102v136h569v-136h-102q-24 0 -44 -21.5t-20 -45.5v-1034q0 -23 20 -44.5t44 -21.5h102v-131h-569zM575 1712v-147h-516v147h516z" />
    <glyph glyph-name="imacron" unicode="&#x12b;" horiz-adv-x="548" 
d="M29 0v131h80q20 0 37.5 17.5t17.5 37.5v691q0 19 -16.5 38t-36.5 19h-91v139h324q22 0 31.5 -21t9.5 -73v-793q0 -21 17 -38t38 -17h80v-131h-491zM463 1366v-147h-455v147h455z" />
    <glyph glyph-name="Iogonek" unicode="&#x12e;" horiz-adv-x="634" 
d="M33 0v131h102q24 0 44 21.5t20 44.5v1034q0 24 -20 45.5t-44 21.5h-102v136h569v-136h-102q-24 0 -44 -21.5t-20 -45.5v-1034q0 -23 20 -44.5t44 -21.5h102v-131h-110q-50 -41 -74.5 -72.5t-24.5 -70.5q0 -66 80 -66h64v-98q-64 -31 -131 -31q-87 0 -138 40t-51 108
q0 64 42 111.5t101 78.5h-327z" />
    <glyph glyph-name="iogonek" unicode="&#x12f;" horiz-adv-x="548" 
d="M29 0v131h80q20 0 37.5 17.5t17.5 37.5v691q0 19 -16.5 38t-36.5 19h-91v139h324q22 0 31.5 -21t9.5 -73v-793q0 -21 17 -38t38 -17h80v-131h-80q-49 -40 -73.5 -72t-24.5 -71q0 -66 80 -66h63v-98q-64 -31 -131 -31q-87 0 -137.5 40t-50.5 108q0 64 42 111.5t101 78.5
h-280zM268 1186q-54 0 -90.5 36t-36.5 89t36.5 89t90.5 36q53 0 90 -36.5t37 -88.5t-37 -88.5t-90 -36.5z" />
    <glyph glyph-name="Idotaccent" unicode="&#x130;" horiz-adv-x="634" 
d="M33 0v131h102q24 0 44 21.5t20 44.5v1034q0 24 -20 45.5t-44 21.5h-102v136h569v-136h-102q-24 0 -44 -21.5t-20 -45.5v-1034q0 -23 20 -44.5t44 -21.5h102v-131h-569zM317 1532q-54 0 -90.5 36t-36.5 89t36.5 89t90.5 36t90.5 -36t36.5 -89t-36.5 -89t-90.5 -36z" />
    <glyph glyph-name="dotlessi" unicode="&#x131;" horiz-adv-x="548" 
d="M29 0v131h80q20 0 37.5 17.5t17.5 37.5v691q0 19 -16.5 38t-36.5 19h-91v139h324q22 0 31.5 -21t9.5 -73v-793q0 -21 17 -38t38 -17h80v-131h-491z" />
    <glyph glyph-name="Jcircumflex" unicode="&#x134;" horiz-adv-x="974" 
d="M412 1507v60l153 213h195l149 -213v-60h-90l-162 142l-159 -142h-86zM352 -14q-173 0 -323 73v172h131q64 -90 188 -90q101 0 148 51.5t47 153.5v885q0 24 -19 45.5t-43 21.5h-98v136h559v-136h-98q-23 0 -42.5 -21.5t-19.5 -45.5v-889q0 -181 -105 -268.5t-325 -87.5z
" />
    <glyph glyph-name="jcircumflex" unicode="&#x135;" horiz-adv-x="522" 
d="M100 -344q-91 0 -155 22v113h73q80 0 113 35.5t33 112.5v938q0 19 -16.5 38t-36.5 19h-91v139h324q22 0 31.5 -21t9.5 -73v-1051q0 -145 -71.5 -208.5t-213.5 -63.5zM8 1161v60l154 213h194l150 -213v-60h-90l-162 142l-160 -142h-86z" />
    <glyph glyph-name="Kcommaaccent" unicode="&#x136;" horiz-adv-x="1404" 
d="M635 -426v94q96 15 96 62q0 9 -5 16.5t-9 10.5t-16.5 10t-14.5 8q-43 24 -43 82q0 39 31.5 65.5t77.5 26.5q56 0 90.5 -33t34.5 -100q0 -114 -60 -172t-182 -70zM33 0v131h86q23 0 43 22t20 44v1034q0 24 -20 45.5t-43 21.5h-86v136h553v-136h-166v-632l493 522
q46 50 38.5 80t-62.5 30h-37v136h500v-136h-60q-45 0 -112 -67l-389 -389l434 -645q43 -66 92 -66h55v-131h-373v123l-372 555l-207 -209v-338h166v-131h-553z" />
    <glyph glyph-name="kcommaaccent" unicode="&#x137;" horiz-adv-x="1134" 
d="M526 -426v94q97 15 97 62q0 9 -5 16.5t-9 10.5t-16.5 10t-14.5 8q-43 24 -43 82q0 40 31 66t77 26q56 0 90.5 -33t34.5 -100q0 -114 -60 -172t-182 -70zM29 0v131h80q20 0 37.5 17.5t17.5 37.5v1055q0 19 -17.5 38t-37.5 19h-86v136h321q41 0 41 -56v-866l340 346
q23 25 16 50.5t-36 25.5h-50v139h445v-139h-53q-20 0 -46 -12t-45 -31l-266 -266l299 -430q45 -64 90 -64h31v-131h-246l-323 477l-156 -153v-193h135v-131h-491z" />
    <glyph glyph-name="Lacute" unicode="&#x139;" horiz-adv-x="1161" 
d="M242 1507l94 273h221v-80l-192 -193h-123zM33 0v131h86q23 0 43 22t20 44v1034q0 24 -20 45.5t-43 21.5h-86v136h594v-136h-207v-1155h522l23 301h161v-444h-1093z" />
    <glyph glyph-name="lacute" unicode="&#x13a;" horiz-adv-x="548" 
d="M164 1477l94 272h221v-80l-192 -192h-123zM29 0v131h77q22 0 40 17.5t18 37.5v1055q0 19 -18.5 38t-39.5 19h-83v136h321q41 0 41 -56v-1192q0 -21 17 -38t38 -17h80v-131h-491z" />
    <glyph glyph-name="Lcommaaccent" unicode="&#x13b;" horiz-adv-x="1161" 
d="M475 -426v94q96 15 96 62q0 9 -5 16.5t-9 10.5t-16.5 10t-14.5 8q-43 24 -43 82q0 39 31.5 65.5t77.5 26.5q56 0 90.5 -33t34.5 -100q0 -114 -60 -172t-182 -70zM33 0v131h86q23 0 43 22t20 44v1034q0 24 -20 45.5t-43 21.5h-86v136h594v-136h-207v-1155h522l23 301h161
v-444h-1093z" />
    <glyph glyph-name="lcommaaccent" unicode="&#x13c;" horiz-adv-x="548" 
d="M156 -426v94q96 15 96 62q0 9 -5 16.5t-9 10.5t-16.5 10t-14.5 8q-43 24 -43 82q0 40 31 66t77 26q56 0 90.5 -33t34.5 -100q0 -115 -60 -172.5t-181 -69.5zM29 0v131h77q22 0 40 17.5t18 37.5v1055q0 19 -18.5 38t-39.5 19h-83v136h321q41 0 41 -56v-1192q0 -21 17 -38
t38 -17h80v-131h-491z" />
    <glyph glyph-name="Lcaron" unicode="&#x13d;" horiz-adv-x="1161" 
d="M756 1139l28 295h183v-80l-93 -215h-118zM33 0v131h86q23 0 43 22t20 44v1034q0 24 -20 45.5t-43 21.5h-86v136h594v-136h-207v-1155h522l23 301h161v-444h-1093z" />
    <glyph glyph-name="lcaron" unicode="&#x13e;" horiz-adv-x="548" 
d="M438 1151l23 283h180v-80l-84 -203h-119zM29 0v131h77q22 0 40 17.5t18 37.5v1055q0 19 -18.5 38t-39.5 19h-83v136h321q41 0 41 -56v-1192q0 -21 17 -38t38 -17h80v-131h-491z" />
    <glyph glyph-name="Lslash" unicode="&#x141;" horiz-adv-x="1161" 
d="M29 453v145l153 64v569q0 24 -20 45.5t-43 21.5h-86v136h594v-136h-207v-538l409 170v-146l-409 -170v-471h522l23 301h161v-444h-1093v131h86q23 0 43 22t20 44v319z" />
    <glyph glyph-name="lslash" unicode="&#x142;" horiz-adv-x="548" 
d="M29 547v158l135 90v446q0 19 -18.5 38t-39.5 19h-83v136h321q41 0 41 -56v-434l135 90v-157l-135 -91v-600q0 -21 17 -38t38 -17h80v-131h-491v131h77q22 0 40 17.5t18 37.5v451z" />
    <glyph glyph-name="Nacute" unicode="&#x143;" horiz-adv-x="1454" 
d="M643 1507l94 273h221v-80l-192 -193h-123zM33 0v131h86q23 0 43 22t20 44v1034q0 24 -20 45.5t-43 21.5h-86v136h401l658 -1047h6v911h-180v136h505v-136h-84q-23 0 -42 -21.5t-19 -45.5v-1231h-205l-704 1114h-9v-983h185v-131h-512z" />
    <glyph glyph-name="nacute" unicode="&#x144;" horiz-adv-x="1236" 
d="M535 1161l94 273h221v-80l-193 -193h-122zM29 0v131h80q20 0 37.5 17.5t17.5 37.5v691q0 19 -17.5 38t-37.5 19h-89v139h314q54 0 51 -131v-29q84 78 193.5 125t228.5 47q62 0 109.5 -12.5t87.5 -41t61.5 -82.5t21.5 -130v-633q0 -21 17.5 -38t36.5 -17h67v-131h-489v131
h147v614q0 95 -40.5 130.5t-127.5 35.5q-142 0 -313 -102v-678h150v-131h-506z" />
    <glyph glyph-name="Ncommaaccent" unicode="&#x145;" horiz-adv-x="1454" 
d="M641 -426v94q96 15 96 62q0 9 -5 16.5t-9 10.5t-16.5 10t-14.5 8q-43 24 -43 82q0 39 31.5 65.5t77.5 26.5q56 0 90.5 -33t34.5 -100q0 -114 -60 -172t-182 -70zM33 0v131h86q23 0 43 22t20 44v1034q0 24 -20 45.5t-43 21.5h-86v136h401l658 -1047h6v911h-180v136h505
v-136h-84q-23 0 -42 -21.5t-19 -45.5v-1231h-205l-704 1114h-9v-983h185v-131h-512z" />
    <glyph glyph-name="ncommaaccent" unicode="&#x146;" horiz-adv-x="1236" 
d="M504 -426v94q96 15 96 62q0 9 -5 16.5t-9 10.5t-16.5 10t-14.5 8q-43 24 -43 82q0 39 31.5 65.5t77.5 26.5q56 0 90 -33t34 -100q0 -115 -60 -172.5t-181 -69.5zM29 0v131h80q20 0 37.5 17.5t17.5 37.5v691q0 19 -17.5 38t-37.5 19h-89v139h314q54 0 51 -131v-29
q84 78 193.5 125t228.5 47q62 0 109.5 -12.5t87.5 -41t61.5 -82.5t21.5 -130v-633q0 -21 17.5 -38t36.5 -17h67v-131h-489v131h147v614q0 95 -40.5 130.5t-127.5 35.5q-142 0 -313 -102v-678h150v-131h-506z" />
    <glyph glyph-name="Ncaron" unicode="&#x147;" horiz-adv-x="1454" 
d="M973 1780v-62l-156 -211h-192l-150 211v62h90l160 -142l162 142h86zM33 0v131h86q23 0 43 22t20 44v1034q0 24 -20 45.5t-43 21.5h-86v136h401l658 -1047h6v911h-180v136h505v-136h-84q-23 0 -42 -21.5t-19 -45.5v-1231h-205l-704 1114h-9v-983h185v-131h-512z" />
    <glyph glyph-name="ncaron" unicode="&#x148;" horiz-adv-x="1236" 
d="M860 1434v-62l-155 -211h-193l-150 211v62h91l159 -142l162 142h86zM29 0v131h80q20 0 37.5 17.5t17.5 37.5v691q0 19 -17.5 38t-37.5 19h-89v139h314q54 0 51 -131v-29q84 78 193.5 125t228.5 47q62 0 109.5 -12.5t87.5 -41t61.5 -82.5t21.5 -130v-633q0 -21 17.5 -38
t36.5 -17h67v-131h-489v131h147v614q0 95 -40.5 130.5t-127.5 35.5q-142 0 -313 -102v-678h150v-131h-506z" />
    <glyph glyph-name="Omacron" unicode="&#x14c;" horiz-adv-x="1484" 
d="M1001 1720v-147h-516v147h516zM743 -14q-141 0 -265 48.5t-218.5 139t-149.5 230.5t-55 313t55 313t149.5 230.5t218.5 139t265 48.5q140 0 264 -48.5t218.5 -139t149.5 -231t55 -312.5t-55 -312.5t-149.5 -231t-218.5 -139t-264 -48.5zM743 141q196 0 317.5 148.5
t121.5 423.5q0 277 -121.5 425t-317.5 148q-198 0 -319 -148t-121 -425q0 -276 121 -424t319 -148z" />
    <glyph glyph-name="omacron" unicode="&#x14d;" horiz-adv-x="1179" 
d="M840 1366v-147h-516v147h516zM590 -12q-154 0 -277.5 64t-196.5 189t-73 291q0 168 73 295t196.5 192.5t277.5 65.5q237 0 392 -150.5t155 -402.5q0 -166 -72.5 -291t-196 -189t-278.5 -64zM590 131q144 0 230.5 103.5t86.5 295.5q0 195 -86.5 300.5t-230.5 105.5
t-231 -106t-87 -300q0 -191 87 -295t231 -104z" />
    <glyph glyph-name="Ohungarumlaut" unicode="&#x150;" horiz-adv-x="1484" 
d="M518 1516l68 272h186v-80l-131 -192h-123zM815 1516l68 272h186v-80l-131 -192h-123zM743 -14q-141 0 -265 48.5t-218.5 139t-149.5 230.5t-55 313t55 313t149.5 230.5t218.5 139t265 48.5q140 0 264 -48.5t218.5 -139t149.5 -231t55 -312.5t-55 -312.5t-149.5 -231
t-218.5 -139t-264 -48.5zM743 141q196 0 317.5 148.5t121.5 423.5q0 277 -121.5 425t-317.5 148q-198 0 -319 -148t-121 -425q0 -276 121 -424t319 -148z" />
    <glyph glyph-name="ohungarumlaut" unicode="&#x151;" horiz-adv-x="1179" 
d="M360 1161l68 273h186v-80l-131 -193h-123zM657 1161l68 273h186v-80l-131 -193h-123zM590 -12q-154 0 -277.5 64t-196.5 189t-73 291q0 168 73 295t196.5 192.5t277.5 65.5q237 0 392 -150.5t155 -402.5q0 -166 -72.5 -291t-196 -189t-278.5 -64zM590 131
q144 0 230.5 103.5t86.5 295.5q0 195 -86.5 300.5t-230.5 105.5t-231 -106t-87 -300q0 -191 87 -295t231 -104z" />
    <glyph glyph-name="OE" unicode="&#x152;" horiz-adv-x="1959" 
d="M801 0q-367 0 -556.5 173t-189.5 540q0 363 192.5 542t559.5 179h1087v-381h-149l-25 235h-532v-485h262l16 170h144v-481h-144l-16 170h-262v-519h551l24 263h154v-406h-1116zM952 1288h-145q-261 0 -383.5 -135.5t-122.5 -439.5q0 -303 122 -436.5t384 -133.5h145v1145
z" />
    <glyph glyph-name="oe" unicode="&#x153;" horiz-adv-x="1921" 
d="M580 -12q-235 0 -386 147t-151 397q0 253 151 403t386 150q144 0 254 -61t172 -172q58 112 160.5 172.5t244.5 60.5q469 0 469 -516q0 -47 -2 -67h-754q6 -188 87 -280.5t241 -92.5q101 0 162.5 32t105.5 89h127v-152q-75 -50 -170 -80t-241 -30q-319 0 -435 225
q-62 -108 -170.5 -166.5t-250.5 -58.5zM582 131q145 0 230 103.5t85 295.5q0 195 -85.5 300.5t-229.5 105.5q-143 0 -226.5 -105t-83.5 -301q0 -192 83.5 -295.5t226.5 -103.5zM1411 948q-122 0 -194 -78.5t-87 -234.5h527q-4 167 -64.5 240t-181.5 73z" />
    <glyph glyph-name="Racute" unicode="&#x154;" horiz-adv-x="1337" 
d="M518 1507l94 273h222v-80l-193 -193h-123zM33 0v131h86q23 0 43 22t20 44v1034q0 24 -20 45.5t-43 21.5h-86v136h585q257 0 400 -96.5t143 -299.5q0 -147 -83 -227t-238 -109v-6q78 -17 127 -45.5t90 -94.5t71 -179l52 -191q7 -26 24.5 -40.5t34.5 -14.5h70v-131h-336
l-80 387q-29 138 -92.5 189t-202.5 51h-178v-496h182v-131h-569zM420 768h194q163 0 233.5 61.5t70.5 194.5q0 137 -72.5 201.5t-231.5 64.5h-194v-522z" />
    <glyph glyph-name="racute" unicode="&#x155;" horiz-adv-x="800" 
d="M346 1161l94 273h222v-80l-193 -193h-123zM29 0v131h80q20 0 37.5 17.5t17.5 37.5v691q0 19 -17.5 38t-37.5 19h-89v139h314q26 0 38.5 -30.5t12.5 -112.5v-35q68 86 143 136t177 50q29 0 61 -8v-182h-43q-118 0 -196.5 -27t-141.5 -82v-651h170v-131h-526z" />
    <glyph glyph-name="Rcommaaccent" unicode="&#x156;" horiz-adv-x="1337" 
d="M569 -426v94q97 15 97 62q0 9 -5 16.5t-9 10.5t-16.5 10t-14.5 8q-43 24 -43 82q0 40 31 66t77 26q56 0 90.5 -33t34.5 -100q0 -114 -60 -172t-182 -70zM33 0v131h86q23 0 43 22t20 44v1034q0 24 -20 45.5t-43 21.5h-86v136h585q257 0 400 -96.5t143 -299.5
q0 -147 -83 -227t-238 -109v-6q78 -17 127 -45.5t90 -94.5t71 -179l52 -191q7 -26 24.5 -40.5t34.5 -14.5h70v-131h-336l-80 387q-29 138 -92.5 189t-202.5 51h-178v-496h182v-131h-569zM420 768h194q163 0 233.5 61.5t70.5 194.5q0 137 -72.5 201.5t-231.5 64.5h-194v-522z
" />
    <glyph glyph-name="rcommaaccent" unicode="&#x157;" horiz-adv-x="800" 
d="M152 -426v94q96 15 96 62q0 9 -5 16.5t-9 10.5t-16.5 10t-14.5 8q-43 24 -43 82q0 40 31 66t77 26q56 0 90.5 -33t34.5 -100q0 -115 -60 -172.5t-181 -69.5zM29 0v131h80q20 0 37.5 17.5t17.5 37.5v691q0 19 -17.5 38t-37.5 19h-89v139h314q26 0 38.5 -30.5t12.5 -112.5
v-35q68 86 143 136t177 50q29 0 61 -8v-182h-43q-118 0 -196.5 -27t-141.5 -82v-651h170v-131h-526z" />
    <glyph glyph-name="Rcaron" unicode="&#x158;" horiz-adv-x="1337" 
d="M846 1780v-62l-156 -211h-192l-150 211v62h90l160 -142l162 142h86zM33 0v131h86q23 0 43 22t20 44v1034q0 24 -20 45.5t-43 21.5h-86v136h585q257 0 400 -96.5t143 -299.5q0 -147 -83 -227t-238 -109v-6q78 -17 127 -45.5t90 -94.5t71 -179l52 -191q7 -26 24.5 -40.5
t34.5 -14.5h70v-131h-336l-80 387q-29 138 -92.5 189t-202.5 51h-178v-496h182v-131h-569zM420 768h194q163 0 233.5 61.5t70.5 194.5q0 137 -72.5 201.5t-231.5 64.5h-194v-522z" />
    <glyph glyph-name="rcaron" unicode="&#x159;" horiz-adv-x="800" 
d="M672 1434v-62l-156 -211h-192l-150 211v62h90l160 -142l162 142h86zM29 0v131h80q20 0 37.5 17.5t17.5 37.5v691q0 19 -17.5 38t-37.5 19h-89v139h314q26 0 38.5 -30.5t12.5 -112.5v-35q68 86 143 136t177 50q29 0 61 -8v-182h-43q-118 0 -196.5 -27t-141.5 -82v-651h170
v-131h-526z" />
    <glyph glyph-name="Sacute" unicode="&#x15a;" horiz-adv-x="1067" 
d="M469 1516l94 272h221v-80l-192 -192h-123zM530 -14q-180 0 -299 67q-23 0 -30 -53h-156v418h162l20 -174q58 -57 124 -83t175 -26q127 0 200 59.5t73 174.5q0 65 -18 108.5t-70 73t-88.5 42t-129.5 37.5q-10 3 -15.5 4.5t-14.5 4t-17 4.5q-98 27 -165.5 60.5t-116.5 83
t-71.5 116.5t-22.5 158q0 188 124.5 287.5t329.5 99.5q66 0 124.5 -12.5t78.5 -21t55 -25.5q10 0 19.5 14.5t11.5 30.5h150v-379h-158l-21 143q-47 45 -106.5 71.5t-153.5 26.5q-252 0 -252 -213q0 -40 9 -70.5t30 -53.5t43.5 -39t62 -31t73 -25t87.5 -24q15 -4 23 -6
q110 -30 181.5 -61.5t127 -80t80.5 -117.5t25 -167q0 -206 -124 -314t-360 -108z" />
    <glyph glyph-name="sacute" unicode="&#x15b;" horiz-adv-x="899" 
d="M381 1161l94 273h221v-80l-192 -193h-123zM416 -12q-220 0 -373 61v223h133q19 -75 75 -108t163 -33q113 0 174 41t61 123q0 72 -55 103.5t-199 54.5q-176 26 -256 94t-80 221q0 150 108.5 233.5t301.5 83.5q209 0 352 -53v-213h-129q-18 62 -70 90.5t-161 28.5
q-98 0 -153.5 -37.5t-55.5 -103.5q0 -70 51.5 -102t192.5 -54q195 -29 277.5 -95.5t82.5 -219.5q0 -158 -111.5 -248t-328.5 -90z" />
    <glyph glyph-name="Scircumflex" unicode="&#x15c;" horiz-adv-x="1067" 
d="M291 1516v59l153 213h195l149 -213v-59h-90l-161 141l-160 -141h-86zM530 -14q-180 0 -299 67q-23 0 -30 -53h-156v418h162l20 -174q58 -57 124 -83t175 -26q127 0 200 59.5t73 174.5q0 65 -18 108.5t-70 73t-88.5 42t-129.5 37.5q-10 3 -15.5 4.5t-14.5 4t-17 4.5
q-98 27 -165.5 60.5t-116.5 83t-71.5 116.5t-22.5 158q0 188 124.5 287.5t329.5 99.5q66 0 124.5 -12.5t78.5 -21t55 -25.5q10 0 19.5 14.5t11.5 30.5h150v-379h-158l-21 143q-47 45 -106.5 71.5t-153.5 26.5q-252 0 -252 -213q0 -40 9 -70.5t30 -53.5t43.5 -39t62 -31
t73 -25t87.5 -24q15 -4 23 -6q110 -30 181.5 -61.5t127 -80t80.5 -117.5t25 -167q0 -206 -124 -314t-360 -108z" />
    <glyph glyph-name="scircumflex" unicode="&#x15d;" horiz-adv-x="899" 
d="M207 1161v60l153 213h195l150 -213v-60h-91l-161 142l-160 -142h-86zM416 -12q-220 0 -373 61v223h133q19 -75 75 -108t163 -33q113 0 175 41t62 123q0 72 -56 103.5t-200 54.5q-176 26 -256 94t-80 221q0 150 108.5 233.5t301.5 83.5q209 0 352 -53v-213h-129
q-18 62 -70 90.5t-161 28.5q-98 0 -153.5 -37.5t-55.5 -103.5q0 -70 51.5 -102t192.5 -54q195 -29 277.5 -95.5t82.5 -219.5q0 -158 -111.5 -248t-328.5 -90z" />
    <glyph glyph-name="Scedilla" unicode="&#x15e;" horiz-adv-x="1067" 
d="M512 -358q-79 0 -160 34v99h60q26 -33 80 -33q73 0 73 55q0 58 -94 58h-37v137q-118 12 -203 61q-23 0 -30 -53h-156v418h162l20 -174q58 -57 124 -83t175 -26q127 0 200 59.5t73 174.5q0 65 -18 108.5t-70 73t-88.5 42t-129.5 37.5q-10 3 -15.5 4.5t-14.5 4t-17 4.5
q-98 27 -165.5 60.5t-116.5 83t-71.5 116.5t-22.5 158q0 188 124.5 287.5t329.5 99.5q66 0 124.5 -12.5t78.5 -21t55 -25.5q10 0 19.5 14.5t11.5 30.5h150v-379h-158l-21 143q-47 45 -106.5 71.5t-153.5 26.5q-252 0 -252 -213q0 -40 9 -70.5t30 -53.5t43.5 -39t62 -31
t73 -25t87.5 -24q15 -4 23 -6q110 -30 181.5 -61.5t127 -80t80.5 -117.5t25 -167q0 -204 -121.5 -312.5t-353.5 -109.5v-49q172 -6 172 -146q0 -70 -53 -109.5t-146 -39.5z" />
    <glyph glyph-name="scedilla" unicode="&#x15f;" horiz-adv-x="899" 
d="M430 -358q-79 0 -160 34v99h60q26 -33 80 -33q73 0 73 55q0 58 -94 58h-37v135q-178 7 -309 59v223h133q19 -75 75 -108t163 -33q113 0 175 41t62 123q0 72 -56 103.5t-200 54.5q-176 26 -256 94t-80 221q0 150 108.5 233.5t301.5 83.5q209 0 352 -53v-213h-129
q-18 62 -70 90.5t-161 28.5q-98 0 -153.5 -37.5t-55.5 -103.5q0 -70 51.5 -102t192.5 -54q195 -29 277.5 -95.5t82.5 -219.5q0 -150 -101.5 -239.5t-297.5 -96.5v-53q172 -6 172 -146q0 -70 -53 -109.5t-146 -39.5z" />
    <glyph glyph-name="Scaron" unicode="&#x160;" horiz-adv-x="1067" 
d="M780 1788v-62l-155 -210h-193l-149 210v62h90l159 -141l162 141h86zM530 -14q-180 0 -299 67q-23 0 -30 -53h-156v418h162l20 -174q58 -57 124 -83t175 -26q127 0 200 59.5t73 174.5q0 65 -18 108.5t-70 73t-88.5 42t-129.5 37.5q-10 3 -15.5 4.5t-14.5 4t-17 4.5
q-98 27 -165.5 60.5t-116.5 83t-71.5 116.5t-22.5 158q0 188 124.5 287.5t329.5 99.5q66 0 124.5 -12.5t78.5 -21t55 -25.5q10 0 19.5 14.5t11.5 30.5h150v-379h-158l-21 143q-47 45 -106.5 71.5t-153.5 26.5q-252 0 -252 -213q0 -40 9 -70.5t30 -53.5t43.5 -39t62 -31
t73 -25t87.5 -24q15 -4 23 -6q110 -30 181.5 -61.5t127 -80t80.5 -117.5t25 -167q0 -206 -124 -314t-360 -108z" />
    <glyph glyph-name="scaron" unicode="&#x161;" horiz-adv-x="899" 
d="M707 1434v-62l-156 -211h-193l-149 211v62h90l160 -142l162 142h86zM416 -12q-220 0 -373 61v223h133q19 -75 75 -108t163 -33q113 0 175 41t62 123q0 72 -56 103.5t-200 54.5q-176 26 -256 94t-80 221q0 150 108.5 233.5t301.5 83.5q209 0 352 -53v-213h-129
q-18 62 -70 90.5t-161 28.5q-98 0 -153.5 -37.5t-55.5 -103.5q0 -70 51.5 -102t192.5 -54q195 -29 277.5 -95.5t82.5 -219.5q0 -158 -111.5 -248t-328.5 -90z" />
    <glyph glyph-name="Tcommaaccent" unicode="&#x162;" horiz-adv-x="1298" 
d="M528 -426v94q97 15 97 62q0 9 -5 16.5t-9 10.5t-16.5 10t-14.5 8q-43 24 -43 82q0 40 31 66t77 26q56 0 90.5 -33t34.5 -100q0 -114 -60 -172t-182 -70zM369 0v131h98q24 0 43.5 21.5t19.5 44.5v1095h-307l-20 -303h-154v445h1200v-445h-153l-21 303h-307v-1095
q0 -23 19.5 -44.5t43.5 -21.5h99v-131h-561z" />
    <glyph glyph-name="tcommaaccent" unicode="&#x163;" horiz-adv-x="667" 
d="M270 -426v94q97 15 97 62q0 9 -5 16.5t-9 10.5t-16.5 10t-14.5 8q-43 24 -43 82q0 40 31 66t77 26q56 0 90.5 -33t34.5 -100q0 -114 -60 -172t-182 -70zM459 -14q-150 0 -225.5 61.5t-75.5 206.5v680h-138v139h138v289h221v-289h244v-139h-244v-655q0 -88 32.5 -118
t116.5 -30h109v-119q-72 -26 -178 -26z" />
    <glyph glyph-name="Tcaron" unicode="&#x164;" horiz-adv-x="1298" 
d="M899 1780v-62l-156 -211h-192l-150 211v62h91l159 -142l162 142h86zM369 0v131h98q24 0 43.5 21.5t19.5 44.5v1095h-307l-20 -303h-154v445h1200v-445h-153l-21 303h-307v-1095q0 -23 19.5 -44.5t43.5 -21.5h99v-131h-561z" />
    <glyph glyph-name="tcaron" unicode="&#x165;" horiz-adv-x="667" 
d="M457 1151l22 283h180v-80l-84 -203h-118zM459 -14q-150 0 -225.5 61.5t-75.5 206.5v680h-138v139h138v289h221v-289h244v-139h-244v-655q0 -88 32.5 -118t116.5 -30h109v-119q-72 -26 -178 -26z" />
    <glyph glyph-name="Umacron" unicode="&#x16a;" horiz-adv-x="1464" 
d="M739 -14q-269 0 -414 133t-145 401v711q0 24 -20 45.5t-45 21.5h-82v136h563v-136h-180v-790q0 -105 24.5 -176.5t72.5 -110.5t108 -55t143 -16q82 0 141.5 16t107.5 54.5t72.5 110.5t24.5 177v790h-180v136h502v-136h-82q-23 0 -43.5 -22t-20.5 -45v-711
q0 -271 -137 -402.5t-410 -131.5zM1024 1712v-147h-516v147h516z" />
    <glyph glyph-name="umacron" unicode="&#x16b;" horiz-adv-x="1243" 
d="M442 -14q-60 0 -108.5 13t-90 42t-64.5 82.5t-23 128.5v627q0 20 -18 37.5t-38 17.5h-80v139h357v-751q0 -98 44.5 -136.5t127.5 -38.5q144 0 305 107v680h-154v139h375v-885q0 -20 18.5 -38.5t39.5 -18.5h81v-131h-309q-24 0 -36.5 27.5t-12.5 97.5v27
q-188 -166 -414 -166zM827 1366v-147h-516v147h516z" />
    <glyph glyph-name="Ubreve" unicode="&#x16c;" horiz-adv-x="1464" 
d="M739 -14q-269 0 -414 133t-145 401v711q0 24 -20 45.5t-45 21.5h-82v136h563v-136h-180v-790q0 -105 24.5 -176.5t72.5 -110.5t108 -55t143 -16q82 0 141.5 16t107.5 54.5t72.5 110.5t24.5 177v790h-180v136h502v-136h-82q-23 0 -43.5 -22t-20.5 -45v-711
q0 -271 -137 -402.5t-410 -131.5zM766 1509q-104 0 -168.5 52t-91.5 129v77h131q9 -53 42 -81.5t87 -28.5q110 0 129 110h131v-77q-27 -77 -91.5 -129t-168.5 -52z" />
    <glyph glyph-name="ubreve" unicode="&#x16d;" horiz-adv-x="1243" 
d="M442 -14q-60 0 -108.5 13t-90 42t-64.5 82.5t-23 128.5v627q0 20 -18 37.5t-38 17.5h-80v139h357v-751q0 -98 44.5 -136.5t127.5 -38.5q144 0 305 107v680h-154v139h375v-885q0 -20 18.5 -38.5t39.5 -18.5h81v-131h-309q-24 0 -36.5 27.5t-12.5 97.5v27
q-188 -166 -414 -166zM569 1163q-104 0 -169 51.5t-91 128.5v78h131q9 -53 42 -81.5t87 -28.5q110 0 129 110h131v-78q-26 -77 -91 -128.5t-169 -51.5z" />
    <glyph glyph-name="Uring" unicode="&#x16e;" horiz-adv-x="1464" 
d="M768 1479q-85 0 -144 54t-59 142t59 142.5t144 54.5t144 -54.5t59 -142.5t-59 -142t-144 -54zM768 1569q45 0 74.5 29t29.5 77q0 50 -29.5 79.5t-74.5 29.5t-73.5 -29.5t-28.5 -79.5q0 -49 28.5 -77.5t73.5 -28.5zM739 -14q-269 0 -414 133t-145 401v711q0 24 -20 45.5
t-45 21.5h-82v136h563v-136h-180v-790q0 -105 24.5 -176.5t72.5 -110.5t108 -55t143 -16q82 0 141.5 16t107.5 54.5t72.5 110.5t24.5 177v790h-180v136h502v-136h-82q-23 0 -43.5 -22t-20.5 -45v-711q0 -271 -137 -402.5t-410 -131.5z" />
    <glyph glyph-name="uring" unicode="&#x16f;" horiz-adv-x="1243" 
d="M569 1165q-84 0 -143 54.5t-59 142.5t59 142.5t143 54.5q85 0 144 -54.5t59 -142.5t-59 -142.5t-144 -54.5zM569 1255q45 0 75 29.5t30 77.5q0 50 -29.5 79t-75.5 29q-45 0 -73.5 -29t-28.5 -79q0 -49 28.5 -78t73.5 -29zM442 -14q-60 0 -108.5 13t-90 42t-64.5 82.5
t-23 128.5v627q0 20 -18 37.5t-38 17.5h-80v139h357v-751q0 -98 44.5 -136.5t127.5 -38.5q144 0 305 107v680h-154v139h375v-885q0 -20 18.5 -38.5t39.5 -18.5h81v-131h-309q-24 0 -36.5 27.5t-12.5 97.5v27q-188 -166 -414 -166z" />
    <glyph glyph-name="Uhungarumlaut" unicode="&#x170;" horiz-adv-x="1464" 
d="M739 -14q-269 0 -414 133t-145 401v711q0 24 -20 45.5t-45 21.5h-82v136h563v-136h-180v-790q0 -105 24.5 -176.5t72.5 -110.5t108 -55t143 -16q82 0 141.5 16t107.5 54.5t72.5 110.5t24.5 177v790h-180v136h502v-136h-82q-23 0 -43.5 -22t-20.5 -45v-711
q0 -271 -137 -402.5t-410 -131.5zM543 1507l67 273h187v-80l-131 -193h-123zM840 1507l67 273h187v-80l-131 -193h-123z" />
    <glyph glyph-name="uhungarumlaut" unicode="&#x171;" horiz-adv-x="1243" 
d="M442 -14q-60 0 -108.5 13t-90 42t-64.5 82.5t-23 128.5v627q0 20 -18 37.5t-38 17.5h-80v139h357v-751q0 -98 44.5 -136.5t127.5 -38.5q144 0 305 107v680h-154v139h375v-885q0 -20 18.5 -38.5t39.5 -18.5h81v-131h-309q-24 0 -36.5 27.5t-12.5 97.5v27
q-188 -166 -414 -166zM348 1161l68 273h186v-80l-131 -193h-123zM645 1161l68 273h186v-80l-131 -193h-123z" />
    <glyph glyph-name="Uogonek" unicode="&#x172;" horiz-adv-x="1464" 
d="M739 -14q-269 0 -414 133t-145 401v711q0 24 -20 45.5t-45 21.5h-82v136h563v-136h-180v-790q0 -105 24.5 -176.5t72.5 -110.5t108 -55t143 -16q82 0 141.5 16t107.5 54.5t72.5 110.5t24.5 177v790h-180v136h502v-136h-82q-23 0 -43.5 -22t-20.5 -45v-711
q0 -204 -77 -324.5t-238 -179.5q-77 -28 -119.5 -65t-42.5 -94q0 -66 80 -66h63v-98q-64 -31 -131 -31q-87 0 -137.5 40t-50.5 108q0 104 117 176h-11z" />
    <glyph glyph-name="uogonek" unicode="&#x173;" horiz-adv-x="1243" 
d="M1077 -338q-87 0 -137.5 40t-50.5 108q0 64 42 111.5t101 78.5h-127q-24 0 -36.5 27.5t-12.5 97.5v27q-188 -166 -414 -166q-60 0 -108.5 13t-90 42t-64.5 82.5t-23 128.5v627q0 20 -18 37.5t-38 17.5h-80v139h357v-751q0 -98 44.5 -136.5t127.5 -38.5q144 0 305 107v680
h-154v139h375v-885q0 -20 18.5 -38.5t39.5 -18.5h81v-131h-51q-49 -40 -73.5 -72t-24.5 -71q0 -66 80 -66h63v-98q-64 -31 -131 -31z" />
    <glyph glyph-name="Ydieresis" unicode="&#x178;" horiz-adv-x="1349" 
d="M401 0v131h99q24 0 43.5 21.5t19.5 44.5v397l-401 643q-40 61 -88 61h-43v136h532v-136h-168l322 -528h4l237 393q36 65 17 100t-82 35h-66v136h492v-136h-39q-50 0 -92 -65l-387 -631v-405q0 -23 19.5 -44.5t43.5 -21.5h99v-131h-562zM518 1501q-51 0 -86 34.5t-35 84.5
t35 84.5t86 34.5t86 -34.5t35 -84.5t-35 -84.5t-86 -34.5zM870 1501q-51 0 -85.5 34.5t-34.5 84.5t34.5 84.5t85.5 34.5t86 -34.5t35 -84.5t-35 -84.5t-86 -34.5z" />
    <glyph glyph-name="Zacute" unicode="&#x179;" horiz-adv-x="1132" 
d="M506 1507l94 273h221v-80l-192 -193h-123zM33 0v162l815 1120v6h-586l-26 -233h-148v379h1012v-166l-815 -1121v-4h626l25 258h154v-401h-1057z" />
    <glyph glyph-name="zacute" unicode="&#x17a;" horiz-adv-x="987" 
d="M426 1161l94 273h221v-80l-192 -193h-123zM33 0v150l661 778h-465l-22 -191h-133v336h876v-153l-663 -777h483l21 191h139v-334h-897z" />
    <glyph glyph-name="Zdotaccent" unicode="&#x17b;" horiz-adv-x="1132" 
d="M33 0v162l815 1120v6h-586l-26 -233h-148v379h1012v-166l-815 -1121v-4h626l25 258h154v-401h-1057zM580 1532q-54 0 -90.5 36t-36.5 89t36.5 89t90.5 36t90.5 -36t36.5 -89t-36.5 -89t-90.5 -36z" />
    <glyph glyph-name="zdotaccent" unicode="&#x17c;" horiz-adv-x="987" 
d="M33 0v150l661 778h-465l-22 -191h-133v336h876v-153l-663 -777h483l21 191h139v-334h-897zM502 1186q-54 0 -90.5 36t-36.5 89t36.5 89t90.5 36t90.5 -36t36.5 -89t-36.5 -89t-90.5 -36z" />
    <glyph glyph-name="Zcaron" unicode="&#x17d;" horiz-adv-x="1132" 
d="M834 1780v-62l-156 -211h-193l-149 211v62h90l160 -142l162 142h86zM33 0v162l815 1120v6h-586l-26 -233h-148v379h1012v-166l-815 -1121v-4h626l25 258h154v-401h-1057z" />
    <glyph glyph-name="zcaron" unicode="&#x17e;" horiz-adv-x="987" 
d="M752 1434v-62l-156 -211h-193l-149 211v62h90l160 -142l162 142h86zM33 0v150l661 778h-465l-22 -191h-133v336h876v-153l-663 -777h483l21 191h139v-334h-897z" />
    <glyph glyph-name="florin" unicode="&#x192;" horiz-adv-x="739" 
d="M66 743v152h147l33 272q34 283 319 283q85 0 158 -29v-123h-94q-69 0 -108 -32t-48 -107l-33 -264h205v-152h-223l-76 -647q-28 -222 -223 -291h-109v129q30 16 49.5 32.5t36 53t23.5 91.5l74 632h-131z" />
    <glyph glyph-name="Scommaaccent" unicode="&#x218;" horiz-adv-x="1067" 
d="M395 -426v94q97 15 97 62q0 9 -5 16.5t-9.5 10.5t-16.5 9.5t-15 8.5q-43 24 -43 82q0 39 31.5 65.5t77.5 26.5q56 0 90.5 -33t34.5 -100q0 -114 -60 -172t-182 -70zM530 -14q-180 0 -299 67q-23 0 -30 -53h-156v418h162l20 -174q58 -57 124 -83t175 -26q127 0 200 59.5
t73 174.5q0 65 -18 108.5t-70 73t-88.5 42t-129.5 37.5q-10 3 -15.5 4.5t-14.5 4t-17 4.5q-98 27 -165.5 60.5t-116.5 83t-71.5 116.5t-22.5 158q0 188 124.5 287.5t329.5 99.5q66 0 124.5 -12.5t78.5 -21t55 -25.5q10 0 19.5 14.5t11.5 30.5h150v-379h-158l-21 143
q-47 45 -106.5 71.5t-153.5 26.5q-252 0 -252 -213q0 -40 9 -70.5t30 -53.5t43.5 -39t62 -31t73 -25t87.5 -24q15 -4 23 -6q110 -30 181.5 -61.5t127 -80t80.5 -117.5t25 -167q0 -206 -124 -314t-360 -108z" />
    <glyph glyph-name="scommaaccent" unicode="&#x219;" horiz-adv-x="899" 
d="M326 -426v94q96 15 96 62q0 9 -5 16.5t-9 10.5t-16.5 10t-14.5 8q-43 24 -43 82q0 40 31 66t77 26q56 0 90.5 -33t34.5 -100q0 -115 -60 -172.5t-181 -69.5zM416 -12q-220 0 -373 61v223h133q19 -75 75 -108t163 -33q113 0 175 41t62 123q0 72 -56 103.5t-200 54.5
q-176 26 -256 94t-80 221q0 150 108.5 233.5t301.5 83.5q209 0 352 -53v-213h-129q-18 62 -70 90.5t-161 28.5q-98 0 -153.5 -37.5t-55.5 -103.5q0 -70 51.5 -102t192.5 -54q195 -29 277.5 -95.5t82.5 -219.5q0 -158 -111.5 -248t-328.5 -90z" />
    <glyph glyph-name="uni0237" unicode="&#x237;" horiz-adv-x="522" 
d="M100 -344q-91 0 -155 22v113h73q80 0 113 35.5t33 112.5v938q0 19 -16.5 38t-36.5 19h-91v139h324q22 0 31.5 -21t9.5 -73v-1051q0 -145 -71.5 -208.5t-213.5 -63.5z" />
    <glyph glyph-name="circumflex" unicode="&#x2c6;" horiz-adv-x="819" 
d="M160 1161v60l153 213h195l149 -213v-60h-90l-161 142l-160 -142h-86z" />
    <glyph glyph-name="caron" unicode="&#x2c7;" horiz-adv-x="819" 
d="M659 1434v-62l-155 -211h-193l-149 211v62h90l160 -142l161 142h86z" />
    <glyph glyph-name="breve" unicode="&#x2d8;" horiz-adv-x="819" 
d="M410 1163q-104 0 -169 51.5t-91 128.5v78h131q9 -53 42 -81.5t87 -28.5q110 0 129 110h131v-78q-26 -77 -91 -128.5t-169 -51.5z" />
    <glyph glyph-name="dotaccent" unicode="&#x2d9;" horiz-adv-x="819" 
d="M410 1186q-54 0 -90.5 36t-36.5 89t36.5 89t90.5 36t90.5 -36t36.5 -89t-36.5 -89t-90.5 -36z" />
    <glyph glyph-name="ring" unicode="&#x2da;" horiz-adv-x="819" 
d="M410 1165q-85 0 -144 54.5t-59 142.5t59 142.5t144 54.5q84 0 143 -54.5t59 -142.5t-59 -142.5t-143 -54.5zM410 1255q45 0 74.5 29t29.5 78q0 50 -29.5 79t-74.5 29t-74 -29t-29 -79q0 -49 29 -78t74 -29z" />
    <glyph glyph-name="ogonek" unicode="&#x2db;" horiz-adv-x="819" 
d="M467 -338q-87 0 -137.5 40t-50.5 108q0 64 42 111.5t101 78.5h131q-49 -40 -73.5 -72t-24.5 -71q0 -66 80 -66h63v-98q-64 -31 -131 -31z" />
    <glyph glyph-name="tilde" unicode="&#x2dc;" horiz-adv-x="819" 
d="M90 1174v112q60 119 184 119q51 0 144 -33t119 -33q66 0 86 74h106v-115q-58 -118 -184 -118q-51 0 -143.5 35.5t-118.5 35.5q-66 0 -86 -77h-107z" />
    <glyph glyph-name="hungarumlaut" unicode="&#x2dd;" horiz-adv-x="819" 
d="M188 1161l68 273h186v-80l-131 -193h-123zM485 1161l68 273h186v-80l-131 -193h-123z" />
    <glyph glyph-name="uni2009" unicode="&#x2009;" horiz-adv-x="202" 
 />
    <glyph glyph-name="endash" unicode="&#x2013;" horiz-adv-x="833" 
d="M55 508v151h721v-151h-721z" />
    <glyph glyph-name="emdash" unicode="&#x2014;" horiz-adv-x="1359" 
d="M55 508v151h1248v-151h-1248z" />
    <glyph glyph-name="quoteleft" unicode="&#x2018;" horiz-adv-x="337" 
d="M303 1440v-101q-52 -7 -80 -28t-28 -51q0 -15 5.5 -23t24.5 -18t23 -13q47 -30 47 -96q0 -44 -35 -75t-86 -31q-58 0 -96.5 39.5t-38.5 113.5q0 255 264 283z" />
    <glyph glyph-name="quoteright" unicode="&#x2019;" horiz-adv-x="337" 
d="M35 1010v100q51 7 78.5 28.5t27.5 51.5q0 14 -5.5 22t-23 18t-22.5 13q-47 30 -47 94q0 46 34 77.5t85 31.5q58 0 97.5 -40t39.5 -114q0 -255 -264 -282z" />
    <glyph glyph-name="quotesinglbase" unicode="&#x201a;" horiz-adv-x="337" 
d="M35 -180v98q51 7 78.5 28.5t27.5 51.5q0 15 -6 23t-22.5 17t-22.5 13q-47 30 -47 96q0 46 34 76.5t85 30.5q58 0 97.5 -39.5t39.5 -114.5q0 -253 -264 -280z" />
    <glyph glyph-name="quotedblleft" unicode="&#x201c;" horiz-adv-x="653" 
d="M301 1440v-101q-52 -7 -79 -28t-27 -51q0 -15 5.5 -23t24.5 -18t23 -13q47 -30 47 -96q0 -44 -35 -75t-86 -31q-58 0 -96.5 39.5t-38.5 113.5q0 256 262 283zM618 1440v-101q-53 -7 -81.5 -28t-28.5 -51q0 -15 5.5 -23t24.5 -18t23 -13q47 -30 47 -96q0 -44 -35 -75
t-86 -31q-58 0 -96.5 39.5t-38.5 113.5q0 255 266 283z" />
    <glyph glyph-name="quotedblright" unicode="&#x201d;" horiz-adv-x="653" 
d="M350 1010v100q52 7 79.5 28.5t27.5 51.5q0 11 -5 19t-10 12t-17.5 11t-18.5 11q-48 31 -48 94q0 46 34 77.5t85 31.5q58 0 97.5 -40t39.5 -114q0 -255 -264 -282zM35 1010v100q51 7 78.5 28.5t27.5 51.5q0 14 -5.5 22t-23 18t-22.5 13q-47 30 -47 94q0 46 34 77.5
t85 31.5q58 0 97.5 -40t39.5 -114q0 -255 -264 -282z" />
    <glyph glyph-name="quotedblbase" unicode="&#x201e;" horiz-adv-x="653" 
d="M350 -180v98q52 7 79.5 28.5t27.5 51.5q0 12 -4.5 20t-10 12t-17.5 10.5t-19 10.5q-48 31 -48 96q0 46 34 76.5t85 30.5q58 0 97.5 -39.5t39.5 -114.5q0 -253 -264 -280zM35 -180v98q51 7 78.5 28.5t27.5 51.5q0 15 -6 23t-22.5 17t-22.5 13q-47 30 -47 96q0 46 34 76.5
t85 30.5q58 0 97.5 -39.5t39.5 -114.5q0 -253 -264 -280z" />
    <glyph glyph-name="dagger" unicode="&#x2020;" horiz-adv-x="894" 
d="M399 -100l-75 598v192l86 246l-293 -80l-76 45v133l76 45l295 -80l-76 228v119l37 88h147l37 -88v-119l-74 -228l295 80l76 -45v-133l-76 -45l-295 80l88 -244v-190l-77 -602h-95z" />
    <glyph glyph-name="daggerdbl" unicode="&#x2021;" horiz-adv-x="894" 
d="M373 -100l-37 88v112l76 230l-295 -82l-76 45v133l76 45l291 -80l-76 184v183l76 182l-291 -78l-76 45v133l76 45l295 -79l-76 227v113l37 88h147l37 -88v-113l-74 -227l295 79l76 -45v-133l-76 -45l-293 80l76 -184v-183l-76 -184l293 80l76 -45v-133l-76 -45l-295 82
l74 -230v-112l-37 -88h-147z" />
    <glyph glyph-name="bullet" unicode="&#x2022;" horiz-adv-x="643" 
d="M322 332q-113 0 -189 70t-76 188t76.5 190t188.5 72q115 0 189.5 -71.5t74.5 -190.5t-74.5 -188.5t-189.5 -69.5z" />
    <glyph glyph-name="ellipsis" unicode="&#x2026;" horiz-adv-x="1099" 
d="M913 -10q-55 0 -93 37.5t-38 91.5t38 92.5t93 38.5q57 0 95.5 -38.5t38.5 -92.5t-38.5 -91.5t-95.5 -37.5zM551 -10q-57 0 -95 37.5t-38 91.5q0 55 38 93t95 38q55 0 94 -38.5t39 -92.5t-38.5 -91.5t-94.5 -37.5zM186 -10q-57 0 -95 37.5t-38 91.5q0 55 38.5 93t94.5 38
q55 0 94 -38.5t39 -92.5t-38.5 -91.5t-94.5 -37.5z" />
    <glyph glyph-name="perthousand" unicode="&#x2030;" horiz-adv-x="2301" 
d="M381 829q69 0 107 61t38 183t-38 184t-107 62q-70 0 -109 -62t-39 -184t38.5 -183t109.5 -61zM381 702q-69 0 -129 23.5t-107 68.5t-74.5 117.5t-27.5 163.5t27.5 163.5t74.5 117.5t107 68.5t129 23.5q142 0 239 -97t97 -276t-97 -276t-239 -97zM195 -70l1009 1563h164
l-1010 -1563h-163zM1182 113q69 0 107 60.5t38 182.5t-38 184t-107 62q-70 0 -109 -62t-39 -184t38.5 -182.5t109.5 -60.5zM1182 -14q-69 0 -129 23.5t-107 68.5t-74.5 117t-27.5 163t27.5 163.5t74.5 117.5t107 68.5t129 23.5q142 0 239 -97t97 -276q0 -178 -97 -275
t-239 -97zM1923 113q69 0 107 60.5t38 182.5t-38 184t-107 62q-70 0 -108.5 -62t-38.5 -184t38 -182.5t109 -60.5zM1923 -14q-69 0 -129 23.5t-107 68.5t-74.5 117t-27.5 163t27.5 163.5t74.5 117.5t107 68.5t129 23.5q142 0 239 -97t97 -276q0 -178 -96.5 -275t-239.5 -97z
" />
    <glyph glyph-name="guilsinglleft" unicode="&#x2039;" horiz-adv-x="557" 
d="M371 88l-303 383v121l303 385h123v-82l-232 -358v-5l232 -360v-84h-123z" />
    <glyph glyph-name="guilsinglright" unicode="&#x203a;" horiz-adv-x="557" 
d="M63 88v80l230 358v6l-230 361v84h125l301 -383v-121l-301 -385h-125z" />
    <glyph glyph-name="fraction" unicode="&#x2044;" horiz-adv-x="411" 
d="M-375 -70l1010 1563h151l-1009 -1563h-152z" />
    <glyph glyph-name="Euro" unicode="&#x20ac;" horiz-adv-x="1214" 
d="M43 514v129h111q-2 14 -2 72q0 5 1 31t1 32h-111v129h123q42 260 199.5 400.5t394.5 140.5q232 0 389 -72v-286h-139q-15 112 -72 156.5t-174 41.5q-154 0 -242 -93t-114 -288h456l-28 -129h-439v-135h414l-29 -129h-374q24 -190 105.5 -281.5t244.5 -91.5q181 0 282 138
h123v-170q-89 -61 -186 -92t-225 -31q-243 0 -394 133t-192 395h-123z" />
    <glyph glyph-name="trademark" unicode="&#x2122;" horiz-adv-x="1402" 
d="M166 866v72h41q10 0 18 9t8 18v389h-98l-10 -121h-86v201h528v-201h-86l-12 121h-98v-389q0 -9 8.5 -18t17.5 -9h43v-72h-274zM606 866v72h39q9 0 18 9t9 18v368q0 8 -9 16.5t-18 8.5h-39v76h262l119 -367h2l121 367h260v-76h-41q-7 0 -14.5 -8.5t-7.5 -16.5v-368
q0 -9 7.5 -18t14.5 -9h41v-72h-260v72h61v395h-4l-153 -467h-88l-152 467h-2v-395h59v-72h-225z" />
    <glyph glyph-name="onethird" unicode="&#x2153;" horiz-adv-x="1484" 
d="M37 655v99h106q13 0 25 14t12 27v489l-102 -57h-45v108l200 99h125v-639q0 -13 12 -27t25 -14h99v-99h-457zM135 -70l1010 1563h151l-1009 -1563h-152zM1126 -10q-130 0 -235 41v159h96q14 -46 45 -67t90 -21q66 0 104 32.5t38 94.5q0 111 -144 111h-71v111h65
q67 0 104 27.5t37 82.5q0 109 -118 109q-55 0 -85.5 -18t-43.5 -64h-93v157q114 43 240 43t197 -50.5t71 -149.5q0 -77 -43 -123t-118 -62v-6q85 -12 130.5 -57.5t45.5 -122.5q0 -107 -82.5 -167t-229.5 -60z" />
    <glyph glyph-name="twothirds" unicode="&#x2154;" horiz-adv-x="1568" 
d="M45 655v72q0 95 54.5 164.5t152.5 134.5q96 63 122 87q49 48 50 99q0 111 -119 111q-118 0 -141 -94h-94v172q111 43 254 43q130 0 204 -57t74 -164q0 -40 -14 -76t-32.5 -60t-53 -51t-57 -40.5t-64.5 -37.5q-85 -49 -128.5 -87t-51.5 -89h268l12 88h109v-215h-545z
M225 -70l1010 1563h151l-1009 -1563h-152zM1210 -10q-130 0 -235 41v159h96q14 -46 45 -67t90 -21q66 0 104 32.5t38 94.5q0 111 -144 111h-71v111h65q67 0 104 27.5t37 82.5q0 109 -118 109q-55 0 -85.5 -18t-43.5 -64h-93v157q114 43 240 43t197 -50.5t71 -149.5
q0 -77 -43 -123t-118 -62v-6q85 -12 130.5 -57.5t45.5 -122.5q0 -107 -82.5 -167t-229.5 -60z" />
    <glyph glyph-name="oneeighth" unicode="&#x215b;" horiz-adv-x="1515" 
d="M37 655v99h106q13 0 25 14t12 27v489l-102 -57h-45v108l200 99h125v-639q0 -13 12 -27t25 -14h99v-99h-457zM135 -70l1010 1563h151l-1009 -1563h-152zM1151 -10q-147 0 -229 62t-82 167q0 74 43 123.5t123 73.5v4q-63 15 -98.5 58t-35.5 106q0 93 78 148.5t201 55.5
q124 0 202.5 -55.5t78.5 -148.5q0 -122 -132 -164v-4q80 -24 123 -73.5t43 -123.5q0 -104 -83 -166.5t-232 -62.5zM1151 100q73 0 110 35t37 94q0 61 -37.5 98.5t-109.5 37.5q-70 0 -105.5 -37t-35.5 -99q0 -60 35 -94.5t106 -34.5zM1151 463q57 0 87 27.5t30 78.5t-30 79
t-87 28q-55 0 -85 -28t-30 -79t30 -78.5t85 -27.5z" />
    <glyph glyph-name="threeeighths" unicode="&#x215c;" horiz-adv-x="1513" 
d="M272 645q-130 0 -235 41v160h96q14 -46 45 -67t90 -21q66 0 104 32.5t38 94.5q0 110 -144 110h-71v111h65q67 0 104 28t37 83q0 108 -118 108q-55 0 -85.5 -18t-43.5 -64h-93v158q114 43 240 43t197 -51t71 -150q0 -150 -161 -184v-6q84 -12 130 -58t46 -123
q0 -107 -82.5 -167t-229.5 -60zM147 -70l1010 1563h152l-1010 -1563h-152zM1149 -10q-147 0 -229 62t-82 167q0 74 43 123.5t123 73.5v4q-63 15 -98.5 58t-35.5 106q0 93 78 148.5t201 55.5q124 0 202.5 -55.5t78.5 -148.5q0 -122 -132 -164v-4q80 -24 123 -73.5t43 -123.5
q0 -104 -83 -166.5t-232 -62.5zM1149 100q73 0 110 35t37 94q0 61 -37.5 98.5t-109.5 37.5q-70 0 -105.5 -37t-35.5 -99q0 -60 35 -94.5t106 -34.5zM1149 463q57 0 87 27.5t30 78.5t-30 79t-87 28q-55 0 -85 -28t-30 -79t30 -78.5t85 -27.5z" />
    <glyph glyph-name="fiveeighths" unicode="&#x215d;" horiz-adv-x="1511" 
d="M272 645q-122 0 -233 47v152h96q20 -86 131 -86q68 0 108 38.5t40 108.5q0 67 -35 101t-90 34q-82 0 -131 -57h-101v451h494v-195h-107l-12 72h-252v-215h4q56 49 158 49q110 0 177 -58.5t67 -179.5t-86.5 -191.5t-227.5 -70.5zM139 -70l1010 1563h151l-1009 -1563h-152z
M1147 -10q-147 0 -229 62t-82 167q0 148 165 197v4q-63 15 -98 58t-35 106q0 93 78 148.5t201 55.5q124 0 202 -55.5t78 -148.5q0 -122 -131 -164v-4q80 -24 123 -73.5t43 -123.5q0 -104 -83 -166.5t-232 -62.5zM1147 100q73 0 110 35t37 94q0 61 -37.5 98.5t-109.5 37.5
q-70 0 -105.5 -37t-35.5 -99q0 -60 35 -94.5t106 -34.5zM1147 463q57 0 87 27.5t30 78.5t-30 79t-87 28q-55 0 -85 -28t-30 -79t30 -78.5t85 -27.5z" />
    <glyph glyph-name="seveneighths" unicode="&#x215e;" horiz-adv-x="1449" 
d="M57 -70l1010 1563h152l-1010 -1563h-152zM1085 -10q-147 0 -229 62t-82 167q0 74 43 123.5t123 73.5v4q-63 15 -98 58t-35 106q0 93 77.5 148.5t200.5 55.5q124 0 202.5 -55.5t78.5 -148.5q0 -122 -131 -164v-4q80 -24 123 -73.5t43 -123.5q0 -104 -83.5 -166.5
t-232.5 -62.5zM1085 100q73 0 110.5 35t37.5 94q0 61 -38 98.5t-110 37.5q-70 0 -105.5 -37t-35.5 -99q0 -60 35 -94.5t106 -34.5zM1085 463q57 0 87 27.5t30 78.5t-30 79t-87 28q-55 0 -84.5 -28t-29.5 -79t29.5 -78.5t84.5 -27.5zM135 655v72l342 573v5h-321l-13 -111
h-106v240h559v-142l-291 -637h-170z" />
    <glyph glyph-name="minus" unicode="&#x2212;" horiz-adv-x="1015" 
d="M51 625v166h914v-166h-914z" />
    <glyph glyph-name="space_uni0326" unicode="&#xf6c3;" horiz-adv-x="831" 
d="M289 -426v94q96 15 96 62q0 9 -5 16.5t-9 10.5t-16.5 10t-14.5 8q-43 24 -43 82q0 39 31.5 65.5t77.5 26.5q56 0 90 -33t34 -100q0 -115 -60 -172.5t-181 -69.5z" />
    <glyph glyph-name="paragraph.cap" horiz-adv-x="1134" 
d="M526 0v651q-111 3 -195.5 24t-151 65t-101.5 120t-35 182q0 90 25.5 158.5t69.5 112.5t109.5 71.5t139 38.5t164.5 11h551v-136h-86q-24 0 -44 -21.5t-20 -45.5v-1231h-139v1288h-147v-1288h-140z" />
    <glyph glyph-name="bullet.cap" horiz-adv-x="643" 
d="M322 412q-113 0 -189 70t-76 188t76.5 190t188.5 72q115 0 189.5 -71.5t74.5 -190.5t-74.5 -188.5t-189.5 -69.5z" />
    <glyph glyph-name="at.cap" horiz-adv-x="1615" 
d="M1139 346q-106 0 -157.5 36t-68.5 101q-104 -137 -268 -137q-105 0 -166 65t-61 181q0 202 133 358q54 62 129.5 95.5t161.5 33.5q123 0 196 -73q67 67 111 67h63l-110 -481q-7 -41 -8.5 -71.5t16 -48t55.5 -17.5q114 0 188 98t74 291q0 228 -161.5 358.5t-419.5 130.5
q-96 0 -187.5 -25.5t-173.5 -79.5t-144 -131t-98 -186.5t-36 -238.5q0 -118 31 -213.5t85.5 -161.5t131.5 -110t167 -64.5t195 -20.5q271 0 443 117h77v-94q-91 -65 -228.5 -103t-295.5 -38q-119 0 -228.5 24.5t-207.5 79t-170.5 133.5t-115 195.5t-42.5 257.5
q0 147 47.5 275.5t127 219.5t182 156.5t214.5 97t224 31.5q115 0 221.5 -25t197.5 -76t159 -122.5t106.5 -170t38.5 -212.5q0 -125 -36.5 -223.5t-98 -158t-136.5 -90t-157 -30.5zM713 467q51 0 95 29t93 82l82 354q-50 26 -111 26q-107 0 -176 -94q-84 -113 -84 -270
q0 -64 27.5 -95.5t73.5 -31.5z" />
    <glyph glyph-name="dagger.cap" horiz-adv-x="894" 
d="M399 0l-75 555v190l84 220l-291 -80l-76 45v133l76 45l291 -80l-72 199v119l37 88h147l37 -88v-119l-74 -199l295 80l76 -45v-133l-76 -45l-295 80l88 -217v-189l-77 -559h-95z" />
    <glyph glyph-name="daggerdbl.cap" horiz-adv-x="894" 
d="M373 0l-37 88v113l72 200l-291 -82l-76 48v131l76 47l291 -82l-76 190v127l76 189l-291 -80l-76 47v131l76 47l293 -82l-74 201v113l37 88h147l37 -88v-113l-74 -201l295 82l76 -47v-131l-76 -47l-293 80l76 -189v-127l-76 -188l293 80l76 -47v-131l-76 -48l-295 82
l74 -200v-113l-37 -88h-147z" />
    <glyph glyph-name="less.cap" horiz-adv-x="927" 
d="M788 0l-739 643v150l739 641h84v-136l-577 -577v-6l577 -586v-129h-84z" />
    <glyph glyph-name="greater.cap" horiz-adv-x="927" 
d="M53 0v131l580 580v4l-580 585v134h84l742 -643v-148l-742 -643h-84z" />
    <glyph glyph-name="guillemotleft.cap" horiz-adv-x="1378" 
d="M696 0l-647 643v148l647 643h86v-136l-497 -575v-6l497 -588v-129h-86zM1237 0l-645 643v148l645 643h88v-136l-498 -575v-6l498 -588v-129h-88z" />
    <glyph glyph-name="guillemotright.cap" horiz-adv-x="1378" 
d="M682 1434l647 -643v-148l-647 -643h-86v131l498 580v6l-498 581v136h86zM141 1434l645 -643v-148l-645 -643h-88v131l498 580v6l-498 581v136h88z" />
    <glyph glyph-name="quotedblleft.cap" horiz-adv-x="2062" 
d="M565 -14q-103 0 -194 35.5t-163 103.5t-113.5 179.5t-41.5 252.5q0 389 241.5 620t680.5 257v-136q-141 -15 -249.5 -56t-171.5 -96t-94.5 -115t-31.5 -122q0 -128 145 -159q24 -5 90 -15t101 -20q102 -30 165.5 -113.5t63.5 -222.5q0 -170 -117 -281.5t-311 -111.5z
M1583 -14q-103 0 -194 35.5t-162 103.5t-112.5 179.5t-41.5 252.5q0 389 241 620t681 257v-136q-141 -15 -250 -56t-172 -96t-94 -115t-31 -122q0 -67 36 -104t109 -55q24 -5 89.5 -15t99.5 -20q102 -30 165.5 -113.5t63.5 -222.5q0 -170 -117 -281.5t-311 -111.5z" />
    <glyph glyph-name="quotedblright.cap" horiz-adv-x="2062" 
d="M1499 1448q103 0 194 -35.5t163 -103.5t113.5 -179.5t41.5 -252.5q0 -389 -241 -620t-680 -257v131q113 12 206.5 42t155 69.5t104 87.5t61.5 96.5t19 97.5q0 129 -145 160q-24 5 -90 15t-101 20q-102 30 -165.5 113.5t-63.5 222.5q0 170 117 281.5t311 111.5zM481 1448
q103 0 194 -35.5t162 -103.5t112.5 -179.5t41.5 -252.5q0 -389 -240.5 -620t-680.5 -257v131q141 15 250 56.5t171.5 97.5t93.5 116.5t31 122.5q0 67 -36 104.5t-109 55.5q-24 5 -89 15t-99 20q-102 30 -166 113.5t-64 222.5q0 170 117 281.5t311 111.5z" />
    <glyph glyph-name="quoteleft.cap" horiz-adv-x="1044" 
d="M565 -14q-103 0 -194 35.5t-163 103.5t-113.5 179.5t-41.5 252.5q0 389 241.5 620t680.5 257v-136q-141 -15 -249.5 -56t-171.5 -96t-94.5 -115t-31.5 -122q0 -128 145 -159q24 -5 90 -15t101 -20q102 -30 165.5 -113.5t63.5 -222.5q0 -170 -117 -281.5t-311 -111.5z" />
    <glyph glyph-name="quoteright.cap" horiz-adv-x="1044" 
d="M481 1448q103 0 194 -35.5t162 -103.5t112.5 -179.5t41.5 -252.5q0 -389 -240.5 -620t-680.5 -257v131q141 15 250 56.5t171.5 97.5t93.5 116.5t31 122.5q0 67 -36 104.5t-109 55.5q-24 5 -89 15t-99 20q-102 30 -166 113.5t-64 222.5q0 170 117 281.5t311 111.5z" />
    <glyph glyph-name="hyphen.cap" horiz-adv-x="555" 
d="M55 600v168h443v-168h-443z" />
    <glyph glyph-name="endash.cap" horiz-adv-x="833" 
d="M55 608v152h721v-152h-721z" />
    <glyph glyph-name="emdash.cap" horiz-adv-x="1359" 
d="M55 608v152h1248v-152h-1248z" />
    <glyph glyph-name="questiondown.cap" horiz-adv-x="890" 
d="M625 1065q19 -130 -11 -219t-133 -195l-37.5 -37.5t-46 -47.5t-38 -46.5t-38.5 -58t-21 -57.5t-11 -68q0 -93 48.5 -143t141.5 -50q94 0 150.5 37t77.5 119h135v-242q-87 -36 -170 -53.5t-201 -17.5q-200 0 -313 89.5t-113 264.5q0 51 12.5 97t30.5 79t51.5 70.5t61 62
t73.5 62.5q49 41 78 67.5t59 61.5t44 66t21 71.5t3 87.5h146zM539 1444q56 0 94.5 -37.5t38.5 -91.5t-39 -92.5t-94 -38.5t-94 38.5t-39 92.5t38.5 91.5t94.5 37.5z" />
    <glyph glyph-name="exclamdown.cap" horiz-adv-x="376" 
d="M252 1065l55 -930v-135h-239v135l55 930h129zM188 1444q56 0 95 -37.5t39 -91.5t-39.5 -92.5t-94.5 -38.5t-94 38.5t-39 92.5t38.5 91.5t94.5 37.5z" />
    <glyph glyph-name="ampersand.alt" horiz-adv-x="1427" 
d="M580 139q169 0 290 131l-415 441q-158 -90 -158 -287q0 -124 71 -204.5t212 -80.5zM1135 324l127 -136q51 -57 94 -57h39v-131h-269l-143 152q-169 -166 -428 -166q-243 0 -373.5 110t-130.5 299q0 286 311 420q-48 63 -72 127.5t-24 151.5q0 160 110.5 257t293.5 97
q101 0 207 -47q21 0 28 33h150v-355h-162l-27 142q-76 65 -178 65q-90 0 -139 -50t-49 -132q0 -71 34.5 -127t106.5 -131l365 -387q68 142 86 366h198v-112q-61 -239 -155 -389z" />
    <glyph glyph-name="zero.num" horiz-adv-x="784" 
d="M393 645q-150 0 -250 106t-100 296q0 187 100.5 292t249.5 105q148 0 248 -105t100 -292q0 -190 -99 -296t-249 -106zM393 762q78 0 122 68.5t44 209.5q0 143 -44 212t-122 69q-166 0 -166 -281q0 -278 166 -278z" />
    <glyph glyph-name="one.num" horiz-adv-x="516" 
d="M31 655v99h106q13 0 25 14t12 27v489l-102 -57h-45v108l200 99h125v-639q0 -13 12 -27t25 -14h98v-99h-456z" />
    <glyph glyph-name="two.num" horiz-adv-x="638" 
d="M39 655v72q0 95 54.5 164.5t152.5 134.5q96 63 122 87q49 48 50 99q0 111 -119 111q-118 0 -141 -94h-95v172q111 43 254 43q130 0 204.5 -57t74.5 -164q0 -40 -14 -76t-32.5 -60t-53 -51t-57 -40.5t-64.5 -37.5q-85 -49 -128.5 -87t-51.5 -89h268l12 88h109v-215h-545z
" />
    <glyph glyph-name="three.num" horiz-adv-x="618" 
d="M266 645q-130 0 -235 41v160h96q14 -46 45 -67t90 -21q66 0 103.5 32.5t37.5 94.5q0 110 -143 110h-72v111h66q67 0 104 28t37 83q0 108 -119 108q-55 0 -85.5 -18t-43.5 -64h-92v158q114 43 240 43t197 -51t71 -150q0 -76 -43 -122t-119 -62v-6q85 -12 131 -58t46 -123
q0 -107 -82.5 -167t-229.5 -60z" />
    <glyph glyph-name="four.num" horiz-adv-x="688" 
d="M295 655v99h61q11 0 24 14.5t13 26.5v63h-362v125l366 451h164v-471h96v-105h-96v-63q0 -12 13 -26.5t26 -14.5h57v-99h-362zM147 969v-6h248v307h-4z" />
    <glyph glyph-name="five.num" horiz-adv-x="622" 
d="M266 645q-122 0 -233 47v152h96q20 -86 131 -86q68 0 108 38.5t40 108.5q0 67 -35 101t-90 34q-82 0 -131 -57h-101v451h494v-195h-107l-12 72h-252v-215h4q56 49 158 49q110 0 177 -58.5t67 -179.5t-86.5 -191.5t-227.5 -70.5z" />
    <glyph glyph-name="six.num" horiz-adv-x="706" 
d="M373 645q-148 0 -239 96t-91 287q0 198 106.5 307t292.5 109q106 0 183 -25v-135h-88q-32 45 -107 45q-93 0 -148 -69t-61 -193q64 76 205 76q108 0 175 -57.5t67 -170.5q0 -122 -81 -196t-214 -74zM371 1036q-95 0 -148 -57q4 -125 40.5 -176t103.5 -51q62 0 96.5 42.5
t34.5 112.5q0 129 -127 129z" />
    <glyph glyph-name="seven.num" horiz-adv-x="618" 
d="M129 655v72l342 573v5h-321l-13 -111h-106v240h559v-142l-291 -637h-170z" />
    <glyph glyph-name="eight.num" horiz-adv-x="712" 
d="M354 645q-147 0 -229 62t-82 167q0 74 43 123.5t123 73.5v4q-63 15 -98 58t-35 106q0 93 77.5 149t200.5 56q124 0 202.5 -56t78.5 -149q0 -122 -131 -164v-4q80 -24 123 -73.5t43 -123.5q0 -104 -83.5 -166.5t-232.5 -62.5zM354 756q73 0 110.5 35t37.5 94q0 61 -38 98
t-110 37q-71 0 -106 -36.5t-35 -98.5q0 -60 35 -94.5t106 -34.5zM354 1118q57 0 87 28t30 79t-30 78.5t-87 27.5q-55 0 -84.5 -27.5t-29.5 -78.5t29.5 -79t84.5 -28z" />
    <glyph glyph-name="nine.num" horiz-adv-x="706" 
d="M266 645q-105 0 -196 31v131h90q37 -47 116 -47q100 0 151.5 63t57.5 197q-80 -76 -200 -76q-108 0 -176 59.5t-68 174.5q0 120 81.5 193t215.5 73q149 0 238.5 -94t89.5 -285q0 -206 -103 -313t-297 -107zM340 1049q86 0 145 59q-4 124 -40.5 176.5t-104.5 52.5
q-60 0 -94.5 -41t-34.5 -112q0 -69 34.5 -102t94.5 -33z" />
    <glyph glyph-name="zero.den" horiz-adv-x="784" 
d="M393 -10q-150 0 -250 105.5t-100 295.5q0 187 100.5 292t249.5 105q148 0 248 -105t100 -292q0 -190 -99 -295.5t-249 -105.5zM393 106q78 0 122 69t44 210q0 143 -44 212t-122 69q-166 0 -166 -281q0 -279 166 -279z" />
    <glyph glyph-name="one.den" horiz-adv-x="516" 
d="M31 0v98h106q13 0 25 14t12 27v490l-102 -58h-45v109l200 98h125v-639q0 -13 12 -27t25 -14h98v-98h-456z" />
    <glyph glyph-name="two.den" horiz-adv-x="638" 
d="M39 0v72q0 95 54.5 164.5t152.5 134.5q96 63 122 87q49 48 50 99q0 111 -119 111q-118 0 -141 -95h-95v172q111 43 254 43q130 0 204.5 -57t74.5 -164q0 -40 -14.5 -76t-32 -59.5t-53 -50.5t-57.5 -40.5t-64 -37.5q-85 -49 -128.5 -87t-51.5 -89h268l12 88h109v-215h-545
z" />
    <glyph glyph-name="three.den" horiz-adv-x="618" 
d="M266 -10q-130 0 -235 41v159h96q14 -46 45 -67t90 -21q66 0 103.5 32.5t37.5 94.5q0 111 -143 111h-72v111h66q67 0 104 27.5t37 82.5q0 109 -119 109q-55 0 -85.5 -18t-43.5 -64h-92v157q114 43 240 43t197 -50.5t71 -149.5q0 -77 -43.5 -123t-118.5 -62v-6
q85 -12 131 -57.5t46 -122.5q0 -107 -82.5 -167t-229.5 -60z" />
    <glyph glyph-name="four.den" horiz-adv-x="688" 
d="M295 0v98h61q11 0 24 14.5t13 26.5v64h-362v125l366 450h164v-471h96v-104h-96v-64q0 -12 13 -26.5t26 -14.5h57v-98h-362zM147 313v-6h248v307h-4z" />
    <glyph glyph-name="five.den" horiz-adv-x="622" 
d="M266 -10q-122 0 -233 47v151h96q20 -86 131 -86q67 0 107.5 38.5t40.5 109.5q0 67 -35 101t-90 34q-82 0 -131 -57h-101v450h494v-194h-107l-12 71h-252v-215h4q56 49 158 49q110 0 177 -58t67 -179t-86.5 -191.5t-227.5 -70.5z" />
    <glyph glyph-name="six.den" horiz-adv-x="706" 
d="M373 -10q-148 0 -239 96t-91 287q0 198 106.5 306.5t292.5 108.5q109 0 183 -24v-135h-88q-32 45 -107 45q-93 0 -148 -69t-61 -193q63 75 205 75q108 0 175 -57t67 -170q0 -122 -81 -196t-214 -74zM371 381q-95 0 -148 -57q4 -126 40.5 -177t103.5 -51q62 0 96.5 43
t34.5 113q0 129 -127 129z" />
    <glyph glyph-name="seven.den" horiz-adv-x="618" 
d="M129 0v72l342 573v4h-321l-13 -110h-106v239h559v-141l-291 -637h-170z" />
    <glyph glyph-name="eight.den" horiz-adv-x="712" 
d="M354 -10q-147 0 -229 62t-82 167q0 74 43 123.5t123 73.5v4q-63 15 -98 58t-35 106q0 93 77.5 148.5t200.5 55.5q124 0 202.5 -55.5t78.5 -148.5q0 -122 -131 -164v-4q80 -24 123 -73.5t43 -123.5q0 -104 -83.5 -166.5t-232.5 -62.5zM354 100q73 0 110.5 35t37.5 94
q0 61 -38 98.5t-110 37.5q-70 0 -105.5 -37t-35.5 -99q0 -60 35 -94.5t106 -34.5zM354 463q57 0 87 27.5t30 78.5t-30 79t-87 28q-55 0 -84.5 -28t-29.5 -79t29.5 -78.5t84.5 -27.5z" />
    <glyph glyph-name="nine.den" horiz-adv-x="706" 
d="M266 -10q-108 0 -196 30v132h90q38 -48 116 -48q100 0 151.5 63.5t57.5 197.5q-80 -76 -200 -76q-109 0 -176.5 59t-67.5 174q0 120 81.5 193t215.5 73q149 0 238.5 -93.5t89.5 -284.5q0 -206 -103 -313t-297 -107zM340 393q85 0 145 60q-4 124 -40.5 176.5t-104.5 52.5
q-60 0 -94.5 -41.5t-34.5 -112.5q0 -69 34.5 -102t94.5 -33z" />
    <glyph glyph-name="dollar.tab" 
d="M131 51v297h139q12 -108 71.5 -153.5t197.5 -57.5v506q-100 27 -167.5 56.5t-123.5 76.5t-82.5 115t-26.5 162q0 166 104 269t296 120v123h131v-119q202 -8 364 -66v-278h-137q-17 98 -65 139.5t-162 54.5v-473q88 -25 146 -46.5t114.5 -54t88.5 -72.5t51.5 -98.5
t19.5 -133.5q0 -190 -109 -299.5t-311 -126.5v-201h-131v197q-212 5 -408 63zM877 385q0 88 -50.5 136t-156.5 83v-461q101 17 154 79.5t53 162.5zM338 1081q0 -89 46.5 -136.5t154.5 -82.5v432q-102 -17 -151.5 -72t-49.5 -141z" />
    <glyph glyph-name="Euro.tab" 
d="M66 514v129h110q-2 25 -2 72q0 38 2 63h-110v129h122q42 259 196.5 400t383.5 141q234 0 381 -72v-286h-139q-17 113 -68.5 155.5t-171.5 42.5q-145 0 -230.5 -93t-111.5 -288h434l-28 -129h-416v-135h391l-29 -129h-354q26 -190 105.5 -281.5t236.5 -91.5q96 0 159 36
t111 102h125v-170q-92 -62 -185 -92.5t-216 -30.5q-237 0 -385 133t-189 395h-122z" />
    <glyph glyph-name="sterling.tab" 
d="M137 641v147h109q-39 156 -39 259q0 191 129.5 296t339.5 105q118 0 207 -19t186 -59v-272h-137q-20 106 -77 148t-173 42q-231 0 -231 -235q0 -86 28 -265h361v-147h-340q22 -154 22 -244q0 -88 -33 -166q172 -51 429 -51l18 189h156v-369h-95q-391 0 -600 94
q-68 -62 -159 -94h-113v131q197 41 197 246q0 85 -39 264h-146z" />
    <glyph glyph-name="yen.tab" 
d="M129 635v129h303l-264 473q-33 61 -90 61h-27v136h486v-136h-148l256 -485h4l182 350q34 67 16 101t-81 34h-45v136h455v-136h-39q-57 0 -90 -65l-261 -469h312v-129h-365v-123h365v-129h-365v-186q0 -23 19.5 -44.5t44.5 -21.5h98v-131h-561v131h98q24 0 44 21.5
t20 44.5v186h-367v129h367v123h-367z" />
    <glyph glyph-name="zero.tab" 
d="M614 -14q-109 0 -203 43.5t-168.5 129.5t-117.5 229.5t-43 328.5t43 328.5t117.5 229.5t168.5 129.5t203 43.5q87 0 165 -26.5t145.5 -84.5t117 -142t77.5 -206.5t28 -271.5t-28 -271.5t-77.5 -206.5t-117 -142t-145.5 -84.5t-165 -26.5zM614 141q139 0 212 136.5
t73 435.5t-73 436t-212 137t-211.5 -137t-72.5 -436t72.5 -435.5t211.5 -136.5z" />
    <glyph glyph-name="one.tab" 
d="M238 0v131h223q23 0 42 21.5t19 44.5v1015l-233 -116h-60v129l371 209h160v-1237q0 -23 18.5 -44.5t42.5 -21.5h223v-131h-806z" />
    <glyph glyph-name="two.tab" 
d="M129 0v109q0 78 22.5 148.5t55.5 123t90 107t105 91.5t122 87q154 106 200 146q109 94 123 199q3 19 3 40q0 113 -59.5 175t-180.5 62q-123 0 -189.5 -44.5t-86.5 -145.5h-139v272q204 78 423 78q230 0 354 -99.5t124 -295.5q0 -61 -15 -115t-46 -99t-65.5 -82t-86.5 -75
t-94.5 -65t-103.5 -64q-11 -7 -17 -10q-71 -42 -122.5 -79t-101 -83t-77 -98t-31.5 -107h559l20 191h156v-367h-942z" />
    <glyph glyph-name="three.tab" 
d="M545 -14q-225 0 -410 73v250h137q36 -168 271 -168q139 0 216 70t77 201q0 243 -291 243h-117v158h100q293 0 293 242q0 116 -58 174.5t-183 58.5q-226 0 -263 -160h-133v244q204 76 412 76q223 0 341 -91.5t118 -277.5q0 -270 -291 -334v-6q315 -53 315 -340
q1 -197 -142 -305t-392 -108z" />
    <glyph glyph-name="four.tab" 
d="M651 131q21 0 41.5 22t20.5 44v157h-607v187l621 893h217v-926h164v-154h-164v-157q0 -23 20 -44.5t44 -21.5h100v-131h-561v131h104zM264 516v-8h449v659h-6z" />
    <glyph glyph-name="five.tab" 
d="M545 -14q-221 0 -410 84v241h137q20 -91 84.5 -130.5t184.5 -39.5q138 0 220.5 80t82.5 234q0 146 -73.5 216t-190.5 70q-169 0 -265 -112h-145v805h860v-316h-153l-21 139h-512v-446h6q107 90 293 90q92 0 170.5 -26t140 -77.5t96.5 -137t35 -197.5
q0 -224 -147.5 -350.5t-392.5 -126.5z" />
    <glyph glyph-name="six.tab" 
d="M639 -14q-116 0 -213 43t-171 127t-115.5 219.5t-41.5 310.5q0 360 183 561t485 201q172 0 297 -41v-190h-131q-20 21 -37.5 34t-55.5 25t-87 12q-89 0 -159 -30.5t-115.5 -82t-75.5 -123t-43.5 -148.5t-14.5 -165q67 70 161 113t206 43q91 0 167.5 -26.5t135.5 -78
t92 -134t33 -187.5q0 -217 -138 -350t-362 -133zM639 139q133 0 196.5 86t63.5 236q0 139 -65.5 206.5t-184.5 67.5q-179 0 -305 -133q9 -240 82.5 -351.5t212.5 -111.5z" />
    <glyph glyph-name="seven.tab" 
d="M938 1249v6h-645l-19 -211h-155v390h991v-197l-586 -1237h-225v96z" />
    <glyph glyph-name="eight.tab" 
d="M844 770v-6q143 -38 219 -131.5t76 -231.5q0 -191 -138.5 -303t-386.5 -112t-386 112t-138 303q0 137 75.5 229t219.5 134v6q-231 74 -231 305q0 169 128 271t332 102t331.5 -102t127.5 -271q0 -232 -229 -305zM614 139q138 0 211.5 75t73.5 198q0 125 -73.5 201.5
t-211.5 76.5q-140 0 -212 -76.5t-72 -201.5q0 -124 72 -198.5t212 -74.5zM614 840q108 0 169 57.5t61 165.5t-61 167.5t-169 59.5q-109 0 -170 -59.5t-61 -167.5t60.5 -165.5t170.5 -57.5z" />
    <glyph glyph-name="nine.tab" 
d="M592 1448q116 0 213 -43t170 -127t114 -219.5t41 -310.5q0 -366 -175 -564t-478 -198q-192 0 -330 53v194h132q29 -33 47 -48.5t60 -29.5t103 -14q88 0 157 30.5t113 81.5t72.5 123.5t40.5 150t13 167.5q-67 -70 -160 -112.5t-205 -42.5q-91 0 -167.5 26.5t-135.5 78
t-92 134t-33 187.5q0 217 138 350t362 133zM592 1288q-133 0 -196.5 -83t-63.5 -232q0 -139 65.5 -207t184.5 -68q177 0 303 133q-9 240 -81.5 348.5t-211.5 108.5z" />
    <glyph glyph-name="plus.tab" 
d="M526 236v389h-368v166h368v389h179v-389h366v-166h-366v-389h-179z" />
    <glyph glyph-name="minus.tab" 
d="M158 625v166h913v-166h-913z" />
    <glyph glyph-name="multiply.tab" 
d="M309 268l-116 119l305 307l-305 307l116 117l305 -307l308 307l114 -117l-307 -307l307 -307l-114 -119l-308 310z" />
    <glyph glyph-name="divide.tab" 
d="M616 240q-57 0 -94 36.5t-37 90.5q0 55 37.5 92t93.5 37q54 0 91.5 -37.5t37.5 -91.5t-37.5 -90.5t-91.5 -36.5zM616 920q-57 0 -94 36.5t-37 90.5q0 55 37.5 92t93.5 37q54 0 91.5 -37.5t37.5 -91.5t-37.5 -90.5t-91.5 -36.5zM158 625v166h913v-166h-913z" />
    <glyph glyph-name="less.tab" 
d="M193 600v150l780 399h55v-164l-610 -305v-4l610 -309v-166h-55z" />
    <glyph glyph-name="equal.tab" 
d="M170 365v165h891v-165h-891zM170 758v166h891v-166h-891z" />
    <glyph glyph-name="greater.tab" 
d="M1036 750v-150l-778 -399h-57v164l612 303v6l-612 307v168h57z" />
    <glyph glyph-name="comma.tab" horiz-adv-x="614" 
d="M164 -109q55 10 85 34t30 55q0 12 -5 20.5t-11 12.5t-18.5 11t-19.5 11q-51 36 -51 100q0 49 36.5 82t90.5 33q61 0 102 -41.5t41 -120.5q0 -136 -70 -208.5t-210 -90.5v102z" />
    <glyph glyph-name="period.tab" horiz-adv-x="614" 
d="M307 -10q-57 0 -95 37.5t-38 91.5q0 55 38 93t95 38q55 0 94 -38.5t39 -92.5t-38.5 -91.5t-94.5 -37.5z" />
    <glyph glyph-name="colon.tab" horiz-adv-x="614" 
d="M307 600q-57 0 -95 36.5t-38 90.5q0 56 38 93.5t95 37.5q56 0 94.5 -38t38.5 -93q0 -54 -38.5 -90.5t-94.5 -36.5zM307 -10q-57 0 -95 37.5t-38 91.5q0 55 38 93t95 38q55 0 94 -38.5t39 -92.5t-38.5 -91.5t-94.5 -37.5z" />
    <glyph glyph-name="semicolon.tab" horiz-adv-x="614" 
d="M162 -109q55 10 84.5 34t29.5 55q0 12 -5.5 20.5t-10.5 12.5t-19 11t-20 11q-51 38 -51 100q0 49 37.5 82t91.5 33q60 0 100.5 -41.5t40.5 -120.5q0 -136 -69 -209t-209 -90v102zM307 600q-57 0 -95 36.5t-38 90.5q0 56 38 93.5t95 37.5q56 0 94.5 -38t38.5 -93
q0 -54 -38.5 -90.5t-94.5 -36.5z" />
    <glyph glyph-name="percent.tab" horiz-adv-x="1638" 
d="M420 829q69 0 108 61t39 183t-39 184t-108 62q-71 0 -110.5 -62t-39.5 -184t39.5 -183t110.5 -61zM420 702q-69 0 -129 23.5t-107 68.5t-74.5 117.5t-27.5 163.5t27.5 163.5t74.5 117.5t107 68.5t129 23.5q142 0 239 -97t97 -276t-97 -276t-239 -97zM233 -70l1010 1563
h164l-1010 -1563h-164zM1221 113q69 0 108 61t39 182q0 122 -39 184t-108 62q-71 0 -110.5 -62t-39.5 -184q0 -121 39.5 -182t110.5 -61zM1221 -14q-69 0 -129 23.5t-107 68.5t-74.5 117t-27.5 163t27.5 163.5t74.5 117.5t107 68.5t129 23.5q142 0 238.5 -97t96.5 -276
t-96.5 -275.5t-238.5 -96.5z" />
    <glyph glyph-name="perthousand.tab" horiz-adv-x="2457" 
d="M420 829q69 0 108 61t39 183t-39 184t-108 62q-71 0 -110.5 -62t-39.5 -184t39.5 -183t110.5 -61zM420 702q-69 0 -129 23.5t-107 68.5t-74.5 117.5t-27.5 163.5t27.5 163.5t74.5 117.5t107 68.5t129 23.5q142 0 239 -97t97 -276t-97 -276t-239 -97zM254 -70l1010 1563
h163l-1009 -1563h-164zM1262 113q69 0 108 61t39 182q0 122 -39 184t-108 62q-71 0 -110.5 -62t-39.5 -184q0 -121 39.5 -182t110.5 -61zM1262 -14q-69 0 -129 23.5t-107 68.5t-74.5 117t-27.5 163t27.5 163.5t74.5 117.5t107 68.5t129 23.5q142 0 238.5 -97t96.5 -276
t-96.5 -275.5t-238.5 -96.5zM2040 113q69 0 108 61t39 182q0 122 -39 184t-108 62q-71 0 -110.5 -62t-39.5 -184q0 -121 39.5 -182t110.5 -61zM2040 -14q-69 0 -129 23.5t-107 68.5t-74.5 117t-27.5 163t27.5 163.5t74.5 117.5t107 68.5t129 23.5q142 0 239 -97t97 -276
q0 -178 -97 -275t-239 -97z" />
    <glyph glyph-name="cent.tab" 
d="M614 1202h131v-117q186 -5 304 -57v-227h-134q-13 65 -54 96t-116 39v-801q128 19 209 125h105v-162q-129 -96 -314 -106v-201h-131v199q-232 17 -353.5 160t-121.5 385q0 234 128 379t347 167v121zM371 532q0 -180 59.5 -277.5t183.5 -119.5v797q-118 -24 -180.5 -124.5
t-62.5 -275.5z" />
    <glyph glyph-name="florin.tab" 
d="M293 743v152h164l32 272q34 283 320 283q99 0 172 -29v-123h-109q-69 0 -107.5 -32t-47.5 -107l-31 -264h211v-152h-229l-78 -647q-28 -222 -223 -291h-109v129q30 16 49.5 32.5t36 53t23.5 91.5l73 632h-147z" />
    <glyph glyph-name="space.tab" horiz-adv-x="614" 
 />
    <glyph glyph-name="idotaccent" horiz-adv-x="548" 
d="M29 0v131h80q20 0 37.5 17.5t17.5 37.5v691q0 19 -16.5 38t-36.5 19h-91v139h324q22 0 31.5 -21t9.5 -73v-793q0 -21 17 -38t38 -17h80v-131h-491zM268 1186q-54 0 -90.5 36t-36.5 89t36.5 89t90.5 36q53 0 90 -36.5t37 -88.5t-37 -88.5t-90 -36.5z" />
    <glyph glyph-name="Scaron.titling" horiz-adv-x="1067" 
d="M791 1747v-61l-156 -211h-193l-149 211v61h90l160 -141l162 141h86zM530 -14q-180 0 -299 67q-23 0 -30 -53h-156v418h162l20 -174q58 -57 124 -83t175 -26q127 0 200 59.5t73 174.5q0 65 -18 108.5t-70 73t-88.5 42t-129.5 37.5q-10 3 -15.5 4.5t-14.5 4t-17 4.5
q-98 27 -165.5 60.5t-116.5 83t-71.5 116.5t-22.5 158q0 188 124.5 287.5t329.5 99.5q66 0 124.5 -12.5t78.5 -21t55 -25.5q10 0 19.5 14.5t11.5 30.5h150v-379h-158l-21 143q-47 45 -106.5 71.5t-153.5 26.5q-252 0 -252 -213q0 -40 9 -70.5t30 -53.5t43.5 -39t62 -31
t73 -25t87.5 -24q15 -4 23 -6q110 -30 181.5 -61.5t127 -80t80.5 -117.5t25 -167q0 -206 -124 -314t-360 -108z" />
    <glyph glyph-name="Yacute.titling" horiz-adv-x="1349" 
d="M401 0v131h99q24 0 43.5 21.5t19.5 44.5v397l-401 643q-40 61 -88 61h-43v136h532v-136h-168l322 -528h4l237 393q36 65 17 100t-82 35h-66v136h492v-136h-39q-50 0 -92 -65l-387 -631v-405q0 -23 19.5 -44.5t43.5 -21.5h99v-131h-562zM616 1468l95 273h221v-80
l-193 -193h-123z" />
    <glyph glyph-name="Zcaron.titling" horiz-adv-x="1132" 
d="M834 1741v-62l-156 -211h-193l-149 211v62h90l160 -142l162 142h86zM33 0v162l815 1120v6h-586l-26 -233h-148v379h1012v-166l-815 -1121v-4h626l25 258h154v-401h-1057z" />
    <glyph glyph-name="Adieresis.titling" horiz-adv-x="1476" 
d="M1096 131l-109 322h-561l-55 -158q-59 -164 65 -164h96v-131h-509v131h51q61 0 88 70l370 1028q10 30 -2.5 49.5t-40.5 19.5h-110v136h518l420 -1235q9 -28 32.5 -48t49.5 -20h55v-131h-559v131h201zM713 1257l-236 -665h465l-221 665h-8zM526 1493q-51 0 -85.5 34.5
t-34.5 84.5t34.5 84.5t85.5 34.5t86 -34.5t35 -84.5t-35 -84.5t-86 -34.5zM879 1493q-51 0 -86 34.5t-35 84.5t35 84.5t86 34.5t85.5 -34.5t34.5 -84.5t-34.5 -84.5t-85.5 -34.5z" />
    <glyph glyph-name="Aring.titling" horiz-adv-x="1476" 
d="M1096 131l-109 322h-561l-55 -158q-59 -164 65 -164h96v-131h-509v131h51q61 0 88 70l370 1028q10 30 -2.5 49.5t-40.5 19.5h-110v136h518l420 -1235q9 -28 32.5 -48t49.5 -20h55v-131h-559v131h201zM713 1257l-236 -665h465l-221 665h-8zM702 1473q-85 0 -143.5 54
t-58.5 142t59 142.5t143 54.5q85 0 144 -54.5t59 -142.5t-59 -142t-144 -54zM702 1563q45 0 75 29t30 77q0 50 -30 79.5t-75 29.5t-73.5 -29.5t-28.5 -79.5q0 -49 28.5 -77.5t73.5 -28.5z" />
    <glyph glyph-name="Eacute.titling" horiz-adv-x="1204" 
d="M551 1468l94 273h221v-80l-192 -193h-123zM33 0v131h86q23 0 43 22t20 44v1034q0 24 -20 45.5t-43 21.5h-86v136h1108v-381h-150l-24 235h-551v-485h280l17 170h143v-481h-143l-17 170h-280v-519h569l25 263h153v-406h-1130z" />
    <glyph glyph-name="Ntilde.titling" horiz-adv-x="1454" 
d="M33 0v131h86q23 0 43 22t20 44v1034q0 24 -20 45.5t-43 21.5h-86v136h401l658 -1047h6v911h-180v136h505v-136h-84q-23 0 -42 -21.5t-19 -45.5v-1231h-205l-704 1114h-9v-983h185v-131h-512zM399 1481v112q60 119 185 119q51 0 143.5 -32.5t118.5 -32.5q67 0 86 73h106
v-114q-59 -119 -184 -119q-51 0 -143.5 36t-118.5 36q-66 0 -86 -78h-107z" />
    <glyph glyph-name="Odieresis.titling" horiz-adv-x="1484" 
d="M565 1499q-51 0 -86 34.5t-35 84.5t35 84.5t86 34.5t86 -34.5t35 -84.5t-35 -84.5t-86 -34.5zM918 1499q-51 0 -86 34.5t-35 84.5t35 84.5t86 34.5t85.5 -34.5t34.5 -84.5t-34.5 -84.5t-85.5 -34.5zM743 -14q-141 0 -265 48.5t-218.5 139t-149.5 230.5t-55 313t55 313
t149.5 230.5t218.5 139t265 48.5q140 0 264 -48.5t218.5 -139t149.5 -231t55 -312.5t-55 -312.5t-149.5 -231t-218.5 -139t-264 -48.5zM743 141q196 0 317.5 148.5t121.5 423.5q0 277 -121.5 425t-317.5 148q-198 0 -319 -148t-121 -425q0 -276 121 -424t319 -148z" />
    <glyph glyph-name="Udieresis.titling" horiz-adv-x="1464" 
d="M588 1493q-51 0 -86 34.5t-35 84.5t35 84.5t86 34.5t86 -34.5t35 -84.5t-35 -84.5t-86 -34.5zM940 1493q-51 0 -86 34.5t-35 84.5t35 84.5t86 34.5t86 -34.5t35 -84.5t-35 -84.5t-86 -34.5zM739 -14q-269 0 -414 133t-145 401v711q0 24 -20 45.5t-45 21.5h-82v136h563
v-136h-180v-790q0 -105 24.5 -176.5t72.5 -110.5t108 -55t143 -16q82 0 141.5 16t107.5 54.5t72.5 110.5t24.5 177v790h-180v136h502v-136h-82q-23 0 -43.5 -22t-20.5 -45v-711q0 -271 -137 -402.5t-410 -131.5z" />
    <glyph glyph-name="Agrave.titling" horiz-adv-x="1476" 
d="M1096 131l-109 322h-561l-55 -158q-59 -164 65 -164h96v-131h-509v131h51q61 0 88 70l370 1028q10 30 -2.5 49.5t-40.5 19.5h-110v136h518l420 -1235q9 -28 32.5 -48t49.5 -20h55v-131h-559v131h201zM713 1257l-236 -665h465l-221 665h-8zM655 1468l-192 193v80h221
l94 -273h-123z" />
    <glyph glyph-name="Atilde.titling" horiz-adv-x="1476" 
d="M1096 131l-109 322h-561l-55 -158q-59 -164 65 -164h96v-131h-509v131h51q61 0 88 70l370 1028q10 30 -2.5 49.5t-40.5 19.5h-110v136h518l420 -1235q9 -28 32.5 -48t49.5 -20h55v-131h-559v131h201zM713 1257l-236 -665h465l-221 665h-8zM377 1481v112q60 119 184 119
q51 0 143.5 -32.5t118.5 -32.5q67 0 86 73h107v-114q-59 -119 -185 -119q-51 0 -143.5 36t-118.5 36q-66 0 -86 -78h-106z" />
    <glyph glyph-name="Otilde.titling" horiz-adv-x="1484" 
d="M743 -14q-141 0 -265 48.5t-218.5 139t-149.5 230.5t-55 313t55 313t149.5 230.5t218.5 139t265 48.5q140 0 264 -48.5t218.5 -139t149.5 -231t55 -312.5t-55 -312.5t-149.5 -231t-218.5 -139t-264 -48.5zM743 141q196 0 317.5 148.5t121.5 423.5q0 277 -121.5 425
t-317.5 148q-198 0 -319 -148t-121 -425q0 -276 121 -424t319 -148zM420 1487v112q60 119 184 119q51 0 143.5 -32.5t118.5 -32.5q67 0 86 73h107v-114q-59 -119 -185 -119q-51 0 -143.5 36t-118.5 36q-66 0 -86 -78h-106z" />
    <glyph glyph-name="Acircumflex.titling" horiz-adv-x="1476" 
d="M1096 131l-109 322h-561l-55 -158q-59 -164 65 -164h96v-131h-509v131h51q61 0 88 70l370 1028q10 30 -2.5 49.5t-40.5 19.5h-110v136h518l420 -1235q9 -28 32.5 -48t49.5 -20h55v-131h-559v131h201zM713 1257l-236 -665h465l-221 665h-8zM449 1468v60l153 213h195
l149 -213v-60h-90l-162 142l-159 -142h-86z" />
    <glyph glyph-name="Ecircumflex.titling" horiz-adv-x="1204" 
d="M373 1468v60l153 213h195l149 -213v-60h-90l-162 142l-159 -142h-86zM33 0v131h86q23 0 43 22t20 44v1034q0 24 -20 45.5t-43 21.5h-86v136h1108v-381h-150l-24 235h-551v-485h280l17 170h143v-481h-143l-17 170h-280v-519h569l25 263h153v-406h-1130z" />
    <glyph glyph-name="Aacute.titling" horiz-adv-x="1476" 
d="M1096 131l-109 322h-561l-55 -158q-59 -164 65 -164h96v-131h-509v131h51q61 0 88 70l370 1028q10 30 -2.5 49.5t-40.5 19.5h-110v136h518l420 -1235q9 -28 32.5 -48t49.5 -20h55v-131h-559v131h201zM713 1257l-236 -665h465l-221 665h-8zM629 1468l94 273h221v-80
l-192 -193h-123z" />
    <glyph glyph-name="Edieresis.titling" horiz-adv-x="1204" 
d="M446 1493q-51 0 -85.5 34.5t-34.5 84.5t34.5 84.5t85.5 34.5t86 -34.5t35 -84.5t-35 -84.5t-86 -34.5zM799 1493q-51 0 -86 34.5t-35 84.5t35 84.5t86 34.5t86 -34.5t35 -84.5t-35 -84.5t-86 -34.5zM33 0v131h86q23 0 43 22t20 44v1034q0 24 -20 45.5t-43 21.5h-86v136
h1108v-381h-150l-24 235h-551v-485h280l17 170h143v-481h-143l-17 170h-280v-519h569l25 263h153v-406h-1130z" />
    <glyph glyph-name="Egrave.titling" horiz-adv-x="1204" 
d="M33 0v131h86q23 0 43 22t20 44v1034q0 24 -20 45.5t-43 21.5h-86v136h1108v-381h-150l-24 235h-551v-485h280l17 170h143v-481h-143l-17 170h-280v-519h569l25 263h153v-406h-1130zM575 1468l-192 193v80h221l94 -273h-123z" />
    <glyph glyph-name="Iacute.titling" horiz-adv-x="634" 
d="M33 0v131h102q24 0 44 21.5t20 44.5v1034q0 24 -20 45.5t-44 21.5h-102v136h569v-136h-102q-24 0 -44 -21.5t-20 -45.5v-1034q0 -23 20 -44.5t44 -21.5h102v-131h-569zM242 1468l94 273h221v-80l-192 -193h-123z" />
    <glyph glyph-name="Icircumflex.titling" horiz-adv-x="634" 
d="M33 0v131h102q24 0 44 21.5t20 44.5v1034q0 24 -20 45.5t-44 21.5h-102v136h569v-136h-102q-24 0 -44 -21.5t-20 -45.5v-1034q0 -23 20 -44.5t44 -21.5h102v-131h-569zM68 1468v60l153 213h195l149 -213v-60h-90l-162 142l-159 -142h-86z" />
    <glyph glyph-name="Idieresis.titling" horiz-adv-x="634" 
d="M33 0v131h102q24 0 44 21.5t20 44.5v1034q0 24 -20 45.5t-44 21.5h-102v136h569v-136h-102q-24 0 -44 -21.5t-20 -45.5v-1034q0 -23 20 -44.5t44 -21.5h102v-131h-569zM141 1493q-51 0 -86 34.5t-35 84.5t35 84.5t86 34.5t86 -34.5t35 -84.5t-35 -84.5t-86 -34.5z
M494 1493q-51 0 -86 34.5t-35 84.5t35 84.5t86 34.5t85.5 -34.5t34.5 -84.5t-34.5 -84.5t-85.5 -34.5z" />
    <glyph glyph-name="Igrave.titling" horiz-adv-x="634" 
d="M33 0v131h102q24 0 44 21.5t20 44.5v1034q0 24 -20 45.5t-44 21.5h-102v136h569v-136h-102q-24 0 -44 -21.5t-20 -45.5v-1034q0 -23 20 -44.5t44 -21.5h102v-131h-569zM270 1468l-192 193v80h221l94 -273h-123z" />
    <glyph glyph-name="Oacute.titling" horiz-adv-x="1484" 
d="M666 1475l94 272h221v-80l-193 -192h-122zM743 -14q-141 0 -265 48.5t-218.5 139t-149.5 230.5t-55 313t55 313t149.5 230.5t218.5 139t265 48.5q140 0 264 -48.5t218.5 -139t149.5 -231t55 -312.5t-55 -312.5t-149.5 -231t-218.5 -139t-264 -48.5zM743 141
q196 0 317.5 148.5t121.5 423.5q0 277 -121.5 425t-317.5 148q-198 0 -319 -148t-121 -425q0 -276 121 -424t319 -148z" />
    <glyph glyph-name="Ocircumflex.titling" horiz-adv-x="1484" 
d="M492 1475v59l153 213h195l149 -213v-59h-90l-162 141l-159 -141h-86zM743 -14q-141 0 -265 48.5t-218.5 139t-149.5 230.5t-55 313t55 313t149.5 230.5t218.5 139t265 48.5q140 0 264 -48.5t218.5 -139t149.5 -231t55 -312.5t-55 -312.5t-149.5 -231t-218.5 -139
t-264 -48.5zM743 141q196 0 317.5 148.5t121.5 423.5q0 277 -121.5 425t-317.5 148q-198 0 -319 -148t-121 -425q0 -276 121 -424t319 -148z" />
    <glyph glyph-name="Ograve.titling" horiz-adv-x="1484" 
d="M743 -14q-141 0 -265 48.5t-218.5 139t-149.5 230.5t-55 313t55 313t149.5 230.5t218.5 139t265 48.5q140 0 264 -48.5t218.5 -139t149.5 -231t55 -312.5t-55 -312.5t-149.5 -231t-218.5 -139t-264 -48.5zM743 141q196 0 317.5 148.5t121.5 423.5q0 277 -121.5 425
t-317.5 148q-198 0 -319 -148t-121 -425q0 -276 121 -424t319 -148zM694 1475l-192 192v80h221l94 -272h-123z" />
    <glyph glyph-name="Uacute.titling" horiz-adv-x="1464" 
d="M690 1468l94 273h222v-80l-193 -193h-123zM739 -14q-269 0 -414 133t-145 401v711q0 24 -20 45.5t-45 21.5h-82v136h563v-136h-180v-790q0 -105 24.5 -176.5t72.5 -110.5t108 -55t143 -16q82 0 141.5 16t107.5 54.5t72.5 110.5t24.5 177v790h-180v136h502v-136h-82
q-23 0 -43.5 -22t-20.5 -45v-711q0 -271 -137 -402.5t-410 -131.5z" />
    <glyph glyph-name="Ucircumflex.titling" horiz-adv-x="1464" 
d="M516 1468v60l154 213h194l150 -213v-60h-90l-162 142l-160 -142h-86zM739 -14q-269 0 -414 133t-145 401v711q0 24 -20 45.5t-45 21.5h-82v136h563v-136h-180v-790q0 -105 24.5 -176.5t72.5 -110.5t108 -55t143 -16q82 0 141.5 16t107.5 54.5t72.5 110.5t24.5 177v790
h-180v136h502v-136h-82q-23 0 -43.5 -22t-20.5 -45v-711q0 -271 -137 -402.5t-410 -131.5z" />
    <glyph glyph-name="Ugrave.titling" horiz-adv-x="1464" 
d="M739 -14q-269 0 -414 133t-145 401v711q0 24 -20 45.5t-45 21.5h-82v136h563v-136h-180v-790q0 -105 24.5 -176.5t72.5 -110.5t108 -55t143 -16q82 0 141.5 16t107.5 54.5t72.5 110.5t24.5 177v790h-180v136h502v-136h-82q-23 0 -43.5 -22t-20.5 -45v-711
q0 -271 -137 -402.5t-410 -131.5zM721 1468l-193 193v80h222l94 -273h-123z" />
    <glyph glyph-name="Ydieresis.titling" horiz-adv-x="1349" 
d="M401 0v131h99q24 0 43.5 21.5t19.5 44.5v397l-401 643q-40 61 -88 61h-43v136h532v-136h-168l322 -528h4l237 393q36 65 17 100t-82 35h-66v136h492v-136h-39q-50 0 -92 -65l-387 -631v-405q0 -23 19.5 -44.5t43.5 -21.5h99v-131h-562zM516 1493q-51 0 -86 34.5t-35 84.5
t35 84.5t86 34.5t86 -34.5t35 -84.5t-35 -84.5t-86 -34.5zM868 1493q-51 0 -85.5 34.5t-34.5 84.5t34.5 84.5t85.5 34.5t86 -34.5t35 -84.5t-35 -84.5t-86 -34.5z" />
    <glyph glyph-name="Amacron.titling" horiz-adv-x="1476" 
d="M1096 131l-109 322h-561l-55 -158q-59 -164 65 -164h96v-131h-509v131h51q61 0 88 70l370 1028q10 30 -2.5 49.5t-40.5 19.5h-110v136h518l420 -1235q9 -28 32.5 -48t49.5 -20h55v-131h-559v131h201zM713 1257l-236 -665h465l-221 665h-8zM956 1673v-147h-516v147h516z
" />
    <glyph glyph-name="Abreve.titling" horiz-adv-x="1476" 
d="M1096 131l-109 322h-561l-55 -158q-59 -164 65 -164h96v-131h-509v131h51q61 0 88 70l370 1028q10 30 -2.5 49.5t-40.5 19.5h-110v136h518l420 -1235q9 -28 32.5 -48t49.5 -20h55v-131h-559v131h201zM713 1257l-236 -665h465l-221 665h-8zM702 1470q-104 0 -168.5 52
t-91.5 129v78h131q9 -53 42 -82t87 -29q110 0 129 111h132v-78q-26 -77 -91.5 -129t-169.5 -52z" />
    <glyph glyph-name="Cacute.titling" horiz-adv-x="1290" 
d="M653 1475l95 272h221v-80l-193 -192h-123zM735 -14q-316 0 -499 190t-183 541q0 175 51.5 314t144 230t219.5 139t280 48q165 0 286 -53q12 0 22 11t11 28h150v-439h-162l-25 203q-108 90 -276 90q-98 0 -179 -33.5t-142.5 -100t-95.5 -176t-34 -253.5q0 -287 114 -435.5
t326 -148.5q250 0 385 183h113v-168q-203 -170 -506 -170z" />
    <glyph glyph-name="Ccircumflex.titling" horiz-adv-x="1290" 
d="M479 1475v59l154 213h194l150 -213v-59h-90l-162 141l-160 -141h-86zM735 -14q-316 0 -499 190t-183 541q0 175 51.5 314t144 230t219.5 139t280 48q165 0 286 -53q12 0 22 11t11 28h150v-439h-162l-25 203q-108 90 -276 90q-98 0 -179 -33.5t-142.5 -100t-95.5 -176
t-34 -253.5q0 -287 114 -435.5t326 -148.5q250 0 385 183h113v-168q-203 -170 -506 -170z" />
    <glyph glyph-name="Cdotaccent.titling" horiz-adv-x="1290" 
d="M735 -14q-316 0 -499 190t-183 541q0 175 51.5 314t144 230t219.5 139t280 48q165 0 286 -53q12 0 22 11t11 28h150v-439h-162l-25 203q-108 90 -276 90q-98 0 -179 -33.5t-142.5 -100t-95.5 -176t-34 -253.5q0 -287 114 -435.5t326 -148.5q250 0 385 183h113v-168
q-203 -170 -506 -170zM727 1499q-54 0 -90.5 36t-36.5 89t36.5 89t90.5 36t90.5 -36t36.5 -89t-36.5 -89t-90.5 -36z" />
    <glyph glyph-name="Ccaron.titling" horiz-adv-x="1290" 
d="M979 1747v-61l-156 -211h-192l-150 211v61h90l160 -141l162 141h86zM735 -14q-316 0 -499 190t-183 541q0 175 51.5 314t144 230t219.5 139t280 48q165 0 286 -53q12 0 22 11t11 28h150v-439h-162l-25 203q-108 90 -276 90q-98 0 -179 -33.5t-142.5 -100t-95.5 -176
t-34 -253.5q0 -287 114 -435.5t326 -148.5q250 0 385 183h113v-168q-203 -170 -506 -170z" />
    <glyph glyph-name="Dcaron.titling" horiz-adv-x="1413" 
d="M860 1741v-62l-155 -211h-193l-150 211v62h91l159 -142l162 142h86zM33 0v131h86q23 0 43 22t20 44v1034q0 24 -20 45.5t-43 21.5h-86v136h579q367 0 556.5 -173t189.5 -540q0 -363 -193 -542t-561 -179h-571zM420 139h184q261 0 383.5 137.5t122.5 442.5
q0 302 -121.5 435.5t-384.5 133.5h-184v-1149z" />
    <glyph glyph-name="Emacron.titling" horiz-adv-x="1204" 
d="M33 0v131h86q23 0 43 22t20 44v1034q0 24 -20 45.5t-43 21.5h-86v136h1108v-381h-150l-24 235h-551v-485h280l17 170h143v-481h-143l-17 170h-280v-519h569l25 263h153v-406h-1130zM881 1673v-147h-516v147h516z" />
    <glyph glyph-name="Edotaccent.titling" horiz-adv-x="1204" 
d="M33 0v131h86q23 0 43 22t20 44v1034q0 24 -20 45.5t-43 21.5h-86v136h1108v-381h-150l-24 235h-551v-485h280l17 170h143v-481h-143l-17 170h-280v-519h569l25 263h153v-406h-1130zM623 1493q-54 0 -90.5 36t-36.5 89t36.5 89t90.5 36t90.5 -36t36.5 -89t-36.5 -89
t-90.5 -36z" />
    <glyph glyph-name="Ecaron.titling" horiz-adv-x="1204" 
d="M872 1741v-62l-155 -211h-193l-149 211v62h90l160 -142l161 142h86zM33 0v131h86q23 0 43 22t20 44v1034q0 24 -20 45.5t-43 21.5h-86v136h1108v-381h-150l-24 235h-551v-485h280l17 170h143v-481h-143l-17 170h-280v-519h569l25 263h153v-406h-1130z" />
    <glyph glyph-name="Ebreve.titling" horiz-adv-x="1204" 
d="M33 0v131h86q23 0 43 22t20 44v1034q0 24 -20 45.5t-43 21.5h-86v136h1108v-381h-150l-24 235h-551v-485h280l17 170h143v-481h-143l-17 170h-280v-519h569l25 263h153v-406h-1130zM631 1477q-104 0 -169 51.5t-91 128.5v78h131q9 -53 42 -82t87 -29q110 0 129 111h131
v-78q-26 -77 -91 -128.5t-169 -51.5z" />
    <glyph glyph-name="Gcircumflex.titling" horiz-adv-x="1376" 
d="M489 1475v59l154 213h195l149 -213v-59h-90l-162 141l-160 -141h-86zM715 -14q-310 0 -486 189.5t-176 541.5q0 175 51 314t143.5 230t220.5 139t282 48q25 0 48 -1t44 -3.5t37.5 -5t35 -7t28.5 -7t27 -8t21.5 -7t20 -8t16.5 -6.5q11 0 20.5 9.5t12.5 29.5h149v-426h-161
l-25 182q-127 98 -272 98q-97 0 -177.5 -33.5t-142 -100t-95.5 -176t-34 -253.5q0 -288 108.5 -436t313.5 -148q151 0 266 64v325h-170v136h527v-136h-60q-24 0 -43.5 -21t-19.5 -44v-465h-131q0 20 -14 39.5t-38 19.5q-54 -23 -79.5 -33t-98 -25t-149.5 -15z" />
    <glyph glyph-name="Gbreve.titling" horiz-adv-x="1376" 
d="M715 -14q-310 0 -486 189.5t-176 541.5q0 175 51 314t143.5 230t220.5 139t282 48q25 0 48 -1t44 -3.5t37.5 -5t35 -7t28.5 -7t27 -8t21.5 -7t20 -8t16.5 -6.5q11 0 20.5 9.5t12.5 29.5h149v-426h-161l-25 182q-127 98 -272 98q-97 0 -177.5 -33.5t-142 -100t-95.5 -176
t-34 -253.5q0 -288 108.5 -436t313.5 -148q151 0 266 64v325h-170v136h527v-136h-60q-24 0 -43.5 -21t-19.5 -44v-465h-131q0 20 -14 39.5t-38 19.5q-54 -23 -79.5 -33t-98 -25t-149.5 -15zM739 1477q-104 0 -169 51.5t-91 128.5v78h131q9 -53 42 -82t87 -29q110 0 129 111
h131v-78q-26 -77 -91 -128.5t-169 -51.5z" />
    <glyph glyph-name="Gdotaccent.titling" horiz-adv-x="1376" 
d="M715 -14q-310 0 -486 189.5t-176 541.5q0 175 51 314t143.5 230t220.5 139t282 48q25 0 48 -1t44 -3.5t37.5 -5t35 -7t28.5 -7t27 -8t21.5 -7t20 -8t16.5 -6.5q11 0 20.5 9.5t12.5 29.5h149v-426h-161l-25 182q-127 98 -272 98q-97 0 -177.5 -33.5t-142 -100t-95.5 -176
t-34 -253.5q0 -288 108.5 -436t313.5 -148q151 0 266 64v325h-170v136h527v-136h-60q-24 0 -43.5 -21t-19.5 -44v-465h-131q0 20 -14 39.5t-38 19.5q-54 -23 -79.5 -33t-98 -25t-149.5 -15zM737 1499q-54 0 -90.5 36t-36.5 89t36.5 89t90.5 36t90.5 -36t36.5 -89t-36.5 -89
t-90.5 -36z" />
    <glyph glyph-name="Hcircumflex.titling" horiz-adv-x="1486" 
d="M494 1468v60l153 213h195l149 -213v-60h-90l-162 142l-159 -142h-86zM33 0v131h86q23 0 43 22t20 44v1034q0 24 -20 45.5t-43 21.5h-86v136h569v-136h-182v-493h645v493h-182v136h571v-136h-86q-24 0 -44.5 -21.5t-20.5 -45.5v-1034q0 -23 20.5 -44.5t44.5 -21.5h86v-131
h-571v131h182v535h-645v-535h182v-131h-569z" />
    <glyph glyph-name="Imacron.titling" horiz-adv-x="634" 
d="M33 0v131h102q24 0 44 21.5t20 44.5v1034q0 24 -20 45.5t-44 21.5h-102v136h569v-136h-102q-24 0 -44 -21.5t-20 -45.5v-1034q0 -23 20 -44.5t44 -21.5h102v-131h-569zM575 1673v-147h-516v147h516z" />
    <glyph glyph-name="Idotaccent.titling" horiz-adv-x="634" 
d="M33 0v131h102q24 0 44 21.5t20 44.5v1034q0 24 -20 45.5t-44 21.5h-102v136h569v-136h-102q-24 0 -44 -21.5t-20 -45.5v-1034q0 -23 20 -44.5t44 -21.5h102v-131h-569zM317 1493q-54 0 -90.5 36t-36.5 89t36.5 89t90.5 36t90.5 -36t36.5 -89t-36.5 -89t-90.5 -36z" />
    <glyph glyph-name="Jcircumflex.titling" horiz-adv-x="974" 
d="M412 1468v60l153 213h195l149 -213v-60h-90l-162 142l-159 -142h-86zM352 -14q-173 0 -323 73v172h131q64 -90 188 -90q101 0 148 51.5t47 153.5v885q0 24 -19 45.5t-43 21.5h-98v136h559v-136h-98q-23 0 -42.5 -21.5t-19.5 -45.5v-889q0 -181 -105 -268.5t-325 -87.5z
" />
    <glyph glyph-name="Lacute.titling" horiz-adv-x="1161" 
d="M244 1468l94 273h221v-80l-192 -193h-123zM33 0v131h86q23 0 43 22t20 44v1034q0 24 -20 45.5t-43 21.5h-86v136h594v-136h-207v-1155h522l23 301h161v-444h-1093z" />
    <glyph glyph-name="Nacute.titling" horiz-adv-x="1454" 
d="M645 1468l94 273h222v-80l-193 -193h-123zM33 0v131h86q23 0 43 22t20 44v1034q0 24 -20 45.5t-43 21.5h-86v136h401l658 -1047h6v911h-180v136h505v-136h-84q-23 0 -42 -21.5t-19 -45.5v-1231h-205l-704 1114h-9v-983h185v-131h-512z" />
    <glyph glyph-name="Ncaron.titling" horiz-adv-x="1454" 
d="M973 1741v-62l-156 -211h-192l-150 211v62h90l160 -142l162 142h86zM33 0v131h86q23 0 43 22t20 44v1034q0 24 -20 45.5t-43 21.5h-86v136h401l658 -1047h6v911h-180v136h505v-136h-84q-23 0 -42 -21.5t-19 -45.5v-1231h-205l-704 1114h-9v-983h185v-131h-512z" />
    <glyph glyph-name="Omacron.titling" horiz-adv-x="1484" 
d="M999 1679v-147h-516v147h516zM743 -14q-141 0 -265 48.5t-218.5 139t-149.5 230.5t-55 313t55 313t149.5 230.5t218.5 139t265 48.5q140 0 264 -48.5t218.5 -139t149.5 -231t55 -312.5t-55 -312.5t-149.5 -231t-218.5 -139t-264 -48.5zM743 141q196 0 317.5 148.5
t121.5 423.5q0 277 -121.5 425t-317.5 148q-198 0 -319 -148t-121 -425q0 -276 121 -424t319 -148z" />
    <glyph glyph-name="Ohungarumlaut.titling" horiz-adv-x="1484" 
d="M512 1475l68 272h186v-80l-131 -192h-123zM809 1475l68 272h186v-80l-131 -192h-123zM743 -14q-141 0 -265 48.5t-218.5 139t-149.5 230.5t-55 313t55 313t149.5 230.5t218.5 139t265 48.5q140 0 264 -48.5t218.5 -139t149.5 -231t55 -312.5t-55 -312.5t-149.5 -231
t-218.5 -139t-264 -48.5zM743 141q196 0 317.5 148.5t121.5 423.5q0 277 -121.5 425t-317.5 148q-198 0 -319 -148t-121 -425q0 -276 121 -424t319 -148z" />
    <glyph glyph-name="Racute.titling" horiz-adv-x="1337" 
d="M512 1468l94 273h221v-80l-192 -193h-123zM33 0v131h86q23 0 43 22t20 44v1034q0 24 -20 45.5t-43 21.5h-86v136h585q257 0 400 -96.5t143 -299.5q0 -147 -83 -227t-238 -109v-6q78 -17 127 -45.5t90 -94.5t71 -179l52 -191q7 -26 24.5 -40.5t34.5 -14.5h70v-131h-336
l-80 387q-29 138 -92.5 189t-202.5 51h-178v-496h182v-131h-569zM420 768h194q163 0 233.5 61.5t70.5 194.5q0 137 -72.5 201.5t-231.5 64.5h-194v-522z" />
    <glyph glyph-name="Rcaron.titling" horiz-adv-x="1337" 
d="M838 1741v-62l-156 -211h-193l-149 211v62h90l160 -142l162 142h86zM33 0v131h86q23 0 43 22t20 44v1034q0 24 -20 45.5t-43 21.5h-86v136h585q257 0 400 -96.5t143 -299.5q0 -147 -83 -227t-238 -109v-6q78 -17 127 -45.5t90 -94.5t71 -179l52 -191q7 -26 24.5 -40.5
t34.5 -14.5h70v-131h-336l-80 387q-29 138 -92.5 189t-202.5 51h-178v-496h182v-131h-569zM420 768h194q163 0 233.5 61.5t70.5 194.5q0 137 -72.5 201.5t-231.5 64.5h-194v-522z" />
    <glyph glyph-name="Sacute.titling" horiz-adv-x="1067" 
d="M461 1475l94 272h221v-80l-192 -192h-123zM530 -14q-180 0 -299 67q-23 0 -30 -53h-156v418h162l20 -174q58 -57 124 -83t175 -26q127 0 200 59.5t73 174.5q0 65 -18 108.5t-70 73t-88.5 42t-129.5 37.5q-10 3 -15.5 4.5t-14.5 4t-17 4.5q-98 27 -165.5 60.5t-116.5 83
t-71.5 116.5t-22.5 158q0 188 124.5 287.5t329.5 99.5q66 0 124.5 -12.5t78.5 -21t55 -25.5q10 0 19.5 14.5t11.5 30.5h150v-379h-158l-21 143q-47 45 -106.5 71.5t-153.5 26.5q-252 0 -252 -213q0 -40 9 -70.5t30 -53.5t43.5 -39t62 -31t73 -25t87.5 -24q15 -4 23 -6
q110 -30 181.5 -61.5t127 -80t80.5 -117.5t25 -167q0 -206 -124 -314t-360 -108z" />
    <glyph glyph-name="Scircumflex.titling" horiz-adv-x="1067" 
d="M287 1475v59l153 213h195l149 -213v-59h-90l-162 141l-159 -141h-86zM530 -14q-180 0 -299 67q-23 0 -30 -53h-156v418h162l20 -174q58 -57 124 -83t175 -26q127 0 200 59.5t73 174.5q0 65 -18 108.5t-70 73t-88.5 42t-129.5 37.5q-10 3 -15.5 4.5t-14.5 4t-17 4.5
q-98 27 -165.5 60.5t-116.5 83t-71.5 116.5t-22.5 158q0 188 124.5 287.5t329.5 99.5q66 0 124.5 -12.5t78.5 -21t55 -25.5q10 0 19.5 14.5t11.5 30.5h150v-379h-158l-21 143q-47 45 -106.5 71.5t-153.5 26.5q-252 0 -252 -213q0 -40 9 -70.5t30 -53.5t43.5 -39t62 -31
t73 -25t87.5 -24q15 -4 23 -6q110 -30 181.5 -61.5t127 -80t80.5 -117.5t25 -167q0 -206 -124 -314t-360 -108z" />
    <glyph glyph-name="Tcaron.titling" horiz-adv-x="1298" 
d="M891 1741v-62l-156 -211h-192l-150 211v62h90l160 -142l162 142h86zM369 0v131h98q24 0 43.5 21.5t19.5 44.5v1095h-307l-20 -303h-154v445h1200v-445h-153l-21 303h-307v-1095q0 -23 19.5 -44.5t43.5 -21.5h99v-131h-561z" />
    <glyph glyph-name="Umacron.titling" horiz-adv-x="1464" 
d="M739 -14q-269 0 -414 133t-145 401v711q0 24 -20 45.5t-45 21.5h-82v136h563v-136h-180v-790q0 -105 24.5 -176.5t72.5 -110.5t108 -55t143 -16q82 0 141.5 16t107.5 54.5t72.5 110.5t24.5 177v790h-180v136h502v-136h-82q-23 0 -43.5 -22t-20.5 -45v-711
q0 -271 -137 -402.5t-410 -131.5zM1018 1673v-147h-516v147h516z" />
    <glyph glyph-name="Ubreve.titling" horiz-adv-x="1464" 
d="M739 -14q-269 0 -414 133t-145 401v711q0 24 -20 45.5t-45 21.5h-82v136h563v-136h-180v-790q0 -105 24.5 -176.5t72.5 -110.5t108 -55t143 -16q82 0 141.5 16t107.5 54.5t72.5 110.5t24.5 177v790h-180v136h502v-136h-82q-23 0 -43.5 -22t-20.5 -45v-711
q0 -271 -137 -402.5t-410 -131.5zM760 1470q-104 0 -168.5 52t-91.5 129v78h131q9 -53 42 -82t87 -29q110 0 129 111h131v-78q-27 -77 -91.5 -129t-168.5 -52z" />
    <glyph glyph-name="Uring.titling" horiz-adv-x="1464" 
d="M754 1419q-85 0 -144 54.5t-59 142.5t59 142t144 54t143.5 -54t58.5 -142t-59 -142.5t-143 -54.5zM754 1509q45 0 74.5 29t29.5 78q0 50 -29.5 79t-74.5 29t-74 -29t-29 -79q0 -49 29 -78t74 -29zM739 -14q-269 0 -414 133t-145 401v711q0 24 -20 45.5t-45 21.5h-82v136
h563v-136h-180v-790q0 -105 24.5 -176.5t72.5 -110.5t108 -55t143 -16q82 0 141.5 16t107.5 54.5t72.5 110.5t24.5 177v790h-180v136h502v-136h-82q-23 0 -43.5 -22t-20.5 -45v-711q0 -271 -137 -402.5t-410 -131.5z" />
    <glyph glyph-name="Uhungarumlaut.titling" horiz-adv-x="1464" 
d="M739 -14q-269 0 -414 133t-145 401v711q0 24 -20 45.5t-45 21.5h-82v136h563v-136h-180v-790q0 -105 24.5 -176.5t72.5 -110.5t108 -55t143 -16q82 0 141.5 16t107.5 54.5t72.5 110.5t24.5 177v790h-180v136h502v-136h-82q-23 0 -43.5 -22t-20.5 -45v-711
q0 -271 -137 -402.5t-410 -131.5zM539 1468l67 273h187v-80l-131 -193h-123zM836 1468l67 273h187v-80l-132 -193h-122z" />
    <glyph glyph-name="Zacute.titling" horiz-adv-x="1132" 
d="M498 1468l94 273h221v-80l-192 -193h-123zM33 0v162l815 1120v6h-586l-26 -233h-148v379h1012v-166l-815 -1121v-4h626l25 258h154v-401h-1057z" />
    <glyph glyph-name="Zdotaccent.titling" horiz-adv-x="1132" 
d="M33 0v162l815 1120v6h-586l-26 -233h-148v379h1012v-166l-815 -1121v-4h626l25 258h154v-401h-1057zM573 1493q-54 0 -90.5 36t-36.5 89t36.5 89t90.5 36t90.5 -36t36.5 -89t-36.5 -89t-90.5 -36z" />
    </font>
</defs>
</svg>
